<svg width="24" height="24" viewBox="0 0 24 24" fill="none" xmlns="http://www.w3.org/2000/svg">
<path d="M20.486 3.51458C15.7997 -1.17126 8.2014 -1.17179 3.51452 3.51458C-1.17185 8.20094 -1.17133 15.7992 3.51452 20.4861C8.20088 25.1714 15.7991 25.1719 20.486 20.4861C25.1719 15.7992 25.1713 8.20146 20.486 3.51458ZM13.565 17.2178C13.565 18.0824 12.8643 18.7831 11.9997 18.7831C11.1352 18.7831 10.4345 18.0824 10.4345 17.2178V10.9568C10.4345 10.0923 11.1352 9.39157 11.9997 9.39157C12.8643 9.39157 13.565 10.0923 13.565 10.9568V17.2178ZM11.9721 8.28129C11.0705 8.28129 10.4695 7.64267 10.4882 6.8543C10.4695 6.02785 11.0705 5.40853 11.9904 5.40853C12.9107 5.40853 13.493 6.02837 13.5123 6.8543C13.5118 7.64267 12.9112 8.28129 11.9721 8.28129Z" fill="#B1B1B1"/>
</svg>
