<svg width="25" height="24" viewBox="0 0 25 24" fill="none" xmlns="http://www.w3.org/2000/svg">
<circle cx="12" cy="12" r="12" fill="white"/>
<path d="M17.9193 15.2753C16.9113 14.4233 16.3333 13.178 16.3333 11.8587V10C16.3333 7.654 14.5907 5.712 12.3333 5.38667V4.66667C12.3333 4.298 12.0347 4 11.6667 4C11.2987 4 11 4.298 11 4.66667V5.38667C8.742 5.712 7 7.654 7 10V11.8587C7 13.178 6.422 14.4233 5.408 15.2807C5.14867 15.5027 5 15.8253 5 16.1667C5 16.81 5.52333 17.3333 6.16667 17.3333H17.1667C17.81 17.3333 18.3333 16.81 18.3333 16.1667C18.3333 15.8253 18.1847 15.5027 17.9193 15.2753Z" fill="#2A6DE6"/>
<path d="M11.6666 20C12.874 20 13.884 19.1393 14.116 18H9.21729C9.44929 19.1393 10.4593 20 11.6666 20Z" fill="#2A6DE6"/>
<circle cx="21" cy="4" r="4" fill="#FF4343"/>
</svg>
