<svg width="20" height="20" viewBox="0 0 20 20" fill="none" xmlns="http://www.w3.org/2000/svg">
<circle cx="10" cy="10" r="10" fill="#62CDA3"/>
<path d="M11.8128 9.704C12.2848 9.792 12.6728 10.028 12.9768 10.412C13.2808 10.796 13.4328 11.236 13.4328 11.732C13.4328 12.18 13.3208 12.576 13.0968 12.92C12.8808 13.256 12.5648 13.52 12.1488 13.712C11.7328 13.904 11.2408 14 10.6728 14H7.0608V5.624H10.5168C11.0848 5.624 11.5728 5.716 11.9808 5.9C12.3968 6.084 12.7088 6.34 12.9168 6.668C13.1328 6.996 13.2408 7.368 13.2408 7.784C13.2408 8.272 13.1088 8.68 12.8448 9.008C12.5888 9.336 12.2448 9.568 11.8128 9.704ZM8.7408 9.08H10.2768C10.6768 9.08 10.9848 8.992 11.2008 8.816C11.4168 8.632 11.5248 8.372 11.5248 8.036C11.5248 7.7 11.4168 7.44 11.2008 7.256C10.9848 7.072 10.6768 6.98 10.2768 6.98H8.7408V9.08ZM10.4328 12.632C10.8408 12.632 11.1568 12.536 11.3808 12.344C11.6128 12.152 11.7288 11.88 11.7288 11.528C11.7288 11.168 11.6088 10.888 11.3688 10.688C11.1288 10.48 10.8048 10.376 10.3968 10.376H8.7408V12.632H10.4328Z" fill="white"/>
</svg>
