<svg width="18" height="18" viewBox="0 0 18 18" fill="none" xmlns="http://www.w3.org/2000/svg">
<path d="M9 0C4.05 0 0 4.05 0 9C0 13.95 4.05 18 9 18C13.95 18 18 13.95 18 9C18 4.05 13.95 0 9 0ZM9 16.2C5.04 16.2 1.8 12.96 1.8 9C1.8 5.04 5.04 1.8 9 1.8C12.96 1.8 16.2 5.04 16.2 9C16.2 12.96 12.96 16.2 9 16.2Z" fill="white"/>
<path d="M11.3399 5.40002L8.9999 7.74002L6.6599 5.40002L5.3999 6.66002L7.7399 9.00002L5.3999 11.34L6.6599 12.6L8.9999 10.26L11.3399 12.6L12.5999 11.34L10.2599 9.00002L12.5999 6.66002L11.3399 5.40002Z" fill="white"/>
</svg>
