<svg width="47" height="47" viewBox="0 0 47 47" fill="none" xmlns="http://www.w3.org/2000/svg">
<path d="M45.9957 9.46696C45.1117 5.47563 41.2425 1.81936 37.2402 1.04276C34.8011 0.555321 27.998 -0.0468668 23.5 -5.04111e-05C19.002 -0.0496207 12.1998 0.550731 9.76076 1.04001C5.75842 1.81936 1.88918 5.47563 1.00977 9.46696C0.502129 11.8904 0.00734375 15.1877 0 19.6885C0.00734375 24.1866 0.502129 27.4849 1.00977 29.9092C1.89377 33.9005 5.76301 37.5568 9.76535 38.3334C11.0817 38.5959 13.6713 38.8934 16.4821 39.1027C16.8004 39.6027 17.1461 40.1351 17.5194 40.6999C19.0111 42.96 20.1522 44.5343 21.0178 45.6313C22.4572 47.4562 24.552 47.4562 25.9914 45.6313C26.857 44.5343 27.998 42.96 29.4897 40.6999C29.8631 40.1357 30.2088 39.6033 30.527 39.1027C33.3388 38.8934 35.9275 38.5959 37.2447 38.3334C41.2471 37.5568 45.1163 33.9005 46.0003 29.9092C46.5034 27.4849 46.9972 24.1884 47.0055 19.6885C46.9927 15.1868 46.4988 11.8913 45.9957 9.46696Z" fill="#2A6DE6"/>
<path d="M23.5 -5.04111e-05C19.002 -0.0496207 12.1998 0.550731 9.76076 1.04001C5.75842 1.81936 1.88918 5.47563 1.00977 9.46696C0.502129 11.8904 0.00734375 15.1877 0 19.6885C0.00734375 24.1866 0.502129 27.4849 1.00977 29.9092C1.53025 32.2583 3.08529 34.4917 5.09289 36.0899C7.0512 36.5588 9.05796 36.7951 11.0716 36.794C25.1744 36.794 36.6068 25.3616 36.6068 11.2598C36.61 7.58723 35.8177 3.95759 34.2843 0.620497C31.1476 0.267997 26.7303 -0.0330973 23.5 -5.04111e-05Z" fill="#3072EA"/>
<path d="M26.0962 33.3351C26.0353 33.6211 25.8928 33.8832 25.6861 34.0899C25.4794 34.2967 25.2172 34.4391 24.9313 34.5C23.9831 34.6457 23.0182 34.6457 22.07 34.5C21.784 34.4392 21.5218 34.2968 21.3151 34.0901C21.1083 33.8833 20.9659 33.6211 20.9051 33.3351C20.7582 32.3867 20.7582 31.4213 20.9051 30.4729C20.9659 30.1869 21.1083 29.9247 21.3151 29.718C21.5218 29.5113 21.784 29.3689 22.07 29.308C23.0182 29.1624 23.9831 29.1624 24.9313 29.308C25.2177 29.3692 25.4802 29.5122 25.687 29.7196C25.8937 29.927 26.0359 30.19 26.0962 30.4766C26.2431 31.425 26.2431 32.3904 26.0962 33.3388V33.3351ZM31.6848 18.2997C30.9761 19.3022 29.914 20.2174 28.3425 21.1785C26.3532 22.4049 26.0347 22.9089 26.0347 23.8957V24.2858C26.0411 24.6231 25.9802 24.9583 25.8556 25.2719C25.7309 25.5854 25.545 25.8709 25.3087 26.1117C25.0725 26.3525 24.7905 26.5438 24.4794 26.6744C24.1684 26.805 23.8344 26.8723 23.497 26.8723C23.1596 26.8723 22.8256 26.805 22.5145 26.6744C22.2034 26.5438 21.9215 26.3525 21.6852 26.1117C21.4489 25.8709 21.263 25.5854 21.1384 25.2719C21.0137 24.9583 20.9528 24.6231 20.9593 24.2858V23.3816C20.9593 22.2176 21.2503 21.2299 21.8488 20.3624C22.4289 19.5216 23.2992 18.7743 24.588 18.0078C26.9646 16.6098 27.3997 15.8249 27.3997 14.783C27.3997 13.474 26.2844 12.6276 24.554 12.6276C22.6639 12.6276 21.4329 13.4868 20.8959 15.1823C20.7219 15.7278 20.3781 16.2033 19.9147 16.5395C19.4514 16.8758 18.8926 17.0551 18.3201 17.0513C18.254 17.0513 18.187 17.0513 18.1218 17.044C17.7105 17.015 17.3113 16.8924 16.9546 16.6856C16.5979 16.4787 16.2932 16.1932 16.0637 15.8506C15.8345 15.5141 15.6852 15.1297 15.6273 14.7267C15.5693 14.3237 15.6043 13.9128 15.7296 13.5254C16.2804 11.76 17.41 10.2316 18.9361 9.18706C20.4746 8.13874 22.4179 7.58521 24.554 7.58521C26.7728 7.58521 28.8318 8.29296 30.3519 9.57812C31.9171 10.9 32.7781 12.724 32.7781 14.7132C32.7827 16.081 32.4238 17.2578 31.6848 18.2997Z" fill="white"/>
</svg>
