<svg width="24" height="24" viewBox="0 0 24 24" fill="none" xmlns="http://www.w3.org/2000/svg">
<path d="M0.75 9.99827V20.136C0.75 21.3705 1.76925 22.3838 3.003 22.3838H14.004C15.2378 22.3838 16.251 21.369 16.251 20.136V9.99827C16.251 8.76377 15.237 7.74527 14.004 7.74527H3.003C1.76925 7.74527 0.75 8.76452 0.75 9.99827ZM10.2495 1.61627C8.877 1.61627 7.7535 2.74577 7.7535 4.11827V6.24377H14.004C16.065 6.24377 17.751 7.94252 17.751 9.99827V16.2548H20.7525C22.125 16.2548 23.25 15.1253 23.25 13.7528V4.11827C23.25 2.74577 22.125 1.61627 20.7525 1.61627H10.2495Z" fill="#B1B1B1"/>
</svg>
