<svg width="22" height="24" viewBox="0 0 22 24" fill="none" xmlns="http://www.w3.org/2000/svg">
<path d="M18.4819 6.51244L19.989 5.00531C20.2636 4.73072 20.2636 4.28555 19.989 4.01095C19.7145 3.73636 19.2693 3.73636 18.9947 4.01095L17.4876 5.51808C15.7964 4.03688 13.6303 3.08672 11.25 2.92969V1.40625H11.9531C12.3414 1.40625 12.6562 1.09144 12.6562 0.703125C12.6562 0.314812 12.3414 0 11.9531 0H9.14062C8.75231 0 8.4375 0.314812 8.4375 0.703125C8.4375 1.09144 8.75231 1.40625 9.14062 1.40625H9.84375V2.92969C4.35469 3.2925 0 7.87359 0 13.4531C0 19.2689 4.73109 24 10.5469 24C16.3627 24 21.0938 19.2689 21.0938 13.4531C21.0938 10.7977 20.1075 8.36864 18.4819 6.51244ZM10.5469 21.1875C6.28219 21.1875 2.8125 17.7178 2.8125 13.4531C2.8125 9.18844 6.28219 5.71875 10.5469 5.71875C14.8116 5.71875 18.2812 9.18844 18.2812 13.4531C18.2812 17.7178 14.8116 21.1875 10.5469 21.1875Z" fill="#B1B1B1"/>
<path d="M10.5469 7.125C7.0575 7.125 4.21875 9.96375 4.21875 13.4531C4.21875 16.9425 7.0575 19.7812 10.5469 19.7812C14.0363 19.7812 16.875 16.9425 16.875 13.4531C16.875 9.96375 14.0363 7.125 10.5469 7.125ZM14.0259 10.9688L11.0442 13.9505C10.7695 14.2247 10.3242 14.2252 10.0495 13.9505C9.77531 13.6758 9.77531 13.2305 10.0495 12.9558L13.0312 9.97406C13.3059 9.69937 13.7513 9.69937 14.0259 9.97406C14.3006 10.2487 14.3006 10.6941 14.0259 10.9688V10.9688Z" fill="#B1B1B1"/>
</svg>
