<svg width="13" height="14" viewBox="0 0 13 14" fill="none" xmlns="http://www.w3.org/2000/svg">
<path fill-rule="evenodd" clip-rule="evenodd" d="M0 6.625C0 3.035 2.91 0.125 6.5 0.125C10.09 0.125 13 3.035 13 6.625C13 10.215 10.09 13.125 6.5 13.125C2.91 13.125 0 10.215 0 6.625ZM5.804 5.66367C6.568 5.28167 7.42867 5.97233 7.22133 6.801L6.74867 8.69167L6.77667 8.67833C6.89414 8.62669 7.02698 8.62219 7.14768 8.66577C7.26839 8.70935 7.36771 8.79767 7.4251 8.91245C7.48249 9.02723 7.49355 9.15968 7.456 9.28239C7.41844 9.4051 7.33514 9.50867 7.22333 9.57167L7.19667 9.58633C6.432 9.96833 5.57133 9.27767 5.77867 8.449L6.252 6.55833L6.224 6.57167C6.16503 6.60444 6.10003 6.62494 6.03292 6.63193C5.96581 6.63893 5.89798 6.63226 5.83352 6.61234C5.76905 6.59243 5.70929 6.55967 5.65782 6.51605C5.60635 6.47242 5.56424 6.41883 5.53403 6.3585C5.50382 6.29817 5.48614 6.23235 5.48204 6.165C5.47794 6.09766 5.48751 6.03018 5.51018 5.96663C5.53285 5.90308 5.56815 5.84478 5.61394 5.79523C5.65974 5.74569 5.71509 5.70592 5.77667 5.67833L5.804 5.66367ZM6.5 4.625C6.63261 4.625 6.75979 4.57232 6.85355 4.47855C6.94732 4.38479 7 4.25761 7 4.125C7 3.99239 6.94732 3.86521 6.85355 3.77145C6.75979 3.67768 6.63261 3.625 6.5 3.625C6.36739 3.625 6.24022 3.67768 6.14645 3.77145C6.05268 3.86521 6 3.99239 6 4.125C6 4.25761 6.05268 4.38479 6.14645 4.47855C6.24022 4.57232 6.36739 4.625 6.5 4.625Z" fill="#808080"/>
</svg>
