<svg width="29" height="34" viewBox="0 0 29 34" fill="none" xmlns="http://www.w3.org/2000/svg">
<g clip-path="url(#clip0_619_2455)">
<path d="M13.578 19.266L23.554 13.723C23.2771 12.727 22.6823 11.8487 21.8603 11.2218C21.0382 10.5948 20.0339 10.2536 19 10.25H5.00004C3.96605 10.2535 2.96153 10.5948 2.13943 11.222C1.31733 11.8491 0.722687 12.7277 0.446045 13.724L10.422 19.266C10.9043 19.5355 11.4476 19.677 12 19.677C12.5525 19.677 13.0958 19.5355 13.578 19.266Z" fill="#B1B1B1"/>
<path d="M23.75 15.3301V24.0001C23.748 24.5667 23.6465 25.1286 23.45 25.6601C23.2301 25.5288 22.995 25.4247 22.75 25.3501V25.0001C22.75 24.0055 22.3549 23.0517 21.6517 22.3484C20.9484 21.6452 19.9946 21.2501 19 21.2501C18.0054 21.2501 17.0516 21.6452 16.3484 22.3484C15.6451 23.0517 15.25 24.0055 15.25 25.0001V25.3501C14.6735 25.5137 14.1662 25.861 13.8052 26.3394C13.4442 26.8177 13.2492 27.4008 13.25 28.0001V28.7501H5C3.74055 28.749 2.53298 28.2482 1.64241 27.3577C0.751844 26.4671 0.251059 25.2595 0.25 24.0001V15.3301L9.69 20.5801C10.3963 20.9735 11.1915 21.18 12 21.18C12.8085 21.18 13.6037 20.9735 14.31 20.5801L23.75 15.3301Z" fill="#B1B1B1"/>
<path d="M22 26.25H16C15.0335 26.25 14.25 27.0335 14.25 28V32C14.25 32.9665 15.0335 33.75 16 33.75H22C22.9665 33.75 23.75 32.9665 23.75 32V28C23.75 27.0335 22.9665 26.25 22 26.25Z" fill="#B1B1B1"/>
<path d="M21 27.75H17C16.8011 27.75 16.6103 27.671 16.4697 27.5303C16.329 27.3897 16.25 27.1989 16.25 27V25C16.25 24.2707 16.5397 23.5712 17.0555 23.0555C17.5712 22.5397 18.2707 22.25 19 22.25C19.7293 22.25 20.4288 22.5397 20.9445 23.0555C21.4603 23.5712 21.75 24.2707 21.75 25V27C21.75 27.1989 21.671 27.3897 21.5303 27.5303C21.3897 27.671 21.1989 27.75 21 27.75ZM17.75 26.25H20.25V25C20.25 24.6685 20.1183 24.3505 19.8839 24.1161C19.6495 23.8817 19.3315 23.75 19 23.75C18.6685 23.75 18.3505 23.8817 18.1161 24.1161C17.8817 24.3505 17.75 24.6685 17.75 25V26.25Z" fill="#B1B1B1"/>
</g>
<g clip-path="url(#clip1_619_2455)">
<path d="M13.578 19.266L23.554 13.723C23.2771 12.727 22.6823 11.8487 21.8603 11.2218C21.0382 10.5948 20.0339 10.2536 19 10.25H5.00004C3.96605 10.2535 2.96153 10.5948 2.13943 11.222C1.31733 11.8491 0.722687 12.7277 0.446045 13.724L10.422 19.266C10.9043 19.5355 11.4476 19.677 12 19.677C12.5525 19.677 13.0958 19.5355 13.578 19.266Z" fill="#B1B1B1"/>
<path d="M23.75 15.3301V24.0001C23.748 24.5667 23.6465 25.1286 23.45 25.6601C23.2301 25.5288 22.995 25.4247 22.75 25.3501V25.0001C22.75 24.0055 22.3549 23.0517 21.6517 22.3484C20.9484 21.6452 19.9946 21.2501 19 21.2501C18.0054 21.2501 17.0516 21.6452 16.3484 22.3484C15.6451 23.0517 15.25 24.0055 15.25 25.0001V25.3501C14.6735 25.5137 14.1662 25.861 13.8052 26.3394C13.4442 26.8177 13.2492 27.4008 13.25 28.0001V28.7501H5C3.74055 28.749 2.53298 28.2482 1.64241 27.3577C0.751844 26.4671 0.251059 25.2595 0.25 24.0001V15.3301L9.69 20.5801C10.3963 20.9735 11.1915 21.18 12 21.18C12.8085 21.18 13.6037 20.9735 14.31 20.5801L23.75 15.3301Z" fill="#B1B1B1"/>
<path d="M22 26.25H16C15.0335 26.25 14.25 27.0335 14.25 28V32C14.25 32.9665 15.0335 33.75 16 33.75H22C22.9665 33.75 23.75 32.9665 23.75 32V28C23.75 27.0335 22.9665 26.25 22 26.25Z" fill="#B1B1B1"/>
<path d="M21 27.75H17C16.8011 27.75 16.6103 27.671 16.4697 27.5303C16.329 27.3897 16.25 27.1989 16.25 27V25C16.25 24.2707 16.5397 23.5712 17.0555 23.0555C17.5712 22.5397 18.2707 22.25 19 22.25C19.7293 22.25 20.4288 22.5397 20.9445 23.0555C21.4603 23.5712 21.75 24.2707 21.75 25V27C21.75 27.1989 21.671 27.3897 21.5303 27.5303C21.3897 27.671 21.1989 27.75 21 27.75ZM17.75 26.25H20.25V25C20.25 24.6685 20.1183 24.3505 19.8839 24.1161C19.6495 23.8817 19.3315 23.75 19 23.75C18.6685 23.75 18.3505 23.8817 18.1161 24.1161C17.8817 24.3505 17.75 24.6685 17.75 25V26.25Z" fill="#B1B1B1"/>
</g>
<path d="M24 0C23.0111 0 22.0444 0.293245 21.2222 0.842652C20.3999 1.39206 19.759 2.17295 19.3806 3.08658C19.0022 4.00021 18.9031 5.00555 19.0961 5.97545C19.289 6.94535 19.7652 7.83627 20.4645 8.53553C21.1637 9.23479 22.0546 9.711 23.0245 9.90392C23.9945 10.0968 24.9998 9.99783 25.9134 9.6194C26.827 9.24096 27.6079 8.60009 28.1573 7.77785C28.7068 6.9556 29 5.9889 29 5C28.9985 3.67437 28.4713 2.40346 27.5339 1.4661C26.5965 0.528736 25.3256 0.0014773 24 0ZM26.107 4.00605L23.6279 6.48837C23.5956 6.52083 23.5572 6.54658 23.5149 6.56416C23.4726 6.58173 23.4272 6.59078 23.3814 6.59078C23.3356 6.59078 23.2902 6.58173 23.2479 6.56416C23.2056 6.54658 23.1672 6.52083 23.1349 6.48837L21.893 5.24651C21.8314 5.18038 21.7979 5.09292 21.7995 5.00255C21.801 4.91217 21.8377 4.82595 21.9016 4.76204C21.9655 4.69812 22.0517 4.66151 22.1421 4.65992C22.2325 4.65832 22.3199 4.69187 22.386 4.75349L23.38 5.74697L25.6126 3.51442C25.6787 3.4528 25.7661 3.41925 25.8565 3.42085C25.9469 3.42244 26.0331 3.45905 26.097 3.52297C26.1609 3.58688 26.1976 3.6731 26.1992 3.76348C26.2007 3.85385 26.1672 3.94131 26.1056 4.00744L26.107 4.00605Z" fill="#2EBD85"/>
<defs>
<clipPath id="clip0_619_2455">
<rect width="24" height="24" fill="white" transform="translate(0 10)"/>
</clipPath>
<clipPath id="clip1_619_2455">
<rect width="24" height="24" fill="white" transform="translate(0 10)"/>
</clipPath>
</defs>
</svg>
