<svg width="24" height="24" viewBox="0 0 24 24" fill="none" xmlns="http://www.w3.org/2000/svg">
<g clip-path="url(#clip0_399_1771)">
<path d="M13.578 9.266L23.554 3.723C23.2771 2.72697 22.6823 1.84867 21.8603 1.22176C21.0382 0.594837 20.0339 0.253612 19 0.25H5.00004C3.96605 0.253509 2.96153 0.594815 2.13943 1.22195C1.31733 1.84909 0.722687 2.7277 0.446045 3.724L10.422 9.266C10.9043 9.53549 11.4476 9.67697 12 9.67697C12.5525 9.67697 13.0958 9.53549 13.578 9.266Z" fill="#B1B1B1"/>
<path d="M23.75 5.33008V14.0001C23.748 14.5667 23.6465 15.1286 23.45 15.6601C23.2301 15.5288 22.995 15.4247 22.75 15.3501V15.0001C22.75 14.0055 22.3549 13.0517 21.6517 12.3484C20.9484 11.6452 19.9946 11.2501 19 11.2501C18.0054 11.2501 17.0516 11.6452 16.3484 12.3484C15.6451 13.0517 15.25 14.0055 15.25 15.0001V15.3501C14.6735 15.5137 14.1662 15.861 13.8052 16.3394C13.4442 16.8177 13.2492 17.4008 13.25 18.0001V18.7501H5C3.74055 18.749 2.53298 18.2482 1.64241 17.3577C0.751844 16.4671 0.251059 15.2595 0.25 14.0001V5.33008L9.69 10.5801C10.3963 10.9735 11.1915 11.18 12 11.18C12.8085 11.18 13.6037 10.9735 14.31 10.5801L23.75 5.33008Z" fill="#B1B1B1"/>
<path d="M22 16.25H16C15.0335 16.25 14.25 17.0335 14.25 18V22C14.25 22.9665 15.0335 23.75 16 23.75H22C22.9665 23.75 23.75 22.9665 23.75 22V18C23.75 17.0335 22.9665 16.25 22 16.25Z" fill="#B1B1B1"/>
<path d="M21 17.75H17C16.8011 17.75 16.6103 17.671 16.4697 17.5303C16.329 17.3897 16.25 17.1989 16.25 17V15C16.25 14.2707 16.5397 13.5712 17.0555 13.0555C17.5712 12.5397 18.2707 12.25 19 12.25C19.7293 12.25 20.4288 12.5397 20.9445 13.0555C21.4603 13.5712 21.75 14.2707 21.75 15V17C21.75 17.1989 21.671 17.3897 21.5303 17.5303C21.3897 17.671 21.1989 17.75 21 17.75ZM17.75 16.25H20.25V15C20.25 14.6685 20.1183 14.3505 19.8839 14.1161C19.6495 13.8817 19.3315 13.75 19 13.75C18.6685 13.75 18.3505 13.8817 18.1161 14.1161C17.8817 14.3505 17.75 14.6685 17.75 15V16.25Z" fill="#B1B1B1"/>
</g>
<defs>
<clipPath id="clip0_399_1771">
<rect width="24" height="24" fill="white"/>
</clipPath>
</defs>
</svg>
