<svg width="24" height="26" viewBox="0 0 24 26" fill="none" xmlns="http://www.w3.org/2000/svg">
<path d="M12 0.936035C9.62663 0.936035 7.30655 1.6433 5.33316 2.96839C3.35977 4.29348 1.8217 6.17689 0.913451 8.38043C0.00519943 10.584 -0.232441 13.0087 0.230582 15.348C0.693605 17.6872 1.83649 19.836 3.51472 21.5225C5.19295 23.209 7.33115 24.3576 9.65892 24.8229C11.9867 25.2882 14.3995 25.0494 16.5922 24.1366C18.7849 23.2239 20.6591 21.6782 21.9776 19.6951C23.2962 17.712 24 15.3804 24 12.9953C23.9966 9.79806 22.7312 6.73274 20.4815 4.47194C18.2318 2.21113 15.1815 0.939493 12 0.936035V0.936035ZM12 20.0299C11.8022 20.0299 11.6089 19.971 11.4444 19.8605C11.28 19.7501 11.1518 19.5932 11.0761 19.4095C11.0004 19.2259 10.9806 19.0238 11.0192 18.8289C11.0578 18.634 11.153 18.4549 11.2929 18.3144C11.4328 18.1738 11.6109 18.0781 11.8049 18.0393C11.9989 18.0006 12.2 18.0205 12.3827 18.0965C12.5654 18.1726 12.7216 18.3014 12.8315 18.4666C12.9414 18.6319 13 18.8262 13 19.025C13 19.2915 12.8946 19.5471 12.7071 19.7356C12.5196 19.924 12.2652 20.0299 12 20.0299ZM13.527 13.6988C13.3632 13.7788 13.2261 13.9051 13.1326 14.0621C13.039 14.2192 12.9929 14.4002 13 14.5831V15.0052C13 15.2717 12.8946 15.5273 12.7071 15.7158C12.5196 15.9043 12.2652 16.0101 12 16.0101C11.7348 16.0101 11.4804 15.9043 11.2929 15.7158C11.1054 15.5273 11 15.2717 11 15.0052V14.5831C10.9897 14.0014 11.1519 13.4297 11.4661 12.9409C11.7802 12.4521 12.2321 12.0684 12.764 11.8386C13.1887 11.6619 13.5398 11.3437 13.7583 10.9374C13.9769 10.531 14.0495 10.0615 13.964 9.60767C13.887 9.21 13.6935 8.84451 13.4085 8.55803C13.1234 8.27156 12.7597 8.07717 12.364 7.99976C12.0751 7.94602 11.7779 7.95691 11.4936 8.03168C11.2093 8.10645 10.9449 8.24326 10.7192 8.43236C10.4936 8.62147 10.3121 8.85823 10.1878 9.1258C10.0635 9.39338 9.99936 9.6852 10 9.9805C10 10.247 9.89465 10.5026 9.70711 10.6911C9.51958 10.8796 9.26522 10.9854 9.00001 10.9854C8.73479 10.9854 8.48044 10.8796 8.2929 10.6911C8.10536 10.5026 8.00001 10.247 8.00001 9.9805C8.00054 9.25252 8.19778 8.53835 8.57067 7.91423C8.94357 7.29011 9.47811 6.77947 10.1173 6.43682C10.7564 6.09417 11.4761 5.93237 12.1996 5.9687C12.9231 6.00503 13.6232 6.23812 14.2252 6.64309C14.8272 7.04806 15.3084 7.60971 15.6175 8.26808C15.9266 8.92644 16.0521 9.65681 15.9804 10.3812C15.9087 11.1056 15.6426 11.7969 15.2105 12.3812C14.7784 12.9655 14.1965 13.4209 13.527 13.6988V13.6988Z" fill="#B1B1B1"/>
</svg>
