<svg width="122" height="124" viewBox="0 0 122 124" fill="none" xmlns="http://www.w3.org/2000/svg">
<path d="M27.3955 33.1628C30.856 28.5489 28.8374 23.5504 27.3955 21.6279H73.535C69.4978 26.8186 71.8529 31.4806 73.535 33.1628H27.3955Z" fill="#77A8FF"/>
<path d="M18.7441 54.7907C25.6651 50.1768 21.6279 45.1783 18.7441 43.2559H111.023C102.949 48.4466 107.659 53.1086 111.023 54.7907H18.7441Z" fill="#77A8FF"/>
<path d="M14.4185 86.5117C22.0964 78.4373 17.6176 69.69 14.4185 66.3257H116.791C107.833 75.4094 113.058 83.5679 116.791 86.5117H14.4185Z" fill="#77A8FF"/>
<rect x="20.186" y="11.5347" width="60.5581" height="11.5349" rx="5.76744" fill="#77A8FF"/>
<rect x="11.5347" y="31.7207" width="105.256" height="11.5349" rx="5.76744" fill="#77A8FF"/>
<rect x="7.20947" y="54.7905" width="113.907" height="11.5349" rx="5.76744" fill="#77A8FF"/>
<rect x="7.20947" y="86.5117" width="113.907" height="11.5349" rx="5.76744" fill="#77A8FF"/>
<path d="M93.0464 34.6047C93.0464 51.3733 80.6824 64.2093 66.3254 64.2093C51.9685 64.2093 39.6045 51.3733 39.6045 34.6047C39.6045 17.836 51.9685 5 66.3254 5C80.6824 5 93.0464 17.836 93.0464 34.6047Z" stroke="#2969DA" stroke-width="10"/>
<path d="M20.186 54.6045C20.186 43.5588 29.1403 34.6045 40.186 34.6045H92.4651C103.511 34.6045 112.465 43.5588 112.465 54.6045V110.349C112.465 113.11 110.227 115.349 107.465 115.349H25.186C22.4246 115.349 20.186 113.11 20.186 110.349V54.6045Z" fill="#003879"/>
<path d="M66.6844 89.0448C65.3479 89.0448 64.206 89.4827 63.2609 90.3562C62.3164 91.229 61.8414 92.286 61.8414 93.5321C61.8414 94.9363 62.3193 96.0382 63.2735 96.84C64.2306 97.6418 65.3451 98.0463 66.619 98.0463C67.9141 98.0463 69.044 97.6476 70.0109 96.8567C70.9771 96.0621 71.4599 94.9552 71.4599 93.5314C71.4599 92.2853 70.9982 91.2283 70.0742 90.3555C69.1501 89.4834 68.0216 89.0448 66.6823 89.0448M80.3363 58.1534C79.1066 56.228 77.3492 54.6883 75.1097 53.5726C72.8828 52.4671 70.2892 51.9067 67.3983 51.9067C64.2861 51.9067 61.5161 52.578 59.1691 53.9025C56.8193 55.2291 55.0035 56.9312 53.7724 58.961C52.5356 61.001 51.9067 63.0525 51.9067 65.0606C51.9067 66.1313 52.3396 67.131 53.1885 68.0299C54.0415 68.9346 55.1026 69.392 56.3421 69.392C58.4572 69.392 59.8985 68.1118 60.6321 65.6006C61.3003 63.5237 62.1246 61.9398 63.0775 60.8901C63.9741 59.9013 65.4287 59.3996 67.3983 59.3996C69.0974 59.3996 70.4382 59.8911 71.5021 60.9038C72.5498 61.9028 73.0599 63.0931 73.0599 64.543C73.0599 65.2751 72.8941 65.9327 72.5617 66.5546C72.2083 67.2071 71.7677 67.8066 71.2526 68.3401C70.708 68.9027 69.8093 69.7472 68.581 70.8578C67.1503 72.1518 65.9957 73.2849 65.1553 74.2258C64.277 75.2038 63.5651 76.3535 63.0332 77.6417C62.502 78.9386 62.2321 80.4863 62.2321 82.2443C62.2321 83.7442 62.6376 84.9055 63.4386 85.6964C64.2313 86.4793 65.2186 86.878 66.3745 86.878C68.5845 86.878 69.973 85.6319 70.3862 83.3005C70.5956 82.3313 70.7544 81.6542 70.8598 81.2693C70.9554 80.9191 71.0938 80.5595 71.2716 80.2007C71.4444 79.8513 71.7178 79.4555 72.0867 79.0227C72.4711 78.5653 72.9904 78.0288 73.627 77.4293C76.0084 75.2328 77.6886 73.6437 78.6203 72.7028C79.5816 71.7335 80.4199 70.5671 81.1121 69.2391C81.8246 67.8798 82.1858 66.2784 82.1858 64.4843C82.1872 62.2145 81.5625 60.0825 80.3328 58.1505" fill="#2969DA"/>
<circle cx="7.2093" cy="17.3026" r="7.2093" fill="#0C64FF"/>
<circle cx="12.256" cy="117.512" r="6.48837" fill="#0C64FF"/>
<path d="M18.7441 51.9071C20.0418 49.6001 19.2848 47.1009 18.7441 46.1396H36.0465C34.5325 48.735 35.4157 51.066 36.0465 51.9071H18.7441Z" fill="#D9E7FF" fill-opacity="0.38"/>
<path d="M118.232 109.581C116.935 107.274 117.692 104.775 118.232 103.814H100.93C102.444 106.409 101.561 108.74 100.93 109.581H118.232Z" fill="#D9E7FF" fill-opacity="0.38"/>
<rect x="20.186" y="41.814" width="20.186" height="4.32558" rx="2.16279" fill="#D9E7FF" fill-opacity="0.38"/>
<rect width="20.186" height="4.32558" rx="2.16279" transform="matrix(-1 0 0 1 116.791 99.4883)" fill="#D9E7FF" fill-opacity="0.38"/>
<rect x="17.3022" y="51.9067" width="31.7209" height="5.76744" rx="2.88372" fill="#D9E7FF" fill-opacity="0.38"/>
<rect width="31.7209" height="5.76744" rx="2.88372" transform="matrix(-1 0 0 1 119.674 109.582)" fill="#D9E7FF" fill-opacity="0.38"/>
</svg>
