<svg width="16" height="18" viewBox="0 0 16 18" fill="none" xmlns="http://www.w3.org/2000/svg">
<path d="M8 0.998535C3.58866 0.998535 0 4.60492 0 9.03806C0 13.4712 3.58866 17.0776 8 17.0776C12.4113 17.0776 16 13.4712 16 9.03806C16 4.60492 12.4113 0.998535 8 0.998535ZM10.4713 9.51173L7.138 12.8615C7.008 12.9922 6.83734 13.0578 6.66666 13.0578C6.496 13.0578 6.32531 12.9922 6.19531 12.8615C5.93466 12.5996 5.93466 12.1761 6.19531 11.9142L9.05734 9.03806L6.19534 6.16192C5.93469 5.89997 5.93469 5.47655 6.19534 5.2146C6.456 4.95266 6.87734 4.95266 7.138 5.2146L10.4713 8.56442C10.732 8.82636 10.732 9.24975 10.4713 9.51173Z" fill="#B1B1B1"/>
</svg>
