<svg width="30" height="31" viewBox="0 0 30 31" fill="none" xmlns="http://www.w3.org/2000/svg">
    <defs>
        <radialGradient id="paint0_radial_619_2454" cx="0" cy="0" r="1" gradientUnits="userSpaceOnUse" gradientTransform="translate(3.51922 10.4919) scale(23.9595)">
            <stop stop-color="white" stop-opacity="0.1"/>
            <stop offset="1" stop-color="white" stop-opacity="0"/>
        </radialGradient>
        <clipPath id="clip0_619_2454">
            <rect width="24" height="24" fill="white" transform="translate(0 7)"/>
        </clipPath>
    </defs>
<g clip-path="url(#clip0_619_2454)">
<path d="M12.0005 31.001C18.6282 31.001 24.001 25.6282 24.001 19.0005C24.001 12.3728 18.6282 7 12.0005 7C5.3728 7 0 12.3728 0 19.0005C0 25.6282 5.3728 31.001 12.0005 31.001Z" fill="#616161"/>
<path d="M12.0005 26.6369C7.78243 26.6369 4.36408 23.2185 4.36408 19.0005C4.36408 14.7824 7.78243 11.3641 12.0005 11.3641C14.1085 11.3641 16.0174 12.2189 17.4002 13.6007L20.4859 10.515C18.314 8.34316 15.3134 7 12.0005 7C5.37266 7 0 12.3727 0 19.0005C0 25.6283 5.37266 31.001 12.0005 31.001C15.3144 31.001 18.314 29.6578 20.4869 27.4869L17.4012 24.4012C16.0174 25.7821 14.1085 26.6369 12.0005 26.6369Z" fill="#9E9E9E"/>
<path d="M19.6369 19.0003H15.8182C15.8182 16.8923 14.1085 15.1816 11.9995 15.1816C9.89045 15.1816 8.18176 16.8913 8.18176 19.0003C8.18176 20.0273 8.5879 20.9585 9.24837 21.646L9.24546 21.6489L13.9731 26.3766L13.9741 26.3776C17.2348 25.5073 19.6369 22.5347 19.6369 19.0003Z" fill="#424242"/>
<path d="M24 19.0005H19.6359C19.6359 22.5349 17.2329 25.5074 13.9741 26.3777L17.3441 29.7477C21.2895 27.7818 24 23.7078 24 19.0005Z" fill="#616161"/>
<path d="M12.0005 30.8635C5.39587 30.8635 0.0386801 25.5276 0.000967005 18.9316C0.000967005 18.9548 0 18.9771 0 19.0003C0 25.6281 5.37266 31.0008 12.0005 31.0008C18.6283 31.0008 24.001 25.6281 24.001 19.0003C24.001 18.9771 24 18.9548 24 18.9316C23.9623 25.5276 18.6041 30.8635 12.0005 30.8635Z" fill="#212121" fill-opacity="0.1"/>
<path d="M13.9751 26.3777L14.0815 26.4841C17.2861 25.579 19.6369 22.6335 19.6369 19.1368V19.0005C19.6369 22.5349 17.2339 25.5074 13.9751 26.3777Z" fill="white" fill-opacity="0.05"/>
<path d="M21.819 17.9092H12.0001C11.3976 17.9092 10.9093 18.3975 10.9093 19C10.9093 19.6024 11.3976 20.0907 12.0001 20.0907H21.818C22.4205 20.0907 22.9088 19.6024 22.9088 19C22.9098 18.3975 22.4214 17.9092 21.819 17.9092Z" fill="#9E9E9E"/>
<path opacity="0.5" d="M21.819 17.9092H12.0001C11.3976 17.9092 10.9093 18.3975 10.9093 19C10.9093 19.6024 11.3976 20.0907 12.0001 20.0907H21.818C22.4205 20.0907 22.9088 19.6024 22.9088 19C22.9098 18.3975 22.4214 17.9092 21.819 17.9092Z" fill="#BDBDBD"/>
<path d="M2.18161 19.8183C2.63342 19.8183 2.99969 19.452 2.99969 19.0002C2.99969 18.5484 2.63342 18.1821 2.18161 18.1821C1.72979 18.1821 1.36353 18.5484 1.36353 19.0002C1.36353 19.452 1.72979 19.8183 2.18161 19.8183Z" fill="#BDBDBD"/>
<path d="M12.0006 9.99945C12.4524 9.99945 12.8187 9.63318 12.8187 9.18136C12.8187 8.72955 12.4524 8.36328 12.0006 8.36328C11.5488 8.36328 11.1825 8.72955 11.1825 9.18136C11.1825 9.63318 11.5488 9.99945 12.0006 9.99945Z" fill="#BDBDBD"/>
<path d="M12.0006 29.6362C12.4524 29.6362 12.8187 29.2699 12.8187 28.8181C12.8187 28.3663 12.4524 28 12.0006 28C11.5488 28 11.1825 28.3663 11.1825 28.8181C11.1825 29.2699 11.5488 29.6362 12.0006 29.6362Z" fill="#BDBDBD"/>
<path d="M5.04587 12.8754C5.49768 12.8754 5.86395 12.5092 5.86395 12.0573C5.86395 11.6055 5.49768 11.2393 5.04587 11.2393C4.59405 11.2393 4.22778 11.6055 4.22778 12.0573C4.22778 12.5092 4.59405 12.8754 5.04587 12.8754Z" fill="#BDBDBD"/>
<path d="M5.04587 26.7729C5.49768 26.7729 5.86395 26.4066 5.86395 25.9548C5.86395 25.503 5.49768 25.1367 5.04587 25.1367C4.59405 25.1367 4.22778 25.503 4.22778 25.9548C4.22778 26.4066 4.59405 26.7729 5.04587 26.7729Z" fill="#BDBDBD"/>
<path d="M18.9552 26.7734C19.407 26.7734 19.7733 26.4071 19.7733 25.9553C19.7733 25.5035 19.407 25.1372 18.9552 25.1372C18.5034 25.1372 18.1371 25.5035 18.1371 25.9553C18.1371 26.4071 18.5034 26.7734 18.9552 26.7734Z" fill="#757575"/>
<path d="M12.0004 18.046H21.8184C22.3976 18.046 22.8715 18.4986 22.9053 19.0691C22.9063 19.0459 22.9092 19.0237 22.9092 19.0004C22.9092 18.398 22.4209 17.9097 21.8184 17.9097H12.0004C11.398 17.9097 10.9097 18.398 10.9097 19.0004C10.9097 19.0237 10.9106 19.0459 10.9135 19.0691C10.9474 18.4986 11.4202 18.046 12.0004 18.046Z" fill="white" fill-opacity="0.2"/>
<path d="M22.9053 19.0684C22.8695 19.6379 22.3967 20.0914 21.8184 20.0914H12.0004C11.4212 20.0914 10.9474 19.6389 10.9135 19.0684C10.9106 19.0916 10.9097 19.1138 10.9097 19.136C10.9097 19.7385 11.398 20.2268 12.0004 20.2268H21.8184C22.4209 20.2268 22.9092 19.7385 22.9092 19.136C22.9092 19.1138 22.9082 19.0916 22.9053 19.0684Z" fill="#212121" fill-opacity="0.2"/>
<path d="M12.0005 11.5005C14.1086 11.5005 16.0175 12.3553 17.4003 13.7372L20.5527 10.5828C20.5295 10.5596 20.5073 10.5364 20.485 10.5142L17.4003 13.5999C16.0175 12.218 14.1086 11.3632 12.0005 11.3632C7.78249 11.3632 4.36414 14.7815 4.36414 18.9996C4.36414 19.0228 4.3651 19.045 4.3651 19.0683C4.40185 14.8821 7.80569 11.5005 12.0005 11.5005Z" fill="#212121" fill-opacity="0.1"/>
<path d="M12.0005 31.001C18.6282 31.001 24.001 25.6282 24.001 19.0005C24.001 12.3728 18.6282 7 12.0005 7C5.3728 7 0 12.3728 0 19.0005C0 25.6282 5.3728 31.001 12.0005 31.001Z" fill="url(#paint0_radial_619_2454)"/>
</g>
<path d="M25 3.05881e-07C24.3433 -0.000229421 23.693 0.128943 23.0863 0.380135C22.4796 0.631327 21.9283 0.999615 21.464 1.46395C20.9996 1.92829 20.6313 2.47958 20.3801 3.08631C20.1289 3.69304 19.9998 4.34333 20 5C19.9998 5.65667 20.1289 6.30696 20.3801 6.91369C20.6313 7.52042 20.9996 8.07171 21.464 8.53605C21.9283 9.00039 22.4796 9.36867 23.0863 9.61987C23.693 9.87106 24.3433 10.0002 25 10C25.6567 10.0002 26.307 9.87106 26.9137 9.61987C27.5204 9.36867 28.0717 9.00039 28.536 8.53605C29.0004 8.07171 29.3687 7.52042 29.6199 6.91369C29.8711 6.30696 30.0002 5.65667 30 5C30.0002 4.34333 29.8711 3.69304 29.6199 3.08631C29.3687 2.47958 29.0004 1.92829 28.536 1.46395C28.0717 0.999615 27.5204 0.631327 26.9137 0.380135C26.307 0.128943 25.6567 -0.000229421 25 3.05881e-07V3.05881e-07ZM25 8.6014C24.8505 8.60174 24.7042 8.5577 24.5798 8.47485C24.4553 8.39199 24.3582 8.27406 24.3008 8.13598C24.2435 7.99791 24.2284 7.84591 24.2574 7.69924C24.2865 7.55258 24.3585 7.41785 24.4642 7.31212C24.5699 7.20639 24.7047 7.13442 24.8513 7.10534C24.998 7.07625 25.15 7.09136 25.2881 7.14874C25.4262 7.20612 25.5441 7.30319 25.6269 7.42765C25.7098 7.55212 25.7538 7.69838 25.7535 7.8479C25.753 8.0476 25.6735 8.23899 25.5323 8.3802C25.3911 8.5214 25.1997 8.60094 25 8.6014V8.6014ZM25.9143 2.37762L25.6294 6.22378C25.6276 6.25037 25.6158 6.27528 25.5963 6.29347C25.5768 6.31165 25.5511 6.32174 25.5245 6.32168H24.4755C24.4489 6.32174 24.4232 6.31165 24.4037 6.29347C24.3842 6.27528 24.3724 6.25037 24.3706 6.22378L24.0857 2.37762C24.0779 2.25279 24.0959 2.12771 24.1383 2.01007C24.1808 1.89243 24.2469 1.78473 24.3325 1.6936C24.4182 1.60248 24.5216 1.52986 24.6364 1.48022C24.7512 1.43058 24.8749 1.40497 25 1.40497C25.1251 1.40497 25.2488 1.43058 25.3636 1.48022C25.4784 1.52986 25.5818 1.60248 25.6675 1.6936C25.7531 1.78473 25.8192 1.89243 25.8617 2.01007C25.9041 2.12771 25.9221 2.25279 25.9143 2.37762V2.37762Z" fill="#FFC048"/>
</svg>
