<svg width="24" height="24" viewBox="0 0 24 24" fill="none" xmlns="http://www.w3.org/2000/svg">
<g clip-path="url(#clip0_619_2422)">
<path d="M12.0005 24.001C18.6282 24.001 24.001 18.6282 24.001 12.0005C24.001 5.3728 18.6282 0 12.0005 0C5.3728 0 0 5.3728 0 12.0005C0 18.6282 5.3728 24.001 12.0005 24.001Z" fill="#616161"/>
<path d="M12.0005 19.6369C7.78243 19.6369 4.36408 16.2185 4.36408 12.0005C4.36408 7.78243 7.78243 4.36408 12.0005 4.36408C14.1085 4.36408 16.0174 5.21891 17.4002 6.60075L20.4859 3.51505C18.314 1.34316 15.3134 0 12.0005 0C5.37266 0 0 5.37266 0 12.0005C0 18.6283 5.37266 24.001 12.0005 24.001C15.3144 24.001 18.314 22.6578 20.4869 20.4869L17.4012 17.4012C16.0174 18.7821 14.1085 19.6369 12.0005 19.6369Z" fill="#9E9E9E"/>
<path d="M19.6369 12.0003H15.8182C15.8182 9.89227 14.1085 8.18164 11.9995 8.18164C9.89045 8.18164 8.18176 9.8913 8.18176 12.0003C8.18176 13.0273 8.5879 13.9585 9.24837 14.646L9.24546 14.6489L13.9731 19.3766L13.9741 19.3776C17.2348 18.5073 19.6369 15.5347 19.6369 12.0003Z" fill="#424242"/>
<path d="M24 12.0005H19.6359C19.6359 15.5349 17.2329 18.5074 13.9741 19.3777L17.3441 22.7477C21.2895 20.7818 24 16.7078 24 12.0005Z" fill="#616161"/>
<path d="M12.0005 23.8635C5.39587 23.8635 0.0386801 18.5276 0.000967005 11.9316C0.000967005 11.9548 0 11.9771 0 12.0003C0 18.6281 5.37266 24.0008 12.0005 24.0008C18.6283 24.0008 24.001 18.6281 24.001 12.0003C24.001 11.9771 24 11.9548 24 11.9316C23.9623 18.5276 18.6041 23.8635 12.0005 23.8635Z" fill="#212121" fill-opacity="0.1"/>
<path d="M13.9751 19.3777L14.0815 19.4841C17.2861 18.579 19.6369 15.6335 19.6369 12.1368V12.0005C19.6369 15.5349 17.2339 18.5074 13.9751 19.3777Z" fill="white" fill-opacity="0.05"/>
<path d="M21.819 10.9092H12.0001C11.3976 10.9092 10.9093 11.3975 10.9093 12C10.9093 12.6024 11.3976 13.0907 12.0001 13.0907H21.818C22.4205 13.0907 22.9088 12.6024 22.9088 12C22.9098 11.3975 22.4214 10.9092 21.819 10.9092Z" fill="#9E9E9E"/>
<path opacity="0.5" d="M21.819 10.9092H12.0001C11.3976 10.9092 10.9093 11.3975 10.9093 12C10.9093 12.6024 11.3976 13.0907 12.0001 13.0907H21.818C22.4205 13.0907 22.9088 12.6024 22.9088 12C22.9098 11.3975 22.4214 10.9092 21.819 10.9092Z" fill="#BDBDBD"/>
<path d="M2.18161 12.8183C2.63342 12.8183 2.99969 12.452 2.99969 12.0002C2.99969 11.5484 2.63342 11.1821 2.18161 11.1821C1.72979 11.1821 1.36353 11.5484 1.36353 12.0002C1.36353 12.452 1.72979 12.8183 2.18161 12.8183Z" fill="#BDBDBD"/>
<path d="M12.0006 2.99945C12.4524 2.99945 12.8187 2.63318 12.8187 2.18136C12.8187 1.72955 12.4524 1.36328 12.0006 1.36328C11.5488 1.36328 11.1825 1.72955 11.1825 2.18136C11.1825 2.63318 11.5488 2.99945 12.0006 2.99945Z" fill="#BDBDBD"/>
<path d="M12.0006 22.6362C12.4524 22.6362 12.8187 22.2699 12.8187 21.8181C12.8187 21.3663 12.4524 21 12.0006 21C11.5488 21 11.1825 21.3663 11.1825 21.8181C11.1825 22.2699 11.5488 22.6362 12.0006 22.6362Z" fill="#BDBDBD"/>
<path d="M5.04587 5.87542C5.49768 5.87542 5.86395 5.50916 5.86395 5.05734C5.86395 4.60553 5.49768 4.23926 5.04587 4.23926C4.59405 4.23926 4.22778 4.60553 4.22778 5.05734C4.22778 5.50916 4.59405 5.87542 5.04587 5.87542Z" fill="#BDBDBD"/>
<path d="M5.04587 19.7729C5.49768 19.7729 5.86395 19.4066 5.86395 18.9548C5.86395 18.503 5.49768 18.1367 5.04587 18.1367C4.59405 18.1367 4.22778 18.503 4.22778 18.9548C4.22778 19.4066 4.59405 19.7729 5.04587 19.7729Z" fill="#BDBDBD"/>
<path d="M18.9552 19.7729C19.407 19.7729 19.7733 19.4066 19.7733 18.9548C19.7733 18.503 19.407 18.1367 18.9552 18.1367C18.5034 18.1367 18.1371 18.503 18.1371 18.9548C18.1371 19.4066 18.5034 19.7729 18.9552 19.7729Z" fill="#757575"/>
<path d="M12.0006 11.046H21.8185C22.3978 11.046 22.8716 11.4986 22.9054 12.0691C22.9064 12.0459 22.9093 12.0237 22.9093 12.0004C22.9093 11.398 22.421 10.9097 21.8185 10.9097H12.0006C11.3981 10.9097 10.9098 11.398 10.9098 12.0004C10.9098 12.0237 10.9108 12.0459 10.9137 12.0691C10.9475 11.4986 11.4204 11.046 12.0006 11.046Z" fill="white" fill-opacity="0.2"/>
<path d="M22.9054 12.0679C22.8697 12.6374 22.3968 13.091 21.8185 13.091H12.0006C11.4213 13.091 10.9475 12.6384 10.9137 12.0679C10.9108 12.0911 10.9098 12.1133 10.9098 12.1356C10.9098 12.738 11.3981 13.2263 12.0006 13.2263H21.8185C22.421 13.2263 22.9093 12.738 22.9093 12.1356C22.9093 12.1133 22.9083 12.0911 22.9054 12.0679Z" fill="#212121" fill-opacity="0.2"/>
<path d="M12.0005 4.50001C14.1086 4.50001 16.0175 5.35484 17.4003 6.73669L20.5527 3.58233C20.5295 3.55912 20.5073 3.53591 20.485 3.51367L17.4003 6.59937C16.0175 5.21753 14.1086 4.3627 12.0005 4.3627C7.78249 4.3627 4.36414 7.78105 4.36414 11.9991C4.36414 12.0223 4.3651 12.0446 4.3651 12.0678C4.40185 7.88162 7.80569 4.50001 12.0005 4.50001Z" fill="#212121" fill-opacity="0.1"/>
</g>
<defs>
<clipPath id="clip0_619_2422">
<rect width="24" height="24" fill="white"/>
</clipPath>
</defs>
</svg>
