<svg width="24" height="24" viewBox="0 0 24 24" fill="none" xmlns="http://www.w3.org/2000/svg">
    <defs>
        <radialGradient id="paint0_radial_399_1704" cx="0" cy="0" r="1" gradientUnits="userSpaceOnUse" gradientTransform="translate(3.51922 3.49189) scale(23.9595)">
            <stop stop-color="white" stop-opacity="0.1"/>
            <stop offset="1" stop-color="white" stop-opacity="0"/>
        </radialGradient>
        <clipPath id="clip0_399_1704">
            <rect width="24" height="24" fill="white"/>
        </clipPath>
    </defs>
<g clip-path="url(#clip0_399_1704)">
<path d="M12.0005 24.001C18.6282 24.001 24.001 18.6282 24.001 12.0005C24.001 5.3728 18.6282 0 12.0005 0C5.3728 0 0 5.3728 0 12.0005C0 18.6282 5.3728 24.001 12.0005 24.001Z" fill="#616161"/>
<path d="M12.0005 19.6369C7.78243 19.6369 4.36408 16.2185 4.36408 12.0005C4.36408 7.78243 7.78243 4.36408 12.0005 4.36408C14.1085 4.36408 16.0174 5.2189 17.4002 6.60075L20.4859 3.51505C18.314 1.34316 15.3134 0 12.0005 0C5.37266 0 0 5.37266 0 12.0005C0 18.6283 5.37266 24.001 12.0005 24.001C15.3144 24.001 18.314 22.6578 20.4869 20.4869L17.4012 17.4012C16.0174 18.7821 14.1085 19.6369 12.0005 19.6369Z" fill="#9E9E9E"/>
<path d="M19.6369 12.0003H15.8182C15.8182 9.89227 14.1085 8.18164 11.9995 8.18164C9.89045 8.18164 8.18176 9.8913 8.18176 12.0003C8.18176 13.0273 8.5879 13.9585 9.24837 14.646L9.24546 14.6489L13.9731 19.3766L13.9741 19.3776C17.2348 18.5073 19.6369 15.5347 19.6369 12.0003Z" fill="#424242"/>
<path d="M24 12.0005H19.6359C19.6359 15.5349 17.2329 18.5074 13.9741 19.3777L17.3441 22.7477C21.2895 20.7818 24 16.7078 24 12.0005Z" fill="#616161"/>
<path d="M12.0005 23.8635C5.39587 23.8635 0.0386801 18.5276 0.000967005 11.9316C0.000967005 11.9548 0 11.9771 0 12.0003C0 18.6281 5.37266 24.0008 12.0005 24.0008C18.6283 24.0008 24.001 18.6281 24.001 12.0003C24.001 11.9771 24 11.9548 24 11.9316C23.9623 18.5276 18.6041 23.8635 12.0005 23.8635Z" fill="#212121" fill-opacity="0.1"/>
<path d="M13.9751 19.3777L14.0815 19.4841C17.2861 18.579 19.6369 15.6335 19.6369 12.1368V12.0005C19.6369 15.5349 17.2339 18.5074 13.9751 19.3777Z" fill="white" fill-opacity="0.05"/>
<path d="M21.819 10.9092H12.0001C11.3976 10.9092 10.9093 11.3975 10.9093 12C10.9093 12.6024 11.3976 13.0907 12.0001 13.0907H21.818C22.4205 13.0907 22.9088 12.6024 22.9088 12C22.9098 11.3975 22.4214 10.9092 21.819 10.9092Z" fill="#9E9E9E"/>
<path opacity="0.5" d="M21.819 10.9092H12.0001C11.3976 10.9092 10.9093 11.3975 10.9093 12C10.9093 12.6024 11.3976 13.0907 12.0001 13.0907H21.818C22.4205 13.0907 22.9088 12.6024 22.9088 12C22.9098 11.3975 22.4214 10.9092 21.819 10.9092Z" fill="#BDBDBD"/>
<path d="M2.18161 12.8183C2.63342 12.8183 2.99969 12.452 2.99969 12.0002C2.99969 11.5484 2.63342 11.1821 2.18161 11.1821C1.72979 11.1821 1.36353 11.5484 1.36353 12.0002C1.36353 12.452 1.72979 12.8183 2.18161 12.8183Z" fill="#BDBDBD"/>
<path d="M12.0006 2.99945C12.4524 2.99945 12.8187 2.63318 12.8187 2.18136C12.8187 1.72955 12.4524 1.36328 12.0006 1.36328C11.5488 1.36328 11.1825 1.72955 11.1825 2.18136C11.1825 2.63318 11.5488 2.99945 12.0006 2.99945Z" fill="#BDBDBD"/>
<path d="M12.0006 22.6362C12.4524 22.6362 12.8187 22.2699 12.8187 21.8181C12.8187 21.3663 12.4524 21 12.0006 21C11.5488 21 11.1825 21.3663 11.1825 21.8181C11.1825 22.2699 11.5488 22.6362 12.0006 22.6362Z" fill="#BDBDBD"/>
<path d="M5.04587 5.87542C5.49768 5.87542 5.86395 5.50916 5.86395 5.05734C5.86395 4.60553 5.49768 4.23926 5.04587 4.23926C4.59405 4.23926 4.22778 4.60553 4.22778 5.05734C4.22778 5.50916 4.59405 5.87542 5.04587 5.87542Z" fill="#BDBDBD"/>
<path d="M5.04587 19.7729C5.49768 19.7729 5.86395 19.4066 5.86395 18.9548C5.86395 18.503 5.49768 18.1367 5.04587 18.1367C4.59405 18.1367 4.22778 18.503 4.22778 18.9548C4.22778 19.4066 4.59405 19.7729 5.04587 19.7729Z" fill="#BDBDBD"/>
<path d="M18.9552 19.7734C19.407 19.7734 19.7733 19.4071 19.7733 18.9553C19.7733 18.5035 19.407 18.1372 18.9552 18.1372C18.5034 18.1372 18.1371 18.5035 18.1371 18.9553C18.1371 19.4071 18.5034 19.7734 18.9552 19.7734Z" fill="#757575"/>
<path d="M12.0004 11.046H21.8184C22.3976 11.046 22.8715 11.4986 22.9053 12.0691C22.9063 12.0459 22.9092 12.0237 22.9092 12.0004C22.9092 11.398 22.4209 10.9097 21.8184 10.9097H12.0004C11.398 10.9097 10.9097 11.398 10.9097 12.0004C10.9097 12.0237 10.9106 12.0459 10.9135 12.0691C10.9474 11.4986 11.4202 11.046 12.0004 11.046Z" fill="white" fill-opacity="0.2"/>
<path d="M22.9053 12.0684C22.8695 12.6379 22.3967 13.0914 21.8184 13.0914H12.0004C11.4212 13.0914 10.9474 12.6389 10.9135 12.0684C10.9106 12.0916 10.9097 12.1138 10.9097 12.136C10.9097 12.7385 11.398 13.2268 12.0004 13.2268H21.8184C22.4209 13.2268 22.9092 12.7385 22.9092 12.136C22.9092 12.1138 22.9082 12.0916 22.9053 12.0684Z" fill="#212121" fill-opacity="0.2"/>
<path d="M12.0005 4.5005C14.1086 4.5005 16.0175 5.35533 17.4003 6.73717L20.5527 3.58282C20.5295 3.55961 20.5073 3.5364 20.485 3.51416L17.4003 6.59986C16.0175 5.21802 14.1086 4.36319 12.0005 4.36319C7.78249 4.36319 4.36414 7.78154 4.36414 11.9996C4.36414 12.0228 4.3651 12.045 4.3651 12.0683C4.40185 7.8821 7.80569 4.5005 12.0005 4.5005Z" fill="#212121" fill-opacity="0.1"/>
<path d="M12.0005 24.001C18.6282 24.001 24.001 18.6282 24.001 12.0005C24.001 5.3728 18.6282 0 12.0005 0C5.3728 0 0 5.3728 0 12.0005C0 18.6282 5.3728 24.001 12.0005 24.001Z" fill="url(#paint0_radial_399_1704)"/>
</g>
</svg>
