<svg width="17" height="18" viewBox="0 0 17 18" fill="none" xmlns="http://www.w3.org/2000/svg">
    <defs>
        <linearGradient id="paint0_linear_357_1654" x1="7.24428" y1="6.62767" x2="9.989" y2="9.35889" gradientUnits="userSpaceOnUse">
            <stop stop-color="#EFFFF4"/>
            <stop offset="1" stop-color="#D1FFEC"/>
        </linearGradient>
    </defs>
<path d="M8.50018 0C3.80582 0 0 3.82013 0 8.53213C0 13.2441 3.80582 17.0643 8.50018 17.0643C13.1945 17.0643 17.0004 13.2441 17.0004 8.53213C17.0004 3.82013 13.1945 0 8.50018 0Z" fill="#0FC600"/>
<path d="M7.40988 11.6179C7.19772 11.6179 6.99427 11.5331 6.84427 11.3823L5.24424 9.77441C5.16783 9.70024 5.10688 9.61153 5.06495 9.51344C5.02302 9.41535 5.00095 9.30986 5.00003 9.20311C4.99911 9.09635 5.01935 8.99049 5.05957 8.89168C5.0998 8.79288 5.1592 8.70311 5.23432 8.62763C5.30944 8.55214 5.39876 8.49244 5.49708 8.45202C5.5954 8.41159 5.70074 8.39125 5.80697 8.39218C5.91319 8.39311 6.01817 8.41529 6.11578 8.45742C6.21338 8.49956 6.30166 8.56081 6.37546 8.63759L7.40988 9.67713L10.8444 6.22568C10.9952 6.07923 11.1973 5.9982 11.4071 6.00003C11.6169 6.00186 11.8175 6.08641 11.9658 6.23548C12.1142 6.38454 12.1983 6.58619 12.2001 6.79698C12.2019 7.00778 12.1213 7.21087 11.9756 7.3625L7.97549 11.3823C7.8255 11.5331 7.62204 11.6179 7.40988 11.6179Z" fill="url(#paint0_linear_357_1654)"/>
</svg>
