<svg width="32" height="32" viewBox="0 0 32 32" fill="none" xmlns="http://www.w3.org/2000/svg">
<circle cx="16" cy="16" r="16" fill="#2969DA"/>
<path d="M23.7752 10.6702L20.2598 7.15448C20.1609 7.05555 20.0267 7 19.8869 7H11.8008C10.9284 7 10.2188 7.7097 10.2188 8.58203V15.5373C7.84901 15.8005 6 17.8152 6 20.2539C6 22.8709 8.1291 25 10.7461 25H22.3477C23.22 25 23.9297 24.2903 23.9297 23.418V11.0431C23.9297 10.9032 23.8741 10.7691 23.7752 10.6702V10.6702ZM20.4141 8.80046L22.1292 10.5156H20.4141V8.80046ZM7.05469 20.2539C7.05469 18.2185 8.71065 16.5625 10.7461 16.5625C12.7815 16.5625 14.4375 18.2185 14.4375 20.2539C14.4375 22.2893 12.7815 23.9453 10.7461 23.9453C8.71065 23.9453 7.05469 22.2893 7.05469 20.2539ZM22.3477 23.9453H13.7256C14.6735 23.1787 15.3213 22.0553 15.4628 20.7812H20.9414C21.2326 20.7812 21.4688 20.5451 21.4688 20.2539C21.4688 19.9627 21.2326 19.7266 20.9414 19.7266H15.4627C15.3767 18.9524 15.104 18.2339 14.6904 17.6172H20.9414C21.2326 17.6172 21.4688 17.3811 21.4688 17.0898C21.4688 16.7986 21.2326 16.5625 20.9414 16.5625H13.7256C13.0393 16.0075 12.1959 15.6397 11.2734 15.5373V8.58203C11.2734 8.29125 11.51 8.05469 11.8008 8.05469H19.3594V11.043C19.3594 11.3342 19.5955 11.5703 19.8867 11.5703H22.875V23.418C22.875 23.7087 22.6384 23.9453 22.3477 23.9453V23.9453Z" fill="white"/>
<path d="M20.9414 13.3984H13.207C12.9158 13.3984 12.6797 13.6345 12.6797 13.9258C12.6797 14.217 12.9158 14.4531 13.207 14.4531H20.9414C21.2326 14.4531 21.4688 14.217 21.4688 13.9258C21.4688 13.6345 21.2326 13.3984 20.9414 13.3984Z" fill="white"/>
<path d="M12.1523 20.7812C12.4436 20.7812 12.6797 20.5451 12.6797 20.2539C12.6797 19.9627 12.4436 19.7266 12.1523 19.7266H11.2734V18.1445C11.2734 17.8533 11.0373 17.6172 10.7461 17.6172C10.4549 17.6172 10.2188 17.8533 10.2188 18.1445V20.2539C10.2188 20.5451 10.4549 20.7812 10.7461 20.7812H12.1523Z" fill="white"/>
</svg>
