<svg width="32" height="32" viewBox="0 0 32 32" fill="none" xmlns="http://www.w3.org/2000/svg">
<circle cx="16" cy="16" r="16" fill="#2969DA"/>
<path d="M23.2791 22.4574H18.938C18.7653 22.4574 18.5997 22.3888 18.4776 22.2667C18.3555 22.1446 18.2869 21.9789 18.2869 21.8062C18.2869 21.6335 18.3555 21.4679 18.4776 21.3458C18.5997 21.2237 18.7653 21.1551 18.938 21.1551H23.2791C23.5668 21.1546 23.8426 21.0401 24.046 20.8367C24.2494 20.6333 24.3639 20.3575 24.3644 20.0698V11.3876C24.3639 11.0999 24.2494 10.8241 24.046 10.6207C23.8426 10.4173 23.5668 10.3028 23.2791 10.3023H9.3876C9.09991 10.3028 8.82413 10.4173 8.62071 10.6207C8.41728 10.8241 8.30279 11.0999 8.30233 11.3876V20.0698C8.30279 20.3575 8.41728 20.6333 8.62071 20.8367C8.82413 21.0401 9.09991 21.1546 9.3876 21.1551H16.3334C16.5061 21.1551 16.6717 21.2237 16.7938 21.3458C16.9159 21.4679 16.9845 21.6335 16.9845 21.8062C16.9845 21.9789 16.9159 22.1446 16.7938 22.2667C16.6717 22.3888 16.5061 22.4574 16.3334 22.4574H9.3876C8.75451 22.4569 8.14748 22.2052 7.69982 21.7576C7.25216 21.3099 7.00046 20.7029 7 20.0698V11.3876C7.00046 10.7545 7.25216 10.1475 7.69982 9.69982C8.14748 9.25216 8.75451 9.00046 9.3876 9H23.2791C23.9122 9.00046 24.5192 9.25216 24.9669 9.69982C25.4146 10.1475 25.6663 10.7545 25.6667 11.3876V20.0698C25.6663 20.7029 25.4146 21.3099 24.9669 21.7576C24.5192 22.2052 23.9122 22.4569 23.2791 22.4574Z" fill="white"/>
<path d="M16.3333 27.6667C16.2478 27.6669 16.1631 27.6501 16.0841 27.6173C16.0051 27.5845 15.9334 27.5364 15.8732 27.4757L13.2685 24.871C13.1535 24.7476 13.0909 24.5843 13.0939 24.4156C13.0968 24.2469 13.1652 24.086 13.2845 23.9667C13.4038 23.8474 13.5647 23.779 13.7334 23.776C13.9021 23.7731 14.0654 23.8357 14.1888 23.9507L16.3333 26.0943L18.4778 23.9507C18.6013 23.8357 18.7645 23.7731 18.9332 23.776C19.1019 23.779 19.2629 23.8474 19.3822 23.9667C19.5015 24.086 19.5698 24.2469 19.5728 24.4156C19.5758 24.5843 19.5132 24.7476 19.3981 24.871L16.7935 27.4757C16.7333 27.5364 16.6616 27.5845 16.5826 27.6173C16.5036 27.6501 16.4189 27.6669 16.3333 27.6667V27.6667Z" fill="white"/>
<path d="M16.3334 26.7985C16.1607 26.7985 15.9951 26.7299 15.873 26.6078C15.7509 26.4857 15.6823 26.32 15.6823 26.1473V18.3334C15.6823 18.1607 15.7509 17.995 15.873 17.8729C15.9951 17.7508 16.1607 17.6822 16.3334 17.6822C16.5061 17.6822 16.6717 17.7508 16.7939 17.8729C16.916 17.995 16.9846 18.1607 16.9846 18.3334V26.1473C16.9846 26.32 16.916 26.4857 16.7939 26.6078C16.6717 26.7299 16.5061 26.7985 16.3334 26.7985Z" fill="white"/>
<path d="M25.0156 14.6435H7.65116C7.47846 14.6435 7.31284 14.5748 7.19072 14.4527C7.0686 14.3306 7 14.165 7 13.9923C7 13.8196 7.0686 13.654 7.19072 13.5318C7.31284 13.4097 7.47846 13.3411 7.65116 13.3411H25.0156C25.1883 13.3411 25.3539 13.4097 25.476 13.5318C25.5981 13.654 25.6667 13.8196 25.6667 13.9923C25.6667 14.165 25.5981 14.3306 25.476 14.4527C25.3539 14.5748 25.1883 14.6435 25.0156 14.6435V14.6435Z" fill="white"/>
<path d="M12.8604 17.6822H10.2558C10.0831 17.6822 9.91745 17.6136 9.79534 17.4915C9.67322 17.3694 9.60461 17.2037 9.60461 17.031C9.60461 16.8583 9.67322 16.6927 9.79534 16.5706C9.91745 16.4485 10.0831 16.3799 10.2558 16.3799H12.8604C13.0331 16.3799 13.1988 16.4485 13.3209 16.5706C13.443 16.6927 13.5116 16.8583 13.5116 17.031C13.5116 17.2037 13.443 17.3694 13.3209 17.4915C13.1988 17.6136 13.0331 17.6822 12.8604 17.6822Z" fill="white"/>
<path d="M11.9922 19.8527H10.2558C10.0831 19.8527 9.91745 19.7841 9.79534 19.662C9.67322 19.5399 9.60461 19.3743 9.60461 19.2016C9.60461 19.0289 9.67322 18.8633 9.79534 18.7411C9.91745 18.619 10.0831 18.5504 10.2558 18.5504H11.9922C12.1649 18.5504 12.3305 18.619 12.4527 18.7411C12.5748 18.8633 12.6434 19.0289 12.6434 19.2016C12.6434 19.3743 12.5748 19.5399 12.4527 19.662C12.3305 19.7841 12.1649 19.8527 11.9922 19.8527V19.8527Z" fill="white"/>
</svg>
