<svg width="32" height="32" viewBox="0 0 32 32" fill="none" xmlns="http://www.w3.org/2000/svg">
<circle cx="16" cy="16" r="16" fill="#2969DA"/>
<path d="M15.7891 6C10.9428 6 7 9.94277 7 14.7891C7 15.3261 7 19.4808 7 19.5547C7 20.5239 7.78855 21.3125 8.75781 21.3125H9.44453C9.68641 21.9945 10.3377 22.4844 11.1016 22.4844C12.0708 22.4844 12.8594 21.6958 12.8594 20.7266V15.9609C12.8594 14.9917 12.0708 14.2031 11.1016 14.2031C10.3377 14.2031 9.68641 14.693 9.44453 15.375H8.75781C8.55238 15.375 8.35527 15.4107 8.17188 15.4758V14.7891C8.17188 10.5889 11.5889 7.17188 15.7891 7.17188C19.9892 7.17188 23.4062 10.5889 23.4062 14.7891V15.4758C23.2229 15.4107 23.0257 15.375 22.8203 15.375H22.1336C21.8917 14.693 21.2404 14.2031 20.4766 14.2031C19.5073 14.2031 18.7188 14.9917 18.7188 15.9609V20.7266C18.7188 21.6958 19.5073 22.4844 20.4766 22.4844C20.6539 22.4844 20.8252 22.4577 20.9868 22.4086C20.7676 23.1298 20.0966 23.6562 19.3047 23.6562H17.4461C17.2042 22.9743 16.5529 22.4844 15.7891 22.4844C14.8198 22.4844 14.0312 23.2729 14.0312 24.2422C14.0312 25.2114 14.8198 26 15.7891 26C16.5529 26 17.2042 25.5101 17.4461 24.8281H19.3047C20.9201 24.8281 22.2344 23.5139 22.2344 21.8984V21.3125H22.8203C23.7896 21.3125 24.5781 20.5239 24.5781 19.5547C24.5781 19.4819 24.5781 15.3257 24.5781 14.7891C24.5781 9.94277 20.6354 6 15.7891 6ZM10.5156 15.9609C10.5156 15.6379 10.7785 15.375 11.1016 15.375C11.4246 15.375 11.6875 15.6379 11.6875 15.9609V20.7266C11.6875 21.0496 11.4246 21.3125 11.1016 21.3125C10.7785 21.3125 10.5156 21.0496 10.5156 20.7266V15.9609ZM8.75781 16.5469H9.34375V20.1406H8.75781C8.43473 20.1406 8.17188 19.8778 8.17188 19.5547V17.1328C8.17188 16.8097 8.43473 16.5469 8.75781 16.5469ZM15.7891 24.8281C15.466 24.8281 15.2031 24.5653 15.2031 24.2422C15.2031 23.9191 15.466 23.6562 15.7891 23.6562C16.1121 23.6562 16.375 23.9191 16.375 24.2422C16.375 24.5653 16.1121 24.8281 15.7891 24.8281ZM21.0625 20.7266C21.0625 21.0496 20.7996 21.3125 20.4766 21.3125C20.1535 21.3125 19.8906 21.0496 19.8906 20.7266V15.9609C19.8906 15.6379 20.1535 15.375 20.4766 15.375C20.7996 15.375 21.0625 15.6379 21.0625 15.9609V20.7266ZM23.4062 19.5547C23.4062 19.8778 23.1434 20.1406 22.8203 20.1406H22.2344V16.5469H22.8203C23.1434 16.5469 23.4062 16.8097 23.4062 17.1328V19.5547Z" fill="white"/>
</svg>
