<svg width="32" height="32" viewBox="0 0 32 32" fill="none" xmlns="http://www.w3.org/2000/svg">
<circle cx="16" cy="16" r="16" fill="#2969DA"/>
<path d="M8.40191 13.5873C9.59191 10.3281 12.7209 8 16.3891 8C21.0801 8 24.8891 11.8089 24.8891 16.5C24.8891 21.1911 21.0801 25 16.3891 25C13.246 25 10.4986 23.2906 9.02808 20.7509C8.76742 20.2995 8.92135 19.7215 9.3728 19.4599C9.8233 19.1992 10.4013 19.3532 10.6629 19.8046C11.8066 21.7804 13.9439 23.1111 16.3891 23.1111C20.0375 23.1111 23.0002 20.1484 23.0002 16.5C23.0002 12.8507 20.0375 9.88889 16.3891 9.88889C13.3508 9.88889 10.7885 11.9421 10.016 14.7358L11.6706 13.7913C12.123 13.5326 12.7001 13.6893 12.9589 14.1427C13.2176 14.5951 13.0599 15.1721 12.6075 15.4309L9.30197 17.3198C9.07813 17.4482 8.81181 17.4784 8.56436 17.4048C8.31692 17.3311 8.11102 17.1602 7.99297 16.9307L6.10408 13.2445C5.86608 12.7808 6.05025 12.2113 6.51397 11.9733C6.97769 11.7353 7.54719 11.9194 7.78519 12.3832L8.40191 13.5873ZM17.3335 16.109L19.8901 18.6656C20.2585 19.0339 20.2585 19.6327 19.8901 20.0011C19.5218 20.3694 18.923 20.3694 18.5547 20.0011L15.7214 17.1677C15.5438 16.9902 15.4446 16.7503 15.4446 16.5V12.7222C15.4446 12.2009 15.8677 11.7778 16.3891 11.7778C16.9104 11.7778 17.3335 12.2009 17.3335 12.7222V16.109Z" fill="white"/>
</svg>
