<svg width="32" height="32" viewBox="0 0 32 32" fill="none" xmlns="http://www.w3.org/2000/svg">
<circle cx="16" cy="16" r="16" fill="#2969DA"/>
<path d="M11.25 10.5H23.25C23.4489 10.5 23.6397 10.421 23.7803 10.2803C23.921 10.1397 24 9.94891 24 9.75C24 9.55109 23.921 9.36032 23.7803 9.21967C23.6397 9.07902 23.4489 9 23.25 9H11.25C10.6533 9 10.081 9.23705 9.65901 9.65901C9.23705 10.081 9 10.6533 9 11.25V21.75C9 22.3467 9.23705 22.919 9.65901 23.341C10.081 23.7629 10.6533 24 11.25 24H15C15.5967 24 16.169 23.7629 16.591 23.341C17.0129 22.919 17.25 22.3467 17.25 21.75V18.3105L18.2198 19.2802C18.3612 19.4169 18.5507 19.4925 18.7473 19.4908C18.9439 19.489 19.1321 19.4102 19.2711 19.2711C19.4102 19.1321 19.489 18.9439 19.4908 18.7473C19.4925 18.5507 19.4169 18.3612 19.2802 18.2198L17.0302 15.9698C16.9604 15.8998 16.8773 15.8444 16.7857 15.807C16.6023 15.7312 16.3962 15.7312 16.2127 15.807C16.1212 15.8444 16.0381 15.8998 15.9683 15.9698L13.7183 18.2198C13.5816 18.3612 13.506 18.5507 13.5077 18.7473C13.5095 18.9439 13.5883 19.1321 13.7274 19.2711C13.8664 19.4102 14.0546 19.489 14.2512 19.4908C14.4478 19.4925 14.6373 19.4169 14.7787 19.2802L15.75 18.3105V21.75C15.75 21.9489 15.671 22.1397 15.5303 22.2803C15.3897 22.421 15.1989 22.5 15 22.5H11.25C11.0511 22.5 10.8603 22.421 10.7197 22.2803C10.579 22.1397 10.5 21.9489 10.5 21.75V13.362C10.7402 13.4508 10.9939 13.4975 11.25 13.5H22.5V22.5H19.5C19.3011 22.5 19.1103 22.579 18.9697 22.7197C18.829 22.8603 18.75 23.0511 18.75 23.25C18.75 23.4489 18.829 23.6397 18.9697 23.7803C19.1103 23.921 19.3011 24 19.5 24H23.25C23.4489 24 23.6397 23.921 23.7803 23.7803C23.921 23.6397 24 23.4489 24 23.25V12.75C24 12.5511 23.921 12.3603 23.7803 12.2197C23.6397 12.079 23.4489 12 23.25 12H11.25C11.0511 12 10.8603 11.921 10.7197 11.7803C10.579 11.6397 10.5 11.4489 10.5 11.25C10.5 11.0511 10.579 10.8603 10.7197 10.7197C10.8603 10.579 11.0511 10.5 11.25 10.5V10.5Z" fill="white"/>
</svg>
