<svg width="32" height="32" viewBox="0 0 32 32" fill="none" xmlns="http://www.w3.org/2000/svg">
<circle cx="16" cy="16" r="16" fill="#2969DA"/>
<path d="M23.6066 7.80199C23.2011 7.39566 22.6619 7.17188 22.0882 7.17188H21.1191V6.97656C21.1191 6.43809 20.6811 6 20.1426 6H13.1113C12.5729 6 12.1348 6.43809 12.1348 6.97656V7.17188H11.1622C9.98016 7.17188 9.01738 8.13461 9.01606 9.31793L9 23.8492C8.99938 24.4235 9.22231 24.9636 9.62774 25.3699C10.0332 25.7762 10.5725 26 11.1462 26H22.0721C23.2542 26 24.217 25.0373 24.2183 23.8539L24.2344 9.3227C24.235 8.74836 24.0121 8.20828 23.6066 7.80199V7.80199ZM13.3066 7.17188H19.9473V8.34375H13.3066V7.17188ZM23.0477 23.8526C23.047 24.3905 22.6094 24.8281 22.0721 24.8281H11.1462C10.8854 24.8281 10.6403 24.7264 10.456 24.5417C10.2717 24.357 10.1704 24.1115 10.1706 23.8505L10.1867 9.31926C10.1873 8.78133 10.6249 8.34375 11.1622 8.34375H12.1348V8.53906C12.1348 9.07754 12.5729 9.51562 13.1113 9.51562H20.1426C20.6811 9.51562 21.1191 9.07754 21.1191 8.53906V8.34375H22.0882C22.349 8.34375 22.5941 8.44547 22.7784 8.63016C22.9627 8.81484 23.0641 9.06035 23.0638 9.32137L23.0477 23.8526Z" fill="white"/>
<path d="M16.8164 13.8125H20.9793C21.3029 13.8125 21.5653 13.5502 21.5653 13.2266C21.5653 12.903 21.3029 12.6406 20.9793 12.6406H16.8164C16.4928 12.6406 16.2305 12.903 16.2305 13.2266C16.2305 13.5502 16.4928 13.8125 16.8164 13.8125V13.8125Z" fill="white"/>
<path d="M16.8164 17.7188H20.9793C21.3029 17.7188 21.5653 17.4564 21.5653 17.1328C21.5653 16.8092 21.3029 16.5469 20.9793 16.5469H16.8164C16.4928 16.5469 16.2305 16.8092 16.2305 17.1328C16.2305 17.4564 16.4928 17.7188 16.8164 17.7188V17.7188Z" fill="white"/>
<path d="M20.9961 20.4531H16.8164C16.4928 20.4531 16.2305 20.7155 16.2305 21.0391C16.2305 21.3627 16.4928 21.625 16.8164 21.625H20.9961C21.3197 21.625 21.582 21.3627 21.582 21.0391C21.582 20.7155 21.3197 20.4531 20.9961 20.4531Z" fill="white"/>
<path d="M14.3225 11.6312L12.9713 12.9824L12.6527 12.6638C12.4238 12.435 12.0529 12.435 11.824 12.6638C11.5952 12.8926 11.5952 13.2636 11.824 13.4924L12.557 14.2254C12.6668 14.3353 12.8159 14.397 12.9713 14.397C13.1267 14.397 13.2757 14.3353 13.3856 14.2254L15.1512 12.4599C15.38 12.2311 15.38 11.86 15.1512 11.6312C14.9223 11.4024 14.5514 11.4024 14.3225 11.6312V11.6312Z" fill="white"/>
<path d="M14.3225 15.8357L12.9713 17.187L12.6527 16.8684C12.4238 16.6396 12.0529 16.6396 11.824 16.8684C11.5952 17.0972 11.5952 17.4682 11.824 17.697L12.557 18.43C12.6668 18.5399 12.8159 18.6016 12.9713 18.6016C13.1267 18.6016 13.2757 18.5399 13.3856 18.43L15.1512 16.6644C15.38 16.4356 15.38 16.0646 15.1512 15.8358C14.9223 15.607 14.5513 15.607 14.3225 15.8357V15.8357Z" fill="white"/>
<path d="M14.3225 19.742L12.9713 21.0932L12.6527 20.7746C12.4238 20.5458 12.0529 20.5458 11.824 20.7746C11.5952 21.0034 11.5952 21.3744 11.824 21.6033L12.557 22.3362C12.6668 22.4461 12.8159 22.5079 12.9713 22.5079C13.1267 22.5079 13.2757 22.4462 13.3856 22.3362L15.1512 20.5707C15.38 20.3419 15.38 19.9709 15.1512 19.742C14.9223 19.5132 14.5513 19.5132 14.3225 19.742V19.742Z" fill="white"/>
</svg>
