<svg width="42" height="40" viewBox="0 0 42 40" fill="none" xmlns="http://www.w3.org/2000/svg">
<path d="M11.5711 16.4062C9.58625 16.4062 7.97156 17.9833 7.97156 19.9219V29.4531C7.97156 31.3917 9.58625 32.9688 11.5711 32.9688C13.556 32.9688 15.1707 31.3917 15.1707 29.4531V19.9219C15.1707 17.9833 13.556 16.4062 11.5711 16.4062Z" fill="#808080"/>
<path d="M5.57184 19.9206C5.57184 19.5826 5.61751 19.256 5.67407 18.9336C4.228 19.3901 3.17212 20.702 3.17212 22.2644V27.1081C3.17212 28.6705 4.228 29.9824 5.67407 30.4389C5.61751 30.1165 5.57184 29.7899 5.57184 29.4519V19.9206Z" fill="#808080"/>
<path d="M30.7689 16.4062C28.784 16.4062 27.1693 17.9833 27.1693 19.9219V29.4531C27.1693 31.3917 28.784 32.9688 30.7689 32.9688C31.1297 32.9688 31.4714 32.9009 31.8001 32.8041C31.3535 34.2501 29.9934 35.3125 28.3692 35.3125H24.5486C24.0516 33.9514 22.7322 32.9688 21.17 32.9688C19.1851 32.9688 17.5704 34.5458 17.5704 36.4844C17.5704 38.423 19.1851 40 21.17 40C22.7322 40 24.0516 39.0173 24.5486 37.6562H28.3692C31.677 37.6562 34.3685 35.0276 34.3685 31.7969V29.4531V19.9219C34.3685 17.9833 32.7538 16.4062 30.7689 16.4062Z" fill="#808080"/>
<path d="M36.6658 18.9336C36.7223 19.256 36.768 19.5826 36.768 19.9206V29.4519C36.768 29.7899 36.7223 30.1165 36.6658 30.4389C38.1118 29.9824 39.1677 28.6705 39.1677 27.1081V22.2644C39.1677 20.702 38.1118 19.3901 36.6658 18.9336Z" fill="#808080"/>
<path d="M21.17 0C11.2454 0 3.17212 7.885 3.17212 17.5781V17.608C3.887 17.0795 4.7141 16.6927 5.62679 16.5195C6.18761 8.61336 12.9353 2.34375 21.17 2.34375C29.4047 2.34375 36.1524 8.61336 36.7132 16.5194C37.6259 16.6926 38.453 17.0795 39.1679 17.608V17.5781C39.1679 7.885 31.0946 0 21.17 0Z" fill="#808080"/>
</svg>
