<svg width="23" height="16" viewBox="0 0 23 16" fill="none" xmlns="http://www.w3.org/2000/svg">
<path d="M6.79967 7.99961C7.46241 7.99961 7.99967 7.46235 7.99967 6.79961C7.99967 6.13687 7.46241 5.59961 6.79967 5.59961C6.13693 5.59961 5.59967 6.13687 5.59967 6.79961C5.59967 7.46235 6.13693 7.99961 6.79967 7.99961Z" fill="#B1B1B1"/>
<path d="M19.9032 0H2.4968C1.8348 0.000635416 1.2001 0.263895 0.731998 0.731998C0.263894 1.2001 0.000635416 1.8348 0 2.4968V13.5032C0.000635416 14.1652 0.263894 14.7999 0.731998 15.268C1.2001 15.7361 1.8348 15.9994 2.4968 16H19.9032C20.5652 15.9994 21.1999 15.7361 21.668 15.268C22.1361 14.7999 22.3994 14.1652 22.4 13.5032V2.4968C22.3994 1.8348 22.1361 1.2001 21.668 0.731998C21.1999 0.263895 20.5652 0.000635416 19.9032 0V0ZM9.6 12.4C9.38783 12.4 9.18434 12.3157 9.03431 12.1657C8.88429 12.0157 8.8 11.8122 8.8 11.6C8.8 11.0696 8.58929 10.5609 8.21421 10.1858C7.83914 9.81071 7.33043 9.6 6.8 9.6C6.26957 9.6 5.76086 9.81071 5.38579 10.1858C5.01071 10.5609 4.8 11.0696 4.8 11.6C4.8 11.8122 4.71571 12.0157 4.56569 12.1657C4.41566 12.3157 4.21217 12.4 4 12.4C3.78783 12.4 3.58434 12.3157 3.43431 12.1657C3.28429 12.0157 3.2 11.8122 3.2 11.6C3.2008 11.0242 3.34003 10.4571 3.60596 9.94636C3.87189 9.43567 4.25672 8.9964 4.728 8.6656C4.26153 8.15606 4.00194 7.49081 4 6.8C4 6.05739 4.295 5.3452 4.8201 4.8201C5.3452 4.295 6.05739 4 6.8 4C7.54261 4 8.2548 4.295 8.7799 4.8201C9.305 5.3452 9.6 6.05739 9.6 6.8C9.59806 7.49081 9.33847 8.15606 8.872 8.6656C9.34328 8.9964 9.72811 9.43567 9.99404 9.94636C10.26 10.4571 10.3992 11.0242 10.4 11.6C10.4 11.8122 10.3157 12.0157 10.1657 12.1657C10.0157 12.3157 9.81217 12.4 9.6 12.4ZM18.4 12H12.8C12.5878 12 12.3843 11.9157 12.2343 11.7657C12.0843 11.6157 12 11.4122 12 11.2C12 10.9878 12.0843 10.7843 12.2343 10.6343C12.3843 10.4843 12.5878 10.4 12.8 10.4H18.4C18.6122 10.4 18.8157 10.4843 18.9657 10.6343C19.1157 10.7843 19.2 10.9878 19.2 11.2C19.2 11.4122 19.1157 11.6157 18.9657 11.7657C18.8157 11.9157 18.6122 12 18.4 12ZM18.4 8.8H12.8C12.5878 8.8 12.3843 8.71572 12.2343 8.56569C12.0843 8.41566 12 8.21217 12 8C12 7.78783 12.0843 7.58434 12.2343 7.43431C12.3843 7.28429 12.5878 7.2 12.8 7.2H18.4C18.6122 7.2 18.8157 7.28429 18.9657 7.43431C19.1157 7.58434 19.2 7.78783 19.2 8C19.2 8.21217 19.1157 8.41566 18.9657 8.56569C18.8157 8.71572 18.6122 8.8 18.4 8.8ZM18.4 5.6H12.8C12.5878 5.6 12.3843 5.51571 12.2343 5.36569C12.0843 5.21566 12 5.01217 12 4.8C12 4.58783 12.0843 4.38434 12.2343 4.23431C12.3843 4.08429 12.5878 4 12.8 4H18.4C18.6122 4 18.8157 4.08429 18.9657 4.23431C19.1157 4.38434 19.2 4.58783 19.2 4.8C19.2 5.01217 19.1157 5.21566 18.9657 5.36569C18.8157 5.51571 18.6122 5.6 18.4 5.6Z" fill="#B1B1B1"/>
</svg>
