<svg width="40" height="40" viewBox="0 0 40 40" fill="none" xmlns="http://www.w3.org/2000/svg">
<path fill-rule="evenodd" clip-rule="evenodd" d="M19.9417 0C8.92844 0 0 8.95455 0 20C0 31.0455 8.92844 40 19.9417 40C30.9549 40 39.8834 31.0455 39.8834 20C39.8834 8.95455 30.9549 0 19.9417 0ZM21.7546 27.2727C21.7546 27.7549 21.5636 28.2174 21.2236 28.5584C20.8836 28.8994 20.4225 29.0909 19.9417 29.0909C19.4609 29.0909 18.9998 28.8994 18.6598 28.5584C18.3198 28.2174 18.1288 27.7549 18.1288 27.2727V21.8182H12.6902C12.2094 21.8182 11.7482 21.6266 11.4083 21.2856C11.0683 20.9447 10.8773 20.4822 10.8773 20C10.8773 19.5178 11.0683 19.0553 11.4083 18.7144C11.7482 18.3734 12.2094 18.1818 12.6902 18.1818H18.1288V12.7273C18.1288 12.2451 18.3198 11.7826 18.6598 11.4416C18.9998 11.1006 19.4609 10.9091 19.9417 10.9091C20.4225 10.9091 20.8836 11.1006 21.2236 11.4416C21.5636 11.7826 21.7546 12.2451 21.7546 12.7273V18.1818H27.1932C27.674 18.1818 28.1351 18.3734 28.4751 18.7144C28.8151 19.0553 29.0061 19.5178 29.0061 20C29.0061 20.4822 28.8151 20.9447 28.4751 21.2856C28.1351 21.6266 27.674 21.8182 27.1932 21.8182H21.7546V27.2727Z" fill="#D1D1D1"/>
</svg>
