<svg width="27" height="25" viewBox="0 0 27 25" fill="none" xmlns="http://www.w3.org/2000/svg">
<path d="M26.03 11.6667V19.6667C26.1083 20.3422 26.0328 21.0267 25.8092 21.669C25.5856 22.3112 25.2197 22.8946 24.7388 23.3755C24.258 23.8564 23.6746 24.2223 23.0323 24.4459C22.39 24.6695 21.7055 24.745 21.03 24.6667H5.03C4.35445 24.745 3.66994 24.6695 3.02768 24.4459C2.38542 24.2223 1.80203 23.8564 1.32114 23.3755C0.840263 22.8946 0.474342 22.3112 0.250754 21.669C0.0271653 21.0267 -0.0483022 20.3422 0.0299965 19.6667V6.33333C-0.0483022 5.65779 0.0271653 4.97328 0.250754 4.33102C0.474342 3.68876 0.840263 3.10536 1.32114 2.62448C1.80203 2.1436 2.38542 1.77768 3.02768 1.55409C3.66994 1.3305 4.35445 1.25503 5.03 1.33333H14.3633C14.6285 1.33333 14.8829 1.43869 15.0704 1.62623C15.258 1.81376 15.3633 2.06812 15.3633 2.33333C15.3633 2.59855 15.258 2.8529 15.0704 3.04044C14.8829 3.22798 14.6285 3.33333 14.3633 3.33333H5.03C2.92733 3.33333 2.03 4.23067 2.03 6.33333V18.6667L5.41666 15.28C5.66841 15.0302 6.00868 14.89 6.36333 14.89C6.71798 14.89 7.05825 15.0302 7.31 15.28L8.56333 16.5333C8.68795 16.6555 8.85549 16.7239 9.03 16.7239C9.2045 16.7239 9.37204 16.6555 9.49666 16.5333L16.0833 9.94667C16.3351 9.69687 16.6753 9.55669 17.03 9.55669C17.3846 9.55669 17.7249 9.69687 17.9767 9.94667L24.03 16V11.6667C24.03 11.4015 24.1354 11.1471 24.3229 10.9596C24.5104 10.772 24.7648 10.6667 25.03 10.6667C25.2952 10.6667 25.5496 10.772 25.7371 10.9596C25.9246 11.1471 26.03 11.4015 26.03 11.6667ZM7.68733 7.33333C7.24465 7.33457 6.82055 7.51145 6.50818 7.82513C6.19582 8.13881 6.02071 8.56364 6.02133 9.00633C6.02195 9.44901 6.19824 9.87335 6.51148 10.1862C6.82472 10.499 7.24931 10.6747 7.692 10.6747C8.13468 10.6747 8.55927 10.499 8.87251 10.1862C9.18575 9.87335 9.36204 9.44901 9.36266 9.00633C9.36328 8.56364 9.18818 8.13881 8.87581 7.82513C8.56344 7.51145 8.13935 7.33457 7.69666 7.33333H7.68733ZM19.6967 4.66667H21.3633V6.33333C21.3633 6.59855 21.4687 6.8529 21.6562 7.04044C21.8438 7.22798 22.0981 7.33333 22.3633 7.33333C22.6285 7.33333 22.8829 7.22798 23.0704 7.04044C23.258 6.8529 23.3633 6.59855 23.3633 6.33333V4.66667H25.03C25.2952 4.66667 25.5496 4.56131 25.7371 4.37377C25.9246 4.18624 26.03 3.93188 26.03 3.66667C26.03 3.40145 25.9246 3.1471 25.7371 2.95956C25.5496 2.77202 25.2952 2.66667 25.03 2.66667H23.3633V1C23.3633 0.734784 23.258 0.480429 23.0704 0.292893C22.8829 0.105357 22.6285 0 22.3633 0C22.0981 0 21.8438 0.105357 21.6562 0.292893C21.4687 0.480429 21.3633 0.734784 21.3633 1V2.66667H19.6967C19.4314 2.66667 19.1771 2.77202 18.9896 2.95956C18.802 3.1471 18.6967 3.40145 18.6967 3.66667C18.6967 3.93188 18.802 4.18624 18.9896 4.37377C19.1771 4.56131 19.4314 4.66667 19.6967 4.66667Z" fill="#2A6DE6"/>
</svg>
