<svg width="65" height="23" viewBox="0 0 65 23" fill="none" xmlns="http://www.w3.org/2000/svg">
<path d="M4.38219 0.154811C4.3541 0.30871 4.16515 1.26789 3.91237 2.54203C3.69533 3.63006 2.82719 8.02871 2.59994 9.18116C2.16076 11.4145 1.08834 16.8439 1.07558 16.9012C1.06281 16.962 1.1292 16.9656 2.23991 16.9656H3.41446L3.43999 16.8833C3.45276 16.8403 3.68256 15.7022 3.94811 14.3529C4.21366 13.0036 4.732 10.3801 5.09968 8.51903C5.46481 6.65793 5.80441 4.94357 5.85293 4.70735C5.89889 4.47114 6.04954 3.72312 6.18231 3.0431C6.31509 2.36308 6.49893 1.42895 6.59085 0.967254C6.68277 0.505557 6.75937 0.0975461 6.75937 0.0617557C6.75937 0.00091195 6.69554 -0.00266709 5.58482 0.00091195L4.41027 0.00449099L4.38219 0.154811Z" fill="#6D6E72"/>
<path d="M26.4024 1.58285C26.2313 2.45614 26.0832 3.197 26.0756 3.23279C26.0577 3.29363 26.3284 3.29363 32.0785 3.29363C35.3903 3.29005 38.1045 3.30437 38.1096 3.32226C38.1147 3.34732 37.8594 4.66083 37.4891 6.52193L37.4176 6.87267L31.3917 6.87983L25.3632 6.89057L25.1512 7.96428C25.0338 8.55482 24.8755 9.35295 24.7989 9.73591C24.5691 10.8919 24.1325 13.0895 23.918 14.1739C23.8056 14.7358 23.6371 15.5912 23.5401 16.0816L23.3639 16.9656L24.5512 16.9584L25.7385 16.9477L25.8713 16.2677C25.9453 15.8919 26.2109 14.5569 26.4586 13.2971C26.7062 12.0372 26.9488 10.8204 26.9948 10.5949L27.0765 10.1833L32.6275 10.1654C37.9564 10.1475 38.1836 10.1439 38.319 10.0795C38.776 9.86475 39.1743 9.39948 39.3633 8.86262C39.4118 8.72304 39.6671 7.49543 40.068 5.45895C40.4127 3.70522 40.7319 2.09465 40.7779 1.87991C40.8825 1.37526 40.8876 0.977991 40.7983 0.688088C40.7242 0.459029 40.5149 0.176285 40.3438 0.086809C40.2263 0.0223862 39.9761 0.0188072 33.4676 0.00807004L26.7139 0.00091195L26.4024 1.58285Z" fill="#6D6E72"/>
<path d="M43.9773 0.0581777C43.6581 0.165549 43.3313 0.46261 43.0938 0.859883C42.8461 1.28221 42.8844 1.114 42.1108 5.04736C41.9193 6.02086 41.7252 7.01226 41.6767 7.24847C41.4188 8.53335 41.3805 8.75167 41.3805 8.98073C41.3805 9.49611 41.572 9.88623 41.9269 10.0867C42.0265 10.1439 42.4682 10.1475 47.5954 10.1582C52.8528 10.1654 53.1541 10.169 53.1541 10.2298C53.1541 10.262 53.1209 10.4589 53.08 10.6665C52.9524 11.3214 52.5132 13.544 52.5004 13.6084C52.4877 13.6693 52.171 13.6729 46.4438 13.68L40.4 13.6908L40.2698 14.3529C40.1983 14.7179 40.0681 15.3765 39.9813 15.8203C39.8945 16.2641 39.8051 16.7007 39.7872 16.7938L39.7515 16.9656H46.3953C51.9591 16.962 53.0724 16.9548 53.2384 16.9119C53.7516 16.7866 54.2597 16.2283 54.4589 15.5805C54.5099 15.4087 54.6325 14.8074 55.4674 10.5591C55.8377 8.68367 55.9168 8.24703 55.9143 8.05376C55.9143 7.54196 55.7202 7.14826 55.3755 6.95499C55.2657 6.89415 54.9746 6.89057 49.7019 6.87983C44.442 6.87268 44.1407 6.8691 44.1407 6.80825C44.1407 6.77604 44.2939 5.97434 44.4829 5.02947L44.8225 3.31153L50.8637 3.30079L56.905 3.29363L56.9331 3.13973C56.9484 3.05742 56.9765 2.91783 56.9969 2.82836C57.0454 2.61004 57.5459 0.0510197 57.5459 0.0223873C57.5459 0.0116502 54.5278 0.000913054 50.8382 0.0044921C45.1186 0.00807114 44.105 0.0152292 43.9773 0.0581777Z" fill="#6D6E72"/>
<path d="M9.20035 0.076156C9.19269 0.104788 9.10587 0.545011 9.00629 1.05681C8.90671 1.56862 8.75606 2.32379 8.67436 2.73896C8.59265 3.15055 8.38327 4.19921 8.21475 5.06534C7.75514 7.39888 7.45895 8.8985 6.26653 14.9256C5.92438 16.6471 5.87842 16.9156 5.91417 16.937C5.93715 16.9513 6.46314 16.9621 7.08616 16.9621L8.21475 16.9657L8.24028 16.8833C8.2556 16.8404 8.53137 15.4589 8.85564 13.8161C9.17992 12.1733 9.55271 10.2728 9.68804 9.59283C9.82337 8.91281 9.95615 8.23279 9.98423 8.0789C10.0149 7.92858 10.0506 7.80331 10.0685 7.80331C10.1017 7.80331 9.97913 7.50983 12.1852 12.7961C13.1223 15.0401 13.896 16.8869 13.9062 16.9012C13.9164 16.9191 14.1539 16.6364 14.4322 16.2785C14.879 15.713 16.2017 14.0201 16.383 13.7839C16.4187 13.7374 16.6204 13.4797 16.8298 13.2112C18.5942 10.9564 18.6963 10.824 18.8878 10.5771C18.9797 10.4554 19.1176 10.28 19.1968 10.1834C19.2734 10.0832 19.5364 9.75031 19.7764 9.43893C20.019 9.13113 20.2283 8.87702 20.2411 8.87702C20.2564 8.87702 20.2666 8.90923 20.2666 8.9486C20.2666 8.98439 20.1339 9.68947 19.9705 10.5126C19.8096 11.3358 19.5747 12.5312 19.4496 13.1719C19.3244 13.8125 19.1074 14.9149 18.967 15.6235C18.8291 16.3322 18.7193 16.9191 18.727 16.9299C18.7321 16.9406 19.2606 16.9513 19.899 16.9585L21.0582 16.9692L21.0837 16.8869C21.0965 16.8404 21.1424 16.6257 21.1833 16.4109C21.3212 15.7094 22.1051 11.7331 22.1689 11.4181C22.2021 11.2499 22.4089 10.2048 22.6285 9.09176C23.1698 6.33948 23.7826 3.24361 24.1197 1.53998C24.2729 0.763332 24.3954 0.122684 24.3903 0.115525C24.3878 0.108367 24.1095 0.430481 23.775 0.831334C23.4379 1.23219 22.986 1.76546 22.7689 2.02316C22.3451 2.51706 22.2812 2.5958 22.1204 2.79265C22.0131 2.92507 21.6455 3.35814 21.454 3.58004C21.3952 3.64804 21.168 3.91647 20.9535 4.17416C20.7365 4.42827 20.4505 4.76828 20.3177 4.92576C20.1849 5.08324 19.6692 5.69525 19.1712 6.28222C18.6733 6.87276 18.0401 7.62078 17.7643 7.94647C17.4886 8.27216 17.126 8.70165 16.96 8.90208C16.434 9.52483 15.7829 10.2979 15.1982 10.9851C14.8893 11.3466 14.588 11.708 14.5292 11.7832C14.4679 11.8584 14.4041 11.9192 14.3837 11.9192C14.3633 11.9192 14.2254 11.6436 14.0722 11.2821C13.9215 10.935 13.5845 10.1476 13.3215 9.53915C13.0585 8.92713 12.558 7.76752 12.2108 6.96223C11.5163 5.34809 10.9749 4.09542 9.93827 1.68315C9.56293 0.806281 9.24376 0.076156 9.23354 0.0582608C9.22078 0.0367865 9.20801 0.0475237 9.20035 0.076156Z" fill="#6D6E72"/>
<path d="M5.70474 21.2819L5.12512 22.9068H5.28598H5.44685L5.77623 21.9619C5.96007 21.4394 6.11583 21.0135 6.1286 21.0135C6.13881 21.0099 6.14647 21.0564 6.14647 21.1101C6.14647 21.1888 6.38138 22.871 6.40947 22.9891C6.41457 23.0177 7.23676 21.5324 7.40528 21.1924L7.50231 20.992L7.48699 21.2604C7.47167 21.5682 7.42315 22.7063 7.42315 22.8245C7.42315 22.9032 7.43337 22.9068 7.58912 22.9068H7.75509V22.735C7.75509 22.6419 7.77807 21.9225 7.80616 21.1351C7.83169 20.3478 7.84956 19.7 7.84701 19.6928C7.83935 19.6821 6.77204 21.7006 6.67246 21.9118C6.61629 22.0335 6.58054 22.012 6.58054 21.8581C6.58054 21.7543 6.30988 19.6856 6.29201 19.6642C6.28946 19.657 6.02391 20.3871 5.70474 21.2819Z" fill="#3A3A3C"/>
<path d="M33.1357 21.2534C32.819 22.1302 32.5586 22.8639 32.5535 22.8782C32.5484 22.8926 32.6173 22.9069 32.7067 22.9069H32.8701L33.2046 21.9584C33.3859 21.4395 33.5442 21.0207 33.5544 21.035C33.5621 21.0458 33.5697 21.0959 33.5697 21.1424C33.5697 21.2212 33.8174 22.982 33.8327 22.9999C33.8404 23.0107 34.563 21.6972 34.78 21.282L34.9281 20.9921L34.9128 21.2068C34.8949 21.4538 34.8464 22.574 34.8464 22.7709V22.9069H35.0073H35.1681L35.2115 21.4824C35.2371 20.7022 35.2626 19.9649 35.2703 19.8468C35.2805 19.7287 35.2805 19.6392 35.2754 19.65C35.2498 19.6893 34.2617 21.5791 34.157 21.7866C34.0957 21.9119 34.037 22.0121 34.0268 22.0121C34.0191 22.0121 34.0038 21.9191 33.9961 21.8045C33.9808 21.622 33.728 19.6786 33.7153 19.6643C33.7127 19.6571 33.4523 20.3729 33.1357 21.2534Z" fill="#3A3A3C"/>
<path d="M2.05093 21.293L1.47131 22.9071H1.63728H1.80325L1.86453 22.7174C2.13008 21.9336 2.46968 21.0102 2.47989 21.0496C2.485 21.0782 2.55139 21.5328 2.62544 22.0589C2.73012 22.8141 2.76587 23.0073 2.78885 22.9715C2.86801 22.8499 3.66721 21.3753 3.75147 21.1963C3.80509 21.0854 3.8485 21.0066 3.8485 21.0281C3.8485 21.046 3.83062 21.4504 3.8102 21.9229C3.78977 22.3953 3.7719 22.8105 3.7719 22.8427C3.7719 22.8964 3.79743 22.9071 3.93787 22.9071H4.10383V22.789C4.10383 22.7282 4.12682 22.0088 4.1549 21.1928C4.18299 20.3767 4.20086 19.7039 4.19576 19.6967C4.1881 19.686 3.3557 21.2608 3.05695 21.8441C2.96759 22.0195 2.92929 22.0159 2.92929 21.8298C2.92929 21.7153 2.67906 19.8363 2.65352 19.7432C2.6382 19.6931 2.49521 20.0618 2.05093 21.293Z" fill="#3A3A3C"/>
<path d="M16.8758 21.2714C16.4085 22.1518 16.0281 22.8784 16.0281 22.8891C16.0281 22.8998 16.1072 22.907 16.2068 22.907H16.383L16.5949 22.4954L16.8069 22.0838H17.2562H17.7031L17.749 22.4954L17.795 22.907H17.984C18.1678 22.907 18.1729 22.9034 18.1601 22.8247C18.1525 22.7817 18.0606 22.0838 17.9559 21.2785C17.8486 20.4697 17.7542 19.7789 17.7414 19.7431C17.7261 19.6894 17.5575 19.9901 16.8758 21.2714ZM17.601 21.189C17.6214 21.3752 17.6469 21.5648 17.6546 21.6078C17.6673 21.6901 17.6673 21.6901 17.3584 21.6901C17.1439 21.6901 17.0494 21.6758 17.0494 21.6507C17.0494 21.6257 17.1235 21.4718 17.2103 21.3C17.2997 21.1318 17.412 20.9099 17.4605 20.8132L17.5473 20.6343L17.555 20.7417C17.5575 20.7989 17.578 21.0029 17.601 21.189Z" fill="#3A3A3C"/>
<path d="M28.961 20.1547C28.8205 20.4195 28.4401 21.1389 28.1132 21.7545C27.7864 22.3701 27.5183 22.8784 27.5183 22.8891C27.5183 22.8998 27.5975 22.907 27.6945 22.907H27.8732L28.0852 22.4954L28.2971 22.0874L28.7465 22.0838H29.1933L29.2393 22.4954L29.2852 22.907H29.4767C29.6631 22.907 29.6682 22.9034 29.6555 22.8247C29.6478 22.7817 29.5533 22.0838 29.4461 21.2785C29.3414 20.4697 29.2444 19.7825 29.2342 19.7431C29.2163 19.6894 29.1703 19.761 28.961 20.1547ZM29.0886 21.1533C29.1116 21.3394 29.1346 21.5362 29.1423 21.5899L29.1576 21.6901H28.8486C28.6495 21.6901 28.5397 21.6758 28.5397 21.6507C28.5397 21.6328 28.6009 21.5004 28.675 21.3573C28.749 21.2141 28.8614 20.9958 28.9252 20.8669C29.0248 20.6629 29.0376 20.645 29.0452 20.7238C29.0478 20.7739 29.0682 20.9671 29.0886 21.1533Z" fill="#3A3A3C"/>
<path d="M39.0901 21.2571C38.919 22.1196 38.7786 22.8462 38.7786 22.8677C38.7786 22.8963 38.8296 22.907 38.9369 22.8999L39.0952 22.8891L39.1514 22.6028C39.182 22.4453 39.2739 21.9765 39.3531 21.5649C39.4348 21.1497 39.5088 20.799 39.519 20.7846C39.5293 20.7668 39.565 20.8204 39.5982 20.8956C39.6314 20.9743 39.902 21.4826 40.1957 22.023C40.5991 22.7639 40.737 22.9929 40.7498 22.9464C40.7702 22.8927 41.383 19.8112 41.383 19.7754C41.383 19.7646 41.309 19.7575 41.2196 19.7575C41.0715 19.7575 41.0562 19.7646 41.0408 19.8362C40.9285 20.4446 40.6298 21.9049 40.6195 21.9049C40.6119 21.9049 40.571 21.8333 40.5327 21.7438C40.4408 21.5434 39.445 19.7074 39.4195 19.693C39.4092 19.6895 39.2612 20.391 39.0901 21.2571Z" fill="#3A3A3C"/>
<path d="M47.2991 19.7215C47.1587 19.7717 47.0131 19.8862 46.8957 20.0329C46.6914 20.2942 46.5893 20.7523 46.6812 21.0207C46.7272 21.1603 46.911 21.3715 47.1229 21.5325C47.2991 21.6614 47.3834 21.801 47.3834 21.962C47.3834 22.2734 47.1842 22.5239 46.9365 22.5239C46.7323 22.5239 46.5918 22.3879 46.5918 22.1947C46.5918 22.1016 46.5893 22.1016 46.408 22.1982C46.2778 22.2698 46.2599 22.2913 46.2599 22.3808C46.2599 22.6313 46.4054 22.8711 46.5995 22.9463C46.7808 23.0143 47.0923 22.9713 47.2557 22.8568C47.5213 22.6707 47.7076 22.3378 47.7689 21.9441C47.82 21.6077 47.7332 21.3965 47.4344 21.1532C47.174 20.9348 47.1076 20.8597 47.0668 20.7416C47.0233 20.6127 47.0463 20.4481 47.1255 20.3157C47.1817 20.2226 47.3527 20.1152 47.4472 20.1152C47.5238 20.1152 47.6898 20.2298 47.6898 20.2835C47.6898 20.3014 47.7 20.3336 47.7128 20.3586C47.7408 20.423 48.0472 20.2369 48.0472 20.1546C48.0472 20.0472 47.9477 19.8683 47.8455 19.7967C47.7281 19.7108 47.4421 19.6714 47.2991 19.7215Z" fill="#3A3A3C"/>
<path d="M59.5426 19.7396C59.3204 19.8076 59.0447 20.0044 58.8583 20.2299C58.2608 20.9529 58.1076 22.1089 58.534 22.6601C58.7076 22.882 58.843 22.9535 59.1417 22.9714C59.4226 22.9893 59.6319 22.9321 59.8439 22.7818C59.9588 22.6994 59.9639 22.6887 60.0149 22.4238C60.043 22.2771 60.0584 22.159 60.0507 22.1626C60.043 22.1697 59.9613 22.227 59.872 22.295C59.6422 22.4596 59.5043 22.5133 59.2821 22.5133C59.0447 22.5133 58.8991 22.4238 58.7791 22.2019C58.5672 21.8047 58.6821 21.0638 59.0242 20.6021C59.3996 20.1011 59.9358 20.008 60.2856 20.3802L60.398 20.4983L60.4541 20.2514C60.5205 19.9686 60.5205 19.9722 60.3111 19.829C60.0864 19.6823 59.8362 19.6501 59.5426 19.7396Z" fill="#3A3A3C"/>
<path d="M0.605749 19.7753C0.605749 19.7861 0.518934 20.2334 0.411693 20.7703C0.100182 22.3558 0.0159211 22.7781 0.00315431 22.8426C-0.00961252 22.8998 0.0108144 22.907 0.169123 22.907H0.347859L0.375946 22.7531C0.393819 22.6708 0.531701 21.9693 0.684903 21.1962C0.838105 20.4231 0.96322 19.7825 0.96322 19.7717C0.96322 19.7646 0.884066 19.7574 0.784485 19.7574C0.687457 19.7574 0.605749 19.7646 0.605749 19.7753Z" fill="#3A3A3C"/>
<path d="M9.60897 19.7861C9.60387 19.8004 9.53493 20.1368 9.45577 20.5269C9.37917 20.9206 9.26427 21.5004 9.20043 21.8154C9.13915 22.1303 9.06511 22.5061 9.03447 22.6457L8.9834 22.907H9.60642H10.2294L10.2703 22.7209C10.2907 22.6207 10.3086 22.524 10.3086 22.5061C10.3086 22.4918 10.1145 22.4775 9.87452 22.4775C9.63706 22.4775 9.44045 22.4668 9.44045 22.4489C9.44045 22.4345 9.48386 22.2019 9.53493 21.9299L9.63195 21.4396H10.0788H10.5256L10.5665 21.2248L10.6073 21.0101H10.1784C9.94346 21.0101 9.7443 20.9994 9.7392 20.9815C9.73154 20.9671 9.76218 20.7846 9.80558 20.5734L9.88218 20.1869L10.329 20.1798L10.7784 20.169L10.8116 19.9901C10.8295 19.8898 10.8448 19.8004 10.8448 19.7825C10.8448 19.7467 9.62685 19.7503 9.60897 19.7861Z" fill="#3A3A3C"/>
<path d="M12.0857 19.8183C12.0551 19.9221 11.4832 22.8355 11.4832 22.8748C11.4832 22.907 11.6338 22.9106 12.027 22.8963C12.6679 22.8748 12.7981 22.8319 13.0867 22.5491C13.3803 22.2592 13.5718 21.8655 13.6791 21.3251C13.7403 21.0173 13.7454 20.6164 13.6918 20.4053C13.5667 19.9006 13.296 19.7611 12.4509 19.7575C12.147 19.7575 12.0985 19.7646 12.0857 19.8183ZM13.0535 20.2621C13.2577 20.3409 13.3471 20.552 13.3471 20.9457C13.3446 21.4217 13.1709 21.93 12.9207 22.1984C12.7343 22.3952 12.6041 22.4418 12.2338 22.4418C11.9402 22.4418 11.9147 22.4346 11.9249 22.3773C11.9325 22.3451 11.9632 22.1948 11.9913 22.0481C12.1087 21.4468 12.2594 20.6916 12.3053 20.4625L12.3564 20.2227H12.6526C12.8186 20.2227 12.9973 20.2406 13.0535 20.2621Z" fill="#3A3A3C"/>
<path d="M15.2008 19.9435C15.1804 20.0473 15.1038 20.4303 15.0298 20.7953C14.7412 22.2484 14.6238 22.8533 14.6238 22.8784C14.6238 22.8962 14.7029 22.907 14.7974 22.907H14.971L15.2723 21.3787C15.4383 20.5377 15.5787 19.829 15.5864 19.804C15.5966 19.7682 15.5583 19.7574 15.4204 19.7574H15.2391L15.2008 19.9435Z" fill="#3A3A3C"/>
<path d="M19.4139 19.8004C19.4062 19.8254 19.3909 19.9006 19.3756 19.9686C19.3245 20.1869 19.3219 20.1833 19.6386 20.1941L19.9271 20.2048L19.6769 21.4754C19.5364 22.1733 19.4164 22.7817 19.4088 22.8247C19.3934 22.9034 19.3985 22.907 19.5696 22.907H19.7484L19.8428 22.431C19.8939 22.1733 20.0165 21.5648 20.1109 21.0817L20.2846 20.2048L20.5859 20.1869L20.8897 20.169L20.9229 19.9901C20.9408 19.8898 20.9561 19.8004 20.9561 19.7825C20.9561 19.7682 20.6114 19.7574 20.1901 19.7574C19.5977 19.7574 19.4215 19.7682 19.4139 19.8004Z" fill="#3A3A3C"/>
<path d="M21.7628 21.2857C21.5943 22.1303 21.4539 22.839 21.4488 22.8605C21.4386 22.8962 21.5713 22.907 22.059 22.907H22.6846L22.7152 22.7531C22.7331 22.6708 22.7536 22.5741 22.7587 22.5383C22.7714 22.4811 22.7382 22.4775 22.3374 22.4775C22.008 22.4775 21.9007 22.4668 21.9007 22.4345C21.9007 22.4095 21.9416 22.1769 21.9952 21.9156L22.0871 21.4396L22.534 21.4324L22.9808 21.4217L23.014 21.2606C23.0702 20.9958 23.0957 21.0101 22.6157 21.0101C22.3782 21.0101 22.1816 20.9958 22.1816 20.9815C22.1816 20.9636 22.1969 20.8705 22.2173 20.7739C22.2378 20.6772 22.271 20.5054 22.2939 20.3909L22.3374 20.1869H22.7816H23.2259L23.2642 19.9936C23.2872 19.8863 23.3051 19.7896 23.3051 19.7789C23.3051 19.7682 23.0268 19.7574 22.6846 19.7574H22.0641L21.7628 21.2857Z" fill="#3A3A3C"/>
<path d="M26.1394 20.5842C25.9836 21.393 25.7206 22.7173 25.69 22.8426C25.6772 22.8998 25.6951 22.907 25.8458 22.907C25.9581 22.907 26.0168 22.8927 26.0245 22.8605C26.0296 22.839 26.0934 22.5169 26.1675 22.1446L26.3003 21.4754H26.5735C26.908 21.4754 27.0382 21.4181 27.2093 21.2034C27.3778 20.9922 27.4697 20.7238 27.485 20.4088C27.4952 20.2012 27.4901 20.1547 27.4365 20.0473C27.3216 19.8075 27.2552 19.7789 26.7522 19.7646L26.3028 19.7503L26.1394 20.5842ZM27.005 20.2692C27.0969 20.3301 27.125 20.4697 27.0867 20.6558C27.0407 20.8705 26.9437 20.9922 26.7828 21.0423C26.6041 21.096 26.4203 21.0924 26.4203 21.0387C26.4203 21.0172 26.456 20.8132 26.502 20.5878L26.5837 20.1798L26.7624 20.2012C26.8594 20.2155 26.9692 20.2442 27.005 20.2692Z" fill="#3A3A3C"/>
<path d="M30.8938 20.6127L31.1032 21.468L30.9602 22.1874L30.8198 22.9104L30.9985 22.8997L31.1773 22.8889L31.2513 22.5131C31.2896 22.3055 31.3534 21.9834 31.3917 21.7973L31.4581 21.4573L31.8692 20.831C32.0939 20.4874 32.3314 20.1259 32.3952 20.0328C32.5765 19.7608 32.5765 19.7573 32.385 19.7573H32.2216L31.9177 20.2154C31.7518 20.4659 31.5628 20.7558 31.4939 20.8632C31.4275 20.9706 31.3688 21.0493 31.3662 21.0421C31.3637 21.035 31.2922 20.7415 31.213 20.3908L31.0649 19.7573H30.876H30.687L30.8938 20.6127Z" fill="#3A3A3C"/>
<path d="M36.9045 19.7861C36.8943 19.8111 36.6696 20.9278 36.33 22.6457L36.2789 22.907H36.902H37.525L37.5633 22.7137C37.5863 22.6063 37.6041 22.5097 37.6041 22.499C37.6041 22.4882 37.4101 22.4775 37.1701 22.4775C36.9326 22.4775 36.736 22.4668 36.736 22.4489C36.736 22.4345 36.7768 22.2019 36.8305 21.9335L36.9249 21.4396L37.3718 21.4324L37.8186 21.4217L37.862 21.2141L37.9054 21.0101H37.4765C37.239 21.0101 37.0398 20.9958 37.0322 20.9815C37.0271 20.9671 37.0552 20.781 37.0986 20.5699L37.1777 20.1869H37.6194H38.0612L38.102 20.0008C38.1225 19.9006 38.1403 19.804 38.1403 19.7861C38.1403 19.7503 36.9224 19.7467 36.9045 19.7861Z" fill="#3A3A3C"/>
<path d="M42.4554 19.9075C42.4401 19.9934 42.4222 20.0901 42.4146 20.1223C42.4018 20.1795 42.4273 20.1867 42.6955 20.1867C42.8589 20.1867 42.9916 20.1938 42.9916 20.2082C42.9916 20.2261 42.4886 22.7779 42.4682 22.8638C42.458 22.8996 42.4988 22.9068 42.6367 22.8996L42.8206 22.8889L42.9687 22.1373C43.0504 21.7221 43.1704 21.1172 43.2368 20.7844L43.3542 20.1867H43.653H43.9517L43.9926 19.9719L44.0334 19.7572H43.2572H42.4835L42.4554 19.9075Z" fill="#3A3A3C"/>
<path d="M49.541 19.8001C49.5103 19.9218 48.9409 22.8423 48.9409 22.8709C48.9409 22.8959 49.158 22.9031 49.5563 22.8995L50.1742 22.8888L50.2074 22.7277C50.2636 22.4629 50.2891 22.4772 49.8091 22.4772C49.5716 22.4772 49.375 22.4665 49.375 22.4486C49.375 22.4343 49.421 22.2052 49.4746 21.9403L49.5716 21.4572L50.0184 21.4464L50.4678 21.4393L50.4959 21.2818C50.5112 21.1959 50.5291 21.0993 50.5393 21.0671C50.5546 21.0169 50.5112 21.0098 50.1231 21.0098C49.8857 21.0098 49.6839 21.0026 49.6763 20.9919C49.6686 20.9812 49.6993 20.795 49.7427 20.5803L49.8218 20.1866H50.2636H50.7027L50.7283 20.1007C50.741 20.0542 50.7589 19.9576 50.7666 19.886L50.7844 19.7571H50.1691C49.6993 19.7571 49.5486 19.7679 49.541 19.8001Z" fill="#3A3A3C"/>
<path d="M52.125 19.94C52.0254 20.4195 51.5454 22.8605 51.5454 22.8819C51.5454 22.8962 51.6169 22.907 51.7063 22.907H51.8697L52.005 22.2162C52.0791 21.8404 52.1506 21.5147 52.1608 21.4968C52.1812 21.4646 52.2859 21.751 52.5617 22.592L52.6663 22.907H52.8578C52.9651 22.907 53.0519 22.8927 53.0519 22.8748C53.0519 22.8569 53.011 22.7245 52.96 22.5813C52.5872 21.5291 52.5668 21.4432 52.6944 21.4396C52.7812 21.436 52.9957 21.2606 53.0825 21.121C53.2715 20.8132 53.343 20.28 53.2306 20.0259C53.1413 19.8218 53.0391 19.7825 52.577 19.7646L52.1633 19.7467L52.125 19.94ZM52.771 20.2334C52.9268 20.3086 52.9549 20.5305 52.8451 20.8347C52.7863 20.9994 52.6663 21.0817 52.4391 21.1067C52.2961 21.1246 52.2604 21.1175 52.2604 21.0781C52.2604 21.0495 52.2961 20.8383 52.3421 20.6092L52.4263 20.1869L52.554 20.1905C52.6255 20.1905 52.7225 20.2084 52.771 20.2334Z" fill="#3A3A3C"/>
<path d="M54.3286 19.818C54.3286 19.8825 54.6554 22.939 54.6682 22.9855C54.6733 23.007 56.2717 19.8574 56.2896 19.7894C56.2947 19.7715 56.2207 19.7572 56.1236 19.7572H55.9474L55.4853 20.6842C55.2325 21.1924 54.9976 21.6756 54.9644 21.7579C54.9312 21.8366 54.8955 21.9046 54.8852 21.9046C54.8725 21.9046 54.8648 21.8187 54.8648 21.7113C54.8648 21.6076 54.824 21.1315 54.7755 20.652C54.7269 20.1724 54.6861 19.7787 54.6861 19.7715C54.6861 19.7643 54.6069 19.7572 54.5073 19.7572C54.3541 19.7572 54.3286 19.7643 54.3286 19.818Z" fill="#3A3A3C"/>
<path d="M56.9968 21.2857C56.8308 22.1303 56.6904 22.839 56.6853 22.8605C56.6751 22.8962 56.7185 22.907 56.8512 22.907H57.0325L57.0708 22.7173C57.104 22.5598 57.5075 20.5233 57.6121 19.9901C57.6326 19.8898 57.6479 19.8004 57.6479 19.7825C57.6479 19.7682 57.5687 19.7574 57.4743 19.7574H57.3006L56.9968 21.2857Z" fill="#3A3A3C"/>
<path d="M61.7461 19.8004C61.6976 20.0044 61.1665 22.6994 61.1512 22.8103L61.141 22.907L61.7615 22.8998L62.3819 22.8891L62.4151 22.7101C62.433 22.6099 62.4483 22.5204 62.4483 22.5026C62.4483 22.4882 62.2594 22.4775 62.0296 22.4775C61.7972 22.4775 61.6032 22.4632 61.5955 22.4453C61.5878 22.4274 61.621 22.2162 61.6695 21.9729C61.7181 21.7331 61.7589 21.5112 61.7589 21.4861C61.7589 21.4503 61.8559 21.4396 62.2134 21.4396H62.6679L62.7088 21.2248L62.7496 21.0101H62.3232C62.0883 21.0101 61.8891 21.0029 61.8815 20.9922C61.8738 20.9815 61.9044 20.7953 61.9453 20.5806L62.0219 20.1869L62.4687 20.1798L62.9156 20.169L62.9488 20.008C62.9692 19.9185 62.9845 19.8254 62.9845 19.8004C62.9845 19.7682 62.8441 19.7574 62.3717 19.7574C61.9019 19.7574 61.7538 19.7682 61.7461 19.8004Z" fill="#3A3A3C"/>
<path d="M61.7028 0L57.8678 16.7387L64.99 8.03459L61.7028 0Z" fill="#008C45"/>
<path d="M59.9223 0L56.0873 16.7387L63.2095 8.03459L59.9223 0Z" fill="#F5791F"/>
</svg>
