<svg width="16" height="16" viewBox="0 0 16 16" fill="none" xmlns="http://www.w3.org/2000/svg">
<g clip-path="url(#clip0_196_408)">
<path fill-rule="evenodd" clip-rule="evenodd" d="M7.99996 0.666687C3.94996 0.666687 0.666626 3.95002 0.666626 8.00002C0.666626 12.05 3.94996 15.3334 7.99996 15.3334C12.05 15.3334 15.3333 12.05 15.3333 8.00002C15.3333 3.95002 12.05 0.666687 7.99996 0.666687ZM5.33329 7.33335C5.15648 7.33335 4.98691 7.40359 4.86189 7.52862C4.73686 7.65364 4.66663 7.82321 4.66663 8.00002C4.66663 8.17683 4.73686 8.3464 4.86189 8.47143C4.98691 8.59645 5.15648 8.66669 5.33329 8.66669H10.6666C10.8434 8.66669 11.013 8.59645 11.138 8.47143C11.2631 8.3464 11.3333 8.17683 11.3333 8.00002C11.3333 7.82321 11.2631 7.65364 11.138 7.52862C11.013 7.40359 10.8434 7.33335 10.6666 7.33335H5.33329Z" fill="#D1D1D1"/>
</g>
<defs>
<clipPath id="clip0_196_408">
<rect width="16" height="16" fill="white"/>
</clipPath>
</defs>
</svg>
