<svg width="122" height="118" viewBox="0 0 122 118" fill="none" xmlns="http://www.w3.org/2000/svg">
<path d="M27.3955 27.07C30.856 22.4561 28.8374 17.4576 27.3955 15.5352H73.535C69.4978 20.7259 71.8529 25.3879 73.535 27.07H27.3955Z" fill="#77A8FF"/>
<path d="M14.4185 80.4185C22.0964 72.344 17.6176 63.5968 14.4185 60.2324H116.791C107.833 69.3161 113.058 77.4747 116.791 80.4185H14.4185Z" fill="#77A8FF"/>
<rect x="20.186" y="5.44189" width="60.5581" height="11.5349" rx="5.76744" fill="#77A8FF"/>
<rect x="11.5347" y="25.6279" width="105.256" height="11.5349" rx="5.76744" fill="#77A8FF"/>
<rect x="7.20947" y="48.6978" width="113.907" height="11.5349" rx="5.76744" fill="#77A8FF"/>
<rect x="7.20947" y="80.4185" width="113.907" height="11.5349" rx="5.76744" fill="#77A8FF"/>
<circle cx="7.2093" cy="11.2093" r="7.2093" fill="#0C64FF"/>
<circle cx="12.256" cy="111.419" r="6.48837" fill="#0C64FF"/>
<path d="M89.8919 0H31.1081C26.636 0 23 3.65156 23 8.14286V105.857C23 110.348 26.636 114 31.1081 114H89.8919C94.364 114 98 110.348 98 105.857V8.14286C98 3.65156 94.364 0 89.8919 0ZM60.5 96.9509C57.7002 96.9509 55.4324 94.6734 55.4324 91.8616C55.4324 89.0498 57.7002 86.7723 60.5 86.7723C63.2998 86.7723 65.5676 89.0498 65.5676 91.8616C65.5676 94.6734 63.2998 96.9509 60.5 96.9509Z" fill="#003879"/>
<path d="M73.1428 33.5357C73.1428 41.2223 67.6024 47.0714 61.2142 47.0714C54.826 47.0714 49.2856 41.2223 49.2856 33.5357C49.2856 25.8491 54.826 20 61.2142 20C67.6024 20 73.1428 25.8491 73.1428 33.5357Z" stroke="#2969DA" stroke-width="4"/>
<path d="M75.7485 48.1875C73.458 48.1875 71.5945 46.3795 71.5945 44.1568V36.3009C71.5945 34.4018 72.1211 33.0109 73.1598 32.167C73.2675 32.0795 73.3787 32.0011 73.4917 31.9287C71.0862 31.9287 59.2529 31.9287 51.5175 31.9287L51.586 31.9951C51.3584 32.6041 50.683 34.7116 51.5263 36.3512C51.9706 37.2152 52.761 37.8046 53.8771 38.1046L54.449 38.8366C53.4187 39.6733 49.2058 43.5728 50.8949 50.1681C52.4984 56.4291 57.7572 58.3468 59.4308 58.8056C59.0245 59.2131 58.4538 59.946 58.4409 60.8549C58.4299 61.6165 58.8111 62.337 59.5718 63.0001H74.53C76.6349 63.0001 78.3571 61.3291 78.3571 59.2867V48.1876H75.7485V48.1875Z" fill="#2969DA"/>
<path d="M60.1429 58.667C60.1429 58.667 53.6563 57.4668 51.896 50.1041C50.1356 42.7414 55.3206 38.8826 55.3206 38.8826L54.5825 37.871C50.6439 36.8151 52.5909 31.9292 52.5911 31.9287C49.8824 31.9287 47.6645 31.9287 46.5729 31.9287C44.6078 31.9287 43 33.5998 43 35.6422V59.2867C43 61.3291 44.6078 63.0001 46.5729 63.0001H60.1427C57.4543 60.7716 60.1429 58.667 60.1429 58.667Z" fill="#2969DA"/>
<path d="M74.2777 31.9287H72.6765C71.6604 32.7089 70.8569 34.0791 70.8569 36.4644V44.6141C70.8569 47.0759 72.97 49.0716 75.5768 49.0716H78.3569V35.7812C78.3567 33.6622 76.5212 31.9287 74.2777 31.9287Z" fill="#2969DA"/>
<path d="M60.631 58.5599C54.4492 58.5599 49.4199 53.5306 49.4199 47.3488C49.4199 41.167 54.4492 36.1377 60.631 36.1377C65.9336 36.1377 70.5527 39.903 71.6143 45.0909C71.7716 45.8593 71.2761 46.61 70.5075 46.7671C69.7403 46.9235 68.9885 46.4291 68.8312 45.6603C68.039 41.7886 64.5902 38.9785 60.631 38.9785C56.0156 38.9785 52.2607 42.7335 52.2607 47.3488C52.2607 51.9642 56.0156 55.7191 60.631 55.7191C63.7014 55.7191 66.5211 54.0417 67.9898 51.3415C68.3646 50.6523 69.2277 50.3975 69.9162 50.7725C70.6055 51.1471 70.8601 52.0098 70.4853 52.6989C68.5189 56.314 64.7429 58.5599 60.631 58.5599Z" fill="#A9C8FF"/>
<path d="M70.485 47.6059C70.2988 47.6059 70.1097 47.5691 69.9275 47.4912L65.452 45.5786C64.7306 45.2704 64.3957 44.4355 64.704 43.7143C65.0122 42.9928 65.8469 42.6579 66.5682 42.9663L69.7377 44.3208L71.0922 41.1514C71.4003 40.4298 72.235 40.0948 72.9565 40.4034C73.6781 40.7116 74.0128 41.5464 73.7045 42.2676L71.792 46.7432C71.5613 47.2827 71.0365 47.6059 70.485 47.6059Z" fill="#A9C8FF"/>
<rect x="43" y="70" width="35" height="9" rx="2" fill="#77A8FF"/>
<path d="M47.793 74.198L48.143 74.828L47.233 75.157L48.143 75.486L47.779 76.137L47.023 75.514L47.184 76.48H46.456L46.61 75.514L45.861 76.151L45.476 75.479L46.386 75.15L45.483 74.835L45.84 74.191L46.617 74.807L46.456 73.834H47.191L47.023 74.807L47.793 74.198ZM56.916 74.198L57.266 74.828L56.356 75.157L57.266 75.486L56.902 76.137L56.146 75.514L56.307 76.48H55.579L55.733 75.514L54.984 76.151L54.599 75.479L55.509 75.15L54.606 74.835L54.963 74.191L55.74 74.807L55.579 73.834H56.314L56.146 74.807L56.916 74.198ZM66.0391 74.198L66.3891 74.828L65.4791 75.157L66.3891 75.486L66.0251 76.137L65.2691 75.514L65.4301 76.48H64.7021L64.8561 75.514L64.1071 76.151L63.7221 75.479L64.6321 75.15L63.7291 74.835L64.0861 74.191L64.8631 74.807L64.7021 73.834H65.4371L65.2691 74.807L66.0391 74.198ZM75.1621 74.198L75.5121 74.828L74.6021 75.157L75.5121 75.486L75.1481 76.137L74.3921 75.514L74.5531 76.48H73.8251L73.9791 75.514L73.2301 76.151L72.8451 75.479L73.7551 75.15L72.8521 74.835L73.2091 74.191L73.9861 74.807L73.8251 73.834H74.5601L74.3921 74.807L75.1621 74.198ZM47.793 85.198L48.143 85.828L47.233 86.157L48.143 86.486L47.779 87.137L47.023 86.514L47.184 87.48H46.456L46.61 86.514L45.861 87.151L45.476 86.479L46.386 86.15L45.483 85.835L45.84 85.191L46.617 85.807L46.456 84.834H47.191L47.023 85.807L47.793 85.198Z" fill="#003879"/>
<path d="M81.311 10.666H52.833C51.8206 10.666 51 9.84524 51 8.833C51 7.82056 51.8208 7 52.833 7H81.311C82.3234 7 83.144 7.82075 83.144 8.833C83.144 9.84544 82.3234 10.666 81.311 10.666Z" fill="#ADCAFF"/>
<path d="M91.7855 8.833C91.7855 7.82056 90.9648 7 89.9523 7H87.8901C86.8777 7 86.0571 7.82075 86.0571 8.833C86.0571 9.84544 86.8779 10.666 87.8901 10.666H89.9523C90.965 10.666 91.7855 9.84544 91.7855 8.833Z" fill="#ADCAFF"/>
<path d="M102 100C100.725 97.6 101.469 95 102 94H85C86.4875 96.7 85.6198 99.125 85 100H102Z" fill="#D9E7FF" fill-opacity="0.29"/>
<path d="M98 90H83C81.8954 90 81 90.8954 81 92V92C81 93.1046 81.8954 94 83 94H98V90Z" fill="#D9E7FF" fill-opacity="0.29"/>
<path d="M98 100H76C74.3431 100 73 101.343 73 103V103C73 104.657 74.3431 106 76 106H98V100Z" fill="#D9E7FF" fill-opacity="0.29"/>
<path d="M14 23C15.35 20.6 14.5625 18 14 17H32C30.425 19.7 31.3438 22.125 32 23H14Z" fill="#D9E7FF" fill-opacity="0.29"/>
<path d="M23 13H34C35.1046 13 36 13.8954 36 15V15C36 16.1046 35.1046 17 34 17H23V13Z" fill="#D9E7FF" fill-opacity="0.29"/>
<path d="M23 23H40C41.6569 23 43 24.3431 43 26V26C43 27.6569 41.6569 29 40 29H23V23Z" fill="#D9E7FF" fill-opacity="0.29"/>
<circle cx="60.5" cy="91.5" r="5.5" fill="white"/>
</svg>
