<svg width="110" height="103" viewBox="0 0 110 103" fill="none" xmlns="http://www.w3.org/2000/svg">
<g clip-path="url(#clip0_249_631)">
<path d="M78.6951 6.44572H73.1928C72.7464 5.67577 71.913 5.15679 70.9608 5.15679H63.0971C62.4982 2.21851 59.8937 5.15707 56.7811 5.15707C53.6686 5.15707 51.064 2.21851 50.4653 5.15679H42.6015C41.6493 5.15679 40.8159 5.67577 40.3695 6.44572H34.8672C32.7348 6.44572 31 8.18053 31 10.3129V62.1333C31 64.2655 32.7348 66.0003 34.8672 66.0003H78.6951C80.8275 66.0003 82.5623 64.2655 82.5623 62.1333V10.3129C82.5623 8.18053 80.8275 6.44572 78.6951 6.44572ZM51.6248 7.73491C52.3366 7.73491 52.9138 7.15767 52.9138 6.44585C52.9138 4.31336 54.6487 11.6037 56.7811 11.6037C58.9136 11.6037 60.6486 4.31336 60.6486 6.44585C60.6486 7.15767 61.2258 7.73491 61.9376 7.73491H70.9608V12.891H42.6015L42.6013 7.73491H51.6248ZM79.9842 62.1333C79.9842 62.844 79.4059 63.4222 78.6951 63.4222H34.8672C34.1564 63.4222 33.5781 62.844 33.5781 62.1333V10.3129C33.5781 9.60211 34.1564 9.02383 34.8672 9.02383H40.0234V11.6019H37.4454C36.7336 11.6019 36.1564 12.1792 36.1564 12.891V59.555C36.1564 60.2668 36.7336 60.8441 37.4454 60.8441H50.98C51.6918 60.8441 52.2691 60.2668 52.2691 59.555C52.2691 58.8432 51.6918 58.266 50.98 58.266H38.7345V14.1801H40.3694C40.8158 14.9502 41.6492 15.4691 42.6015 15.4691H70.9608C71.9131 15.4691 72.7465 14.9502 73.1929 14.1801H74.8279V58.266H62.5815C61.8697 58.266 61.2925 58.8432 61.2925 59.555C61.2925 60.2668 61.8697 60.8441 62.5815 60.8441H76.117C76.8288 60.8441 77.4061 60.2668 77.4061 59.555V12.891C77.4061 12.1792 76.8288 11.6019 76.117 11.6019H73.5389V9.02383H78.6951C79.4059 9.02383 79.9842 9.60211 79.9842 10.3129V62.1333Z" fill="#EBEBEB"/>
<path d="M91.5787 14.0331C91.3604 13.5963 90.9141 13.3206 90.4258 13.3206H86.5586C85.8468 13.3206 85.2696 13.8979 85.2696 14.6097C85.2696 15.3215 85.8468 15.8987 86.5586 15.8987H87.8477L85.5274 18.9925C85.2345 19.3831 85.1872 19.9057 85.4057 20.3425C85.624 20.7793 86.0703 21.055 86.5586 21.055H90.4258C91.1376 21.055 91.7149 20.4778 91.7149 19.7659C91.7149 19.0541 91.1376 18.4769 90.4258 18.4769H89.1367L91.4571 15.3831C91.7499 14.9924 91.7972 14.4699 91.5787 14.0331Z" fill="#EBEBEB"/>
<path d="M95.711 6.87508H93.1328L96.7422 2.06262C97.0351 1.67204 97.0824 1.14945 96.8639 0.712587C96.6455 0.275853 96.1993 0.00012207 95.711 0.00012207H90.5547C89.8429 0.00012207 89.2656 0.577364 89.2656 1.28918C89.2656 2.001 89.8429 2.57825 90.5547 2.57825H93.1328L89.5235 7.3907C89.2306 7.78129 89.1833 8.30388 89.4018 8.74061C89.6201 9.17747 90.0664 9.4532 90.5547 9.4532H95.711C96.4228 9.4532 97 8.87596 97 8.16414C97 7.45232 96.4228 6.87508 95.711 6.87508Z" fill="#EBEBEB"/>
<path d="M50.442 30.9768C49.9593 31.4594 49.3176 31.7254 48.6351 31.7254C47.9527 31.7254 47.3111 31.4596 46.8283 30.9768C46.3248 30.4736 45.5089 30.4736 45.0052 30.9768C44.5018 31.4802 44.5018 32.2964 45.0052 32.7999C45.9749 33.7694 47.2639 34.3035 48.635 34.3035C50.0061 34.3035 51.2952 33.7694 52.2648 32.7999C52.7682 32.2965 52.7682 31.4803 52.2648 30.9768C51.7616 30.4736 50.9455 30.4736 50.442 30.9768Z" fill="#EBEBEB"/>
<path d="M64.9273 34.3035C66.2985 34.3035 67.5876 33.7694 68.5572 32.7999C69.0606 32.2965 69.0606 31.4803 68.5572 30.9768C68.0537 30.4736 67.2377 30.4736 66.7341 30.9768C66.2515 31.4594 65.6098 31.7254 64.9272 31.7254C64.2447 31.7254 63.6031 31.4596 63.1203 30.9768C62.6168 30.4736 61.8008 30.4736 61.2972 30.9768C60.7938 31.4802 60.7938 32.2964 61.2972 32.7999C62.2672 33.7694 63.5563 34.3035 64.9273 34.3035Z" fill="#EBEBEB"/>
<path d="M58.6019 39.2679H54.9604C54.2486 39.2679 53.6714 39.8452 53.6714 40.557C53.6714 41.2688 54.2486 41.8461 54.9604 41.8461H58.6019C59.3137 41.8461 59.891 41.2688 59.891 40.557C59.891 39.8452 59.3137 39.2679 58.6019 39.2679Z" fill="#EBEBEB"/>
<path d="M56.7813 58.2657H56.7802C56.0684 58.2657 55.4917 58.8429 55.4917 59.5547C55.4917 60.2666 56.0693 60.8438 56.7813 60.8438C57.4932 60.8438 58.0703 60.2666 58.0703 59.5547C58.0703 58.8429 57.4931 58.2657 56.7813 58.2657Z" fill="#EBEBEB"/>
</g>
<path d="M8.14239 98H6.46239L2.65839 92.252V98H0.978391V89.612H2.65839L6.46239 95.372V89.612H8.14239V98ZM12.7546 98.108C12.1146 98.108 11.5386 97.968 11.0266 97.688C10.5146 97.4 10.1106 96.996 9.81461 96.476C9.52661 95.956 9.38261 95.356 9.38261 94.676C9.38261 93.996 9.53061 93.396 9.82661 92.876C10.1306 92.356 10.5426 91.956 11.0626 91.676C11.5826 91.388 12.1626 91.244 12.8026 91.244C13.4426 91.244 14.0226 91.388 14.5426 91.676C15.0626 91.956 15.4706 92.356 15.7666 92.876C16.0706 93.396 16.2226 93.996 16.2226 94.676C16.2226 95.356 16.0666 95.956 15.7546 96.476C15.4506 96.996 15.0346 97.4 14.5066 97.688C13.9866 97.968 13.4026 98.108 12.7546 98.108ZM12.7546 96.644C13.0586 96.644 13.3426 96.572 13.6066 96.428C13.8786 96.276 14.0946 96.052 14.2546 95.756C14.4146 95.46 14.4946 95.1 14.4946 94.676C14.4946 94.044 14.3266 93.56 13.9906 93.224C13.6626 92.88 13.2586 92.708 12.7786 92.708C12.2986 92.708 11.8946 92.88 11.5666 93.224C11.2466 93.56 11.0866 94.044 11.0866 94.676C11.0866 95.308 11.2426 95.796 11.5546 96.14C11.8746 96.476 12.2746 96.644 12.7546 96.644ZM24.6343 98L22.7863 94.736H21.9943V98H20.3143V89.624H23.4583C24.1063 89.624 24.6583 89.74 25.1143 89.972C25.5703 90.196 25.9103 90.504 26.1343 90.896C26.3663 91.28 26.4823 91.712 26.4823 92.192C26.4823 92.744 26.3223 93.244 26.0023 93.692C25.6823 94.132 25.2063 94.436 24.5743 94.604L26.5783 98H24.6343ZM21.9943 93.476H23.3983C23.8543 93.476 24.1943 93.368 24.4183 93.152C24.6423 92.928 24.7543 92.62 24.7543 92.228C24.7543 91.844 24.6423 91.548 24.4183 91.34C24.1943 91.124 23.8543 91.016 23.3983 91.016H21.9943V93.476ZM34.1818 94.532C34.1818 94.772 34.1658 94.988 34.1338 95.18H29.2738C29.3138 95.66 29.4818 96.036 29.7778 96.308C30.0738 96.58 30.4378 96.716 30.8698 96.716C31.4938 96.716 31.9378 96.448 32.2018 95.912H34.0138C33.8218 96.552 33.4538 97.08 32.9098 97.496C32.3658 97.904 31.6978 98.108 30.9058 98.108C30.2658 98.108 29.6898 97.968 29.1778 97.688C28.6738 97.4 28.2778 96.996 27.9898 96.476C27.7098 95.956 27.5698 95.356 27.5698 94.676C27.5698 93.988 27.7098 93.384 27.9898 92.864C28.2698 92.344 28.6618 91.944 29.1658 91.664C29.6698 91.384 30.2498 91.244 30.9058 91.244C31.5378 91.244 32.1018 91.38 32.5978 91.652C33.1018 91.924 33.4898 92.312 33.7618 92.816C34.0418 93.312 34.1818 93.884 34.1818 94.532ZM32.4418 94.052C32.4338 93.62 32.2778 93.276 31.9738 93.02C31.6698 92.756 31.2978 92.624 30.8578 92.624C30.4418 92.624 30.0898 92.752 29.8018 93.008C29.5218 93.256 29.3498 93.604 29.2858 94.052H32.4418ZM34.9761 94.676C34.9761 93.988 35.1161 93.388 35.3961 92.876C35.6761 92.356 36.0641 91.956 36.5601 91.676C37.0561 91.388 37.6241 91.244 38.2641 91.244C39.0881 91.244 39.7681 91.452 40.3041 91.868C40.8481 92.276 41.2121 92.852 41.3961 93.596H39.5841C39.4881 93.308 39.3241 93.084 39.0921 92.924C38.8681 92.756 38.5881 92.672 38.2521 92.672C37.7721 92.672 37.3921 92.848 37.1121 93.2C36.8321 93.544 36.6921 94.036 36.6921 94.676C36.6921 95.308 36.8321 95.8 37.1121 96.152C37.3921 96.496 37.7721 96.668 38.2521 96.668C38.9321 96.668 39.3761 96.364 39.5841 95.756H41.3961C41.2121 96.476 40.8481 97.048 40.3041 97.472C39.7601 97.896 39.0801 98.108 38.2641 98.108C37.6241 98.108 37.0561 97.968 36.5601 97.688C36.0641 97.4 35.6761 97 35.3961 96.488C35.1161 95.968 34.9761 95.364 34.9761 94.676ZM45.5788 98.108C44.9388 98.108 44.3628 97.968 43.8508 97.688C43.3388 97.4 42.9348 96.996 42.6388 96.476C42.3508 95.956 42.2068 95.356 42.2068 94.676C42.2068 93.996 42.3548 93.396 42.6508 92.876C42.9548 92.356 43.3668 91.956 43.8868 91.676C44.4068 91.388 44.9868 91.244 45.6268 91.244C46.2668 91.244 46.8468 91.388 47.3668 91.676C47.8868 91.956 48.2948 92.356 48.5908 92.876C48.8948 93.396 49.0468 93.996 49.0468 94.676C49.0468 95.356 48.8908 95.956 48.5788 96.476C48.2748 96.996 47.8588 97.4 47.3308 97.688C46.8108 97.968 46.2268 98.108 45.5788 98.108ZM45.5788 96.644C45.8828 96.644 46.1668 96.572 46.4308 96.428C46.7028 96.276 46.9188 96.052 47.0788 95.756C47.2388 95.46 47.3188 95.1 47.3188 94.676C47.3188 94.044 47.1508 93.56 46.8148 93.224C46.4868 92.88 46.0828 92.708 45.6028 92.708C45.1228 92.708 44.7188 92.88 44.3908 93.224C44.0708 93.56 43.9108 94.044 43.9108 94.676C43.9108 95.308 44.0668 95.796 44.3788 96.14C44.6988 96.476 45.0988 96.644 45.5788 96.644ZM51.9592 92.384C52.1752 92.032 52.4552 91.756 52.7992 91.556C53.1512 91.356 53.5512 91.256 53.9992 91.256V93.02H53.5552C53.0272 93.02 52.6272 93.144 52.3552 93.392C52.0912 93.64 51.9592 94.072 51.9592 94.688V98H50.2792V91.352H51.9592V92.384ZM54.6987 94.652C54.6987 93.98 54.8307 93.384 55.0947 92.864C55.3667 92.344 55.7347 91.944 56.1987 91.664C56.6627 91.384 57.1787 91.244 57.7467 91.244C58.1787 91.244 58.5907 91.34 58.9827 91.532C59.3747 91.716 59.6867 91.964 59.9187 92.276V89.12H61.6227V98H59.9187V97.016C59.7107 97.344 59.4187 97.608 59.0427 97.808C58.6667 98.008 58.2307 98.108 57.7347 98.108C57.1747 98.108 56.6627 97.964 56.1987 97.676C55.7347 97.388 55.3667 96.984 55.0947 96.464C54.8307 95.936 54.6987 95.332 54.6987 94.652ZM59.9307 94.676C59.9307 94.268 59.8507 93.92 59.6907 93.632C59.5307 93.336 59.3147 93.112 59.0427 92.96C58.7707 92.8 58.4787 92.72 58.1667 92.72C57.8547 92.72 57.5667 92.796 57.3027 92.948C57.0387 93.1 56.8227 93.324 56.6547 93.62C56.4947 93.908 56.4147 94.252 56.4147 94.652C56.4147 95.052 56.4947 95.404 56.6547 95.708C56.8227 96.004 57.0387 96.232 57.3027 96.392C57.5747 96.552 57.8627 96.632 58.1667 96.632C58.4787 96.632 58.7707 96.556 59.0427 96.404C59.3147 96.244 59.5307 96.02 59.6907 95.732C59.8507 95.436 59.9307 95.084 59.9307 94.676ZM65.8075 98.108C65.2635 98.108 64.7755 98.012 64.3435 97.82C63.9115 97.62 63.5675 97.352 63.3115 97.016C63.0635 96.68 62.9275 96.308 62.9035 95.9H64.5955C64.6275 96.156 64.7515 96.368 64.9675 96.536C65.1915 96.704 65.4675 96.788 65.7955 96.788C66.1155 96.788 66.3635 96.724 66.5395 96.596C66.7235 96.468 66.8155 96.304 66.8155 96.104C66.8155 95.888 66.7035 95.728 66.4795 95.624C66.2635 95.512 65.9155 95.392 65.4355 95.264C64.9395 95.144 64.5315 95.02 64.2115 94.892C63.8995 94.764 63.6275 94.568 63.3955 94.304C63.1715 94.04 63.0595 93.684 63.0595 93.236C63.0595 92.868 63.1635 92.532 63.3715 92.228C63.5875 91.924 63.8915 91.684 64.2835 91.508C64.6835 91.332 65.1515 91.244 65.6875 91.244C66.4795 91.244 67.1115 91.444 67.5835 91.844C68.0555 92.236 68.3155 92.768 68.3635 93.44H66.7555C66.7315 93.176 66.6195 92.968 66.4195 92.816C66.2275 92.656 65.9675 92.576 65.6395 92.576C65.3355 92.576 65.0995 92.632 64.9315 92.744C64.7715 92.856 64.6915 93.012 64.6915 93.212C64.6915 93.436 64.8035 93.608 65.0275 93.728C65.2515 93.84 65.5995 93.956 66.0715 94.076C66.5515 94.196 66.9475 94.32 67.2595 94.448C67.5715 94.576 67.8395 94.776 68.0635 95.048C68.2955 95.312 68.4155 95.664 68.4235 96.104C68.4235 96.488 68.3155 96.832 68.0995 97.136C67.8915 97.44 67.5875 97.68 67.1875 97.856C66.7955 98.024 66.3355 98.108 65.8075 98.108ZM77.834 89.624V90.98H74.342V93.128H77.018V94.46H74.342V98H72.662V89.624H77.834ZM81.9773 98.108C81.3373 98.108 80.7613 97.968 80.2493 97.688C79.7373 97.4 79.3333 96.996 79.0373 96.476C78.7493 95.956 78.6053 95.356 78.6053 94.676C78.6053 93.996 78.7533 93.396 79.0493 92.876C79.3533 92.356 79.7653 91.956 80.2853 91.676C80.8053 91.388 81.3853 91.244 82.0253 91.244C82.6653 91.244 83.2453 91.388 83.7653 91.676C84.2853 91.956 84.6933 92.356 84.9893 92.876C85.2933 93.396 85.4453 93.996 85.4453 94.676C85.4453 95.356 85.2893 95.956 84.9773 96.476C84.6733 96.996 84.2573 97.4 83.7293 97.688C83.2093 97.968 82.6253 98.108 81.9773 98.108ZM81.9773 96.644C82.2813 96.644 82.5653 96.572 82.8293 96.428C83.1013 96.276 83.3173 96.052 83.4773 95.756C83.6373 95.46 83.7173 95.1 83.7173 94.676C83.7173 94.044 83.5493 93.56 83.2133 93.224C82.8853 92.88 82.4813 92.708 82.0013 92.708C81.5213 92.708 81.1173 92.88 80.7893 93.224C80.4693 93.56 80.3093 94.044 80.3093 94.676C80.3093 95.308 80.4653 95.796 80.7773 96.14C81.0973 96.476 81.4973 96.644 81.9773 96.644ZM92.9536 91.352V98H91.2616V97.16C91.0456 97.448 90.7616 97.676 90.4096 97.844C90.0656 98.004 89.6896 98.084 89.2816 98.084C88.7616 98.084 88.3016 97.976 87.9016 97.76C87.5016 97.536 87.1856 97.212 86.9536 96.788C86.7296 96.356 86.6176 95.844 86.6176 95.252V91.352H88.2976V95.012C88.2976 95.54 88.4296 95.948 88.6936 96.236C88.9576 96.516 89.3176 96.656 89.7736 96.656C90.2376 96.656 90.6016 96.516 90.8656 96.236C91.1296 95.948 91.2616 95.54 91.2616 95.012V91.352H92.9536ZM98.2952 91.256C99.0872 91.256 99.7272 91.508 100.215 92.012C100.703 92.508 100.947 93.204 100.947 94.1V98H99.2672V94.328C99.2672 93.8 99.1352 93.396 98.8712 93.116C98.6072 92.828 98.2472 92.684 97.7912 92.684C97.3272 92.684 96.9592 92.828 96.6872 93.116C96.4232 93.396 96.2912 93.8 96.2912 94.328V98H94.6112V91.352H96.2912V92.18C96.5152 91.892 96.7992 91.668 97.1432 91.508C97.4952 91.34 97.8792 91.256 98.2952 91.256ZM102.113 94.652C102.113 93.98 102.245 93.384 102.509 92.864C102.781 92.344 103.149 91.944 103.613 91.664C104.077 91.384 104.593 91.244 105.161 91.244C105.593 91.244 106.005 91.34 106.397 91.532C106.789 91.716 107.101 91.964 107.333 92.276V89.12H109.037V98H107.333V97.016C107.125 97.344 106.833 97.608 106.457 97.808C106.081 98.008 105.645 98.108 105.149 98.108C104.589 98.108 104.077 97.964 103.613 97.676C103.149 97.388 102.781 96.984 102.509 96.464C102.245 95.936 102.113 95.332 102.113 94.652ZM107.345 94.676C107.345 94.268 107.265 93.92 107.105 93.632C106.945 93.336 106.729 93.112 106.457 92.96C106.185 92.8 105.893 92.72 105.581 92.72C105.269 92.72 104.981 92.796 104.717 92.948C104.453 93.1 104.237 93.324 104.069 93.62C103.909 93.908 103.829 94.252 103.829 94.652C103.829 95.052 103.909 95.404 104.069 95.708C104.237 96.004 104.453 96.232 104.717 96.392C104.989 96.552 105.277 96.632 105.581 96.632C105.893 96.632 106.185 96.556 106.457 96.404C106.729 96.244 106.945 96.02 107.105 95.732C107.265 95.436 107.345 95.084 107.345 94.676Z" fill="#B1B1B1"/>
<defs>
<clipPath id="clip0_249_631">
<rect width="66" height="66" fill="white" transform="translate(31)"/>
</clipPath>
</defs>
</svg>
