<svg width="142" height="118" viewBox="0 0 142 118" fill="none" xmlns="http://www.w3.org/2000/svg">
<path d="M27.3955 27.07C30.856 22.4561 28.8374 17.4576 27.3955 15.5352H73.535C69.4978 20.7259 71.8529 25.3879 73.535 27.07H27.3955Z" fill="#77A8FF"/>
<path d="M14.4185 80.4185C22.0964 72.344 17.6176 63.5968 14.4185 60.2324H116.791C107.833 69.3161 113.058 77.4747 116.791 80.4185H14.4185Z" fill="#77A8FF"/>
<rect x="20.186" y="5.44189" width="60.5581" height="11.5349" rx="5.76744" fill="#77A8FF"/>
<rect x="11.5347" y="25.6279" width="105.256" height="11.5349" rx="5.76744" fill="#77A8FF"/>
<rect x="7.20947" y="48.6978" width="113.907" height="11.5349" rx="5.76744" fill="#77A8FF"/>
<rect x="7.20947" y="80.4185" width="113.907" height="11.5349" rx="5.76744" fill="#77A8FF"/>
<circle cx="7.2093" cy="11.2093" r="7.2093" fill="#0C64FF"/>
<circle cx="12.256" cy="111.419" r="6.48837" fill="#0C64FF"/>
<path d="M89.8919 0H31.1081C26.636 0 23 3.65156 23 8.14286V105.857C23 110.348 26.636 114 31.1081 114H89.8919C94.364 114 98 110.348 98 105.857V8.14286C98 3.65156 94.364 0 89.8919 0ZM60.5 96.9509C57.7002 96.9509 55.4324 94.6734 55.4324 91.8616C55.4324 89.0498 57.7002 86.7723 60.5 86.7723C63.2998 86.7723 65.5676 89.0498 65.5676 91.8616C65.5676 94.6734 63.2998 96.9509 60.5 96.9509Z" fill="#003879"/>
<g filter="url(#filter0_d_1836_4356)">
<path d="M128.2 12H49.8C44.3953 12 40 14.5926 40 17.7768V52.6232C40 55.8074 44.3953 58.4 49.8 58.4H64.5V70L95.6199 58.4H128.2C133.605 58.4 138 55.8074 138 52.6232V17.7768C137.992 16.2421 136.956 14.7719 135.119 13.6889C133.281 12.6059 130.793 11.9985 128.2 12Z" fill="#2969DA"/>
</g>
<rect x="69" y="19" width="61" height="2" rx="1" fill="#77A8FF"/>
<rect x="69" y="25" width="65" height="2" rx="1" fill="#77A8FF"/>
<rect x="69" y="31" width="57" height="2" rx="1" fill="#77A8FF"/>
<rect x="69" y="36" width="57" height="14" rx="2" fill="#77A8FF"/>
<path d="M62.8786 30.4198H51.1934V26.6546C51.1934 24.707 52.4918 23.0192 54.3095 22.6297C56.7763 22.2402 58.9835 24.0579 58.9835 26.5247C58.9835 27.3037 59.6327 27.8231 60.2819 27.8231C60.931 27.8231 61.5802 27.3037 61.5802 26.5247C61.5802 22.7595 58.3343 19.6435 54.4393 20.033C51.0636 20.4225 48.5967 23.4087 48.5967 26.7844V30.4198H47.2984C46.6492 30.4198 46 30.9391 46 31.7181V44.7016C46 45.3508 46.6492 46 47.2984 46H62.8786C63.6576 46 64.1769 45.3508 64.1769 44.7016V31.7181C64.1769 30.9391 63.6576 30.4198 62.8786 30.4198ZM56.3868 39.1187V40.8066C56.3868 41.5856 55.8675 42.1049 55.0885 42.1049C54.3095 42.1049 53.7901 41.5856 53.7901 40.8066V39.1187C53.0111 38.5994 52.4918 37.8204 52.4918 36.9115C52.4918 35.2237 54.0498 34.0552 55.7376 34.4447C56.6465 34.7043 57.4255 35.4834 57.6852 36.3922C57.9448 37.5607 57.2957 38.5994 56.3868 39.1187Z" fill="#77A8FF"/>
<path d="M76.389 41.454L76.939 42.444L75.509 42.961L76.939 43.478L76.367 44.501L75.179 43.522L75.432 45.04H74.288L74.53 43.522L73.353 44.523L72.748 43.467L74.178 42.95L72.759 42.455L73.32 41.443L74.541 42.411L74.288 40.882H75.443L75.179 42.411L76.389 41.454ZM87.5824 41.454L88.1324 42.444L86.7024 42.961L88.1324 43.478L87.5604 44.501L86.3724 43.522L86.6254 45.04H85.4814L85.7234 43.522L84.5464 44.523L83.9414 43.467L85.3714 42.95L83.9524 42.455L84.5134 41.443L85.7344 42.411L85.4814 40.882H86.6364L86.3724 42.411L87.5824 41.454ZM98.7757 41.454L99.3257 42.444L97.8957 42.961L99.3257 43.478L98.7537 44.501L97.5657 43.522L97.8187 45.04H96.6747L96.9167 43.522L95.7397 44.523L95.1347 43.467L96.5647 42.95L95.1457 42.455L95.7067 41.443L96.9277 42.411L96.6747 40.882H97.8297L97.5657 42.411L98.7757 41.454ZM109.969 41.454L110.519 42.444L109.089 42.961L110.519 43.478L109.947 44.501L108.759 43.522L109.012 45.04H107.868L108.11 43.522L106.933 44.523L106.328 43.467L107.758 42.95L106.339 42.455L106.9 41.443L108.121 42.411L107.868 40.882H109.023L108.759 42.411L109.969 41.454ZM121.162 41.454L121.712 42.444L120.282 42.961L121.712 43.478L121.14 44.501L119.952 43.522L120.205 45.04H119.061L119.303 43.522L118.126 44.523L117.521 43.467L118.951 42.95L117.532 42.455L118.093 41.443L119.314 42.411L119.061 40.882H120.216L119.952 42.411L121.162 41.454Z" fill="#003879"/>
<path d="M104.279 99.0931C102.982 96.7861 103.739 94.2869 104.279 93.3257H86.977C88.4909 95.921 87.6078 98.252 86.977 99.0931H104.279Z" fill="#D9E7FF" fill-opacity="0.22"/>
<rect width="20.186" height="4.32558" rx="2.16279" transform="matrix(-1 0 0 1 102.837 89)" fill="#D9E7FF" fill-opacity="0.22"/>
<rect width="31.7209" height="5.76744" rx="2.88372" transform="matrix(-1 0 0 1 105.721 99.0928)" fill="#D9E7FF" fill-opacity="0.22"/>
<path d="M16.9873 24.9112C17.8759 23.3315 17.3575 21.6201 16.9873 20.9619H28.8351C27.7984 22.7391 28.4031 24.3352 28.8351 24.9112H16.9873Z" fill="#D9E7FF" fill-opacity="0.22"/>
<rect x="17.9746" y="18" width="13.8224" height="2.96194" rx="1.48097" fill="#D9E7FF" fill-opacity="0.22"/>
<rect x="16" y="24.9111" width="21.7209" height="3.94926" rx="1.97463" fill="#D9E7FF" fill-opacity="0.22"/>
<circle cx="60.5" cy="91.5" r="5.5" fill="white"/>
<defs>
<filter id="filter0_d_1836_4356" x="36" y="12" width="106" height="66" filterUnits="userSpaceOnUse" color-interpolation-filters="sRGB">
<feFlood flood-opacity="0" result="BackgroundImageFix"/>
<feColorMatrix in="SourceAlpha" type="matrix" values="0 0 0 0 0 0 0 0 0 0 0 0 0 0 0 0 0 0 127 0" result="hardAlpha"/>
<feOffset dy="4"/>
<feGaussianBlur stdDeviation="2"/>
<feComposite in2="hardAlpha" operator="out"/>
<feColorMatrix type="matrix" values="0 0 0 0 0 0 0 0 0 0 0 0 0 0 0 0 0 0 0.25 0"/>
<feBlend mode="normal" in2="BackgroundImageFix" result="effect1_dropShadow_1836_4356"/>
<feBlend mode="normal" in="SourceGraphic" in2="effect1_dropShadow_1836_4356" result="shape"/>
</filter>
</defs>
</svg>
