<svg width="19" height="19" viewBox="0 0 19 19" fill="none" xmlns="http://www.w3.org/2000/svg">
<path d="M3.52383 15.4522V13.0206H4.40002L2.34122 9.98364L0.282471 13.0206H1.15866V15.4523C1.15866 17.4116 2.74702 19 4.70639 19H7.85991V16.6349H4.70639C4.05327 16.6348 3.52383 16.1054 3.52383 15.4522Z" fill="white"/>
<path d="M8.69871 12.2322C9.03225 11.9897 9.39046 11.7836 9.7705 11.6158C9.30073 10.9404 9.04739 10.1386 9.04739 9.30032V7.17904C9.04739 7.09172 9.05043 7.00489 9.05596 6.91849C8.97439 6.88176 8.89119 6.84806 8.80651 6.81741C8.18274 7.37828 7.35828 7.72013 6.45537 7.72013C6.44661 7.72013 6.43767 7.72009 6.42887 7.72002C5.56478 7.7136 4.75031 7.39427 4.11143 6.81641C3.4219 7.06508 2.83179 7.52145 2.41602 8.10978L5.21065 12.2321H8.69871V12.2322Z" fill="white"/>
<path d="M15.5317 12.4904C14.8284 13.0447 13.9654 13.3455 13.0562 13.3455C13.0461 13.3455 13.0358 13.3455 13.0259 13.3454C12.1318 13.3387 11.2841 13.0376 10.5908 12.4886C9.18423 12.9726 8.07815 14.1013 7.62427 15.5216H8.97323V19H18.7175V16.9625C18.7175 14.8909 17.3857 13.1306 15.5317 12.4904Z" fill="white"/>
<circle cx="6.33325" cy="4.75" r="2.375" fill="white"/>
<circle cx="13.0626" cy="9.89583" r="2.77083" fill="white"/>
</svg>
