<svg width="148" height="141" viewBox="0 0 148 141" fill="none" xmlns="http://www.w3.org/2000/svg">
<path d="M12.1914 103.022C21.9469 92.7865 16.2562 81.6983 12.1914 77.4336H142.265C130.884 88.9483 137.523 99.2902 142.265 103.022H12.1914Z" fill="#77A8FF"/>
<rect x="18.5884" y="8.13232" width="77.8309" height="13.8603" rx="6.93015" fill="#77A8FF"/>
<rect x="7.92676" y="33.7207" width="134.338" height="14.9265" rx="7.46324" fill="#77A8FF"/>
<rect x="2.5957" y="62.5073" width="145" height="14.9265" rx="7.46324" fill="#77A8FF"/>
<rect x="2.5957" y="103.022" width="145" height="14.9265" rx="7.46324" fill="#77A8FF"/>
<path d="M138.733 28.2002C140.463 28.2002 141.867 29.6039 141.867 31.3335C141.867 33.0631 140.463 34.4669 138.733 34.4669C137.004 34.4669 135.6 33.0631 135.6 31.3335C135.6 29.6039 137.004 28.2002 138.733 28.2002Z" fill="#2969DA"/>
<path d="M138.733 109.667C140.463 109.667 141.867 111.07 141.867 112.8C141.867 114.529 140.463 115.933 138.733 115.933C137.004 115.933 135.6 114.529 135.6 112.8C135.6 111.07 137.004 109.667 138.733 109.667Z" fill="#2969DA"/>
<path d="M123.066 128.467C126.529 128.467 129.333 131.271 129.333 134.733C129.333 138.196 126.529 141 123.066 141C119.604 141 116.8 138.196 116.8 134.733C116.8 131.271 119.604 128.467 123.066 128.467Z" fill="#28347E"/>
<path d="M116.8 0C118.529 0 119.933 1.40373 119.933 3.13333C119.933 4.86293 118.529 6.26667 116.8 6.26667C115.07 6.26667 113.667 4.86293 113.667 3.13333C113.667 1.40373 115.07 0 116.8 0Z" fill="#2969DA"/>
<path d="M72.9333 9.3999C38.3225 9.3999 10.2666 37.4558 10.2666 72.0666C10.2666 106.677 38.3225 134.733 72.9333 134.733C107.544 134.733 135.6 106.677 135.6 72.0666C135.6 37.4558 107.544 9.3999 72.9333 9.3999Z" fill="#28347E"/>
<path d="M72.9336 119.066C46.9771 119.066 25.9336 98.0229 25.9336 72.0664C25.9336 46.1099 46.9771 25.0664 72.9336 25.0664C98.8901 25.0664 119.934 46.1099 119.934 72.0664C119.934 98.0229 98.8901 119.066 72.9336 119.066Z" fill="#F6FCFF"/>
<path d="M96.2294 57.2521C98.6768 59.6993 98.6768 63.6661 96.2294 66.1132L74.0736 88.2721L65.2125 97.1332L56.3483 88.2721L49.7025 81.6232C48.4808 80.4012 47.8667 78.7969 47.8667 77.1927C47.8667 75.5884 48.4808 73.9841 49.7025 72.7618C52.15 70.3147 56.1168 70.3147 58.5636 72.7618L65.2125 79.4076L87.3686 57.2521C88.5938 56.0301 90.1949 55.416 91.7992 55.416C93.4034 55.416 95.0046 56.0301 96.2294 57.2521Z" fill="#2969DA"/>
<path d="M25.9331 134.733C27.6627 134.733 29.0665 136.137 29.0665 137.867C29.0665 139.596 27.6627 141 25.9331 141C24.2032 141 22.7998 139.596 22.7998 137.867C22.7998 136.137 24.2032 134.733 25.9331 134.733Z" fill="#2969DA"/>
<path d="M18.0999 6.2666C22.4271 6.2666 25.9333 9.7728 25.9333 14.0999C25.9333 18.4271 22.4271 21.9333 18.0999 21.9333C13.7725 21.9333 10.2666 18.4271 10.2666 14.0999C10.2666 9.7728 13.7725 6.2666 18.0999 6.2666Z" fill="#28347E"/>
<path d="M7.13333 31.3335C8.86293 31.3335 10.2667 32.7372 10.2667 34.4668C10.2667 36.1964 8.86293 37.6002 7.13333 37.6002C5.40342 37.6002 4 36.1964 4 34.4668C4 32.7372 5.40342 31.3335 7.13333 31.3335Z" fill="#2969DA"/>
<path d="M7.13333 109.667C8.86293 109.667 10.2667 111.07 10.2667 112.8C10.2667 114.529 8.86293 115.933 7.13333 115.933C5.40342 115.933 4 114.529 4 112.8C4 111.07 5.40342 109.667 7.13333 109.667Z" fill="#2969DA"/>
<path d="M110.534 72.0664C110.534 70.3359 109.131 68.9331 107.4 68.9331C105.67 68.9331 104.267 70.3359 104.267 72.0664C104.267 89.344 90.2111 103.4 72.9336 103.4C71.2031 103.4 69.8003 104.803 69.8003 106.533V118.96C70.8362 119.028 71.8805 119.066 72.9336 119.066C73.9867 119.066 75.0308 119.028 76.067 118.96V109.537C95.3388 107.939 110.534 91.7438 110.534 72.0664Z" fill="#77A8FF"/>
<path d="M35.3335 72.0664C35.3335 73.7966 36.7363 75.1997 38.4668 75.1997C40.1971 75.1997 41.6002 73.7966 41.6002 72.0664C41.6002 54.7892 55.656 40.7331 72.9335 40.7331C74.6637 40.7331 76.0668 39.3303 76.0668 37.5997V25.1729C75.0306 25.1046 73.9866 25.0664 72.9335 25.0664C71.8804 25.0664 70.836 25.1046 69.8002 25.1729V34.5958C50.5283 36.1935 35.3335 52.3891 35.3335 72.0664Z" fill="#77A8FF"/>
<path d="M0 46C1.8 43.2 0.75 40.1667 0 39H24C21.9 42.15 23.125 44.9792 24 46H0Z" fill="#C8FAF5" fill-opacity="0.28"/>
<rect x="17" y="34" width="12" height="5" rx="2.5" fill="#C8FAF5" fill-opacity="0.28"/>
<rect x="12" y="46" width="25" height="7" rx="3.5" fill="#C8FAF5" fill-opacity="0.28"/>
<path d="M123 127C121.05 123.4 122.188 119.5 123 118H97C99.275 122.05 97.9479 125.688 97 127H123Z" fill="#C8FAF5" fill-opacity="0.28"/>
<rect width="27" height="5" rx="2.5" transform="matrix(-1 0 0 1 118 113)" fill="#C8FAF5" fill-opacity="0.28"/>
<rect width="28" height="6" rx="3" transform="matrix(-1 0 0 1 108 127)" fill="#C8FAF5" fill-opacity="0.28"/>
</svg>
