<svg width="24" height="17" viewBox="0 0 24 17" fill="none" xmlns="http://www.w3.org/2000/svg">
<path d="M24 3.90985V2.63797C24 1.18106 22.8247 0 21.375 0H2.625C1.17525 0 0 1.18106 0 2.63797V3.90985C0 4.03991 0.104953 4.14538 0.234375 4.14538H23.7656C23.895 4.14538 24 4.03991 24 3.90985Z" fill="#B1B1B1"/>
<path d="M0 5.51312V13.5683C0 15.0253 1.17525 16.2063 2.625 16.2063H21.375C22.8247 16.2063 24 15.0253 24 13.5683V5.51312C24 5.38306 23.895 5.27759 23.7656 5.27759H0.234375C0.104953 5.27759 0 5.38306 0 5.51312ZM6 11.6841C6 12.1003 5.66419 12.4378 5.25 12.4378H4.5C4.08581 12.4378 3.75 12.1003 3.75 11.6841V10.9304C3.75 10.5141 4.08581 10.1767 4.5 10.1767H5.25C5.66419 10.1767 6 10.5141 6 10.9304V11.6841Z" fill="#B1B1B1"/>
</svg>
