<svg width="16" height="16" viewBox="0 0 16 16" fill="none" xmlns="http://www.w3.org/2000/svg">
<g clip-path="url(#clip0_196_406)">
<path fill-rule="evenodd" clip-rule="evenodd" d="M8.00008 0.666687C3.95008 0.666687 0.666748 3.95002 0.666748 8.00002C0.666748 12.05 3.95008 15.3334 8.00008 15.3334C12.0501 15.3334 15.3334 12.05 15.3334 8.00002C15.3334 3.95002 12.0501 0.666687 8.00008 0.666687ZM8.66675 10.6667C8.66675 10.8435 8.59651 11.0131 8.47149 11.1381C8.34646 11.2631 8.17689 11.3334 8.00008 11.3334C7.82327 11.3334 7.6537 11.2631 7.52868 11.1381C7.40365 11.0131 7.33342 10.8435 7.33342 10.6667V8.66669H5.33342C5.1566 8.66669 4.98703 8.59645 4.86201 8.47143C4.73699 8.3464 4.66675 8.17683 4.66675 8.00002C4.66675 7.82321 4.73699 7.65364 4.86201 7.52862C4.98703 7.40359 5.1566 7.33335 5.33342 7.33335H7.33342V5.33335C7.33342 5.15654 7.40365 4.98697 7.52868 4.86195C7.6537 4.73693 7.82327 4.66669 8.00008 4.66669C8.17689 4.66669 8.34646 4.73693 8.47149 4.86195C8.59651 4.98697 8.66675 5.15654 8.66675 5.33335V7.33335H10.6667C10.8436 7.33335 11.0131 7.40359 11.1382 7.52862C11.2632 7.65364 11.3334 7.82321 11.3334 8.00002C11.3334 8.17683 11.2632 8.3464 11.1382 8.47143C11.0131 8.59645 10.8436 8.66669 10.6667 8.66669H8.66675V10.6667Z" fill="#D1D1D1"/>
</g>
<defs>
<clipPath id="clip0_196_406">
<rect width="16" height="16" fill="white"/>
</clipPath>
</defs>
</svg>
