<svg width="20" height="20" viewBox="0 0 20 20" fill="none" xmlns="http://www.w3.org/2000/svg">
<path d="M10 0C4.47734 0 0 4.47734 0 10C0 15.5227 4.47734 20 10 20C15.5227 20 20 15.5227 20 10C20 4.47734 15.5227 0 10 0Z" fill="#F1CC1B"/>
<path d="M9.99551 16.7861C9.6741 16.7861 9.35991 16.6908 9.09265 16.5122C8.82539 16.3337 8.61706 16.0799 8.49399 15.783C8.37092 15.4861 8.33865 15.1594 8.40124 14.8441C8.46382 14.5289 8.61847 14.2393 8.84563 14.0119C9.07279 13.7845 9.36226 13.6296 9.67745 13.5667C9.99264 13.5038 10.3194 13.5358 10.6164 13.6586C10.9135 13.7813 11.1674 13.9894 11.3462 14.2565C11.525 14.5236 11.6206 14.8377 11.6209 15.1591C11.6211 15.3727 11.5792 15.5842 11.4976 15.7816C11.416 15.979 11.2963 16.1583 11.1454 16.3094C10.9944 16.4605 10.8152 16.5804 10.6179 16.6622C10.4206 16.744 10.2091 16.7861 9.99551 16.7861V16.7861ZM11.5709 11.1884C11.5436 11.4396 11.4301 11.6735 11.2498 11.8505C11.0671 12.0288 10.8295 12.1399 10.5756 12.1657H10.5682C10.4089 12.184 10.2488 12.1931 10.0885 12.1931C9.89633 12.1941 9.70427 12.1849 9.51309 12.1657H9.50527C9.25151 12.1398 9.014 12.0287 8.83144 11.8505C8.65115 11.6735 8.5377 11.4396 8.51035 11.1884C8.47129 10.8216 8.45176 8.27434 8.45176 7.70676C8.45176 7.13918 8.47168 4.58527 8.51035 4.21848C8.53726 3.96662 8.65075 3.73191 8.83144 3.55441C9.01416 3.37648 9.25158 3.26541 9.50527 3.23918H9.51309C9.70425 3.22008 9.8965 3.21421 10.0885 3.2216C10.2485 3.2142 10.4088 3.22008 10.5678 3.23918H10.5756C10.8298 3.26618 11.0674 3.37838 11.2498 3.55754C11.4305 3.73504 11.544 3.96974 11.5709 4.2216C11.61 4.5884 11.6295 7.14269 11.6295 7.70988C11.6295 8.27707 11.6096 10.8232 11.5709 11.1884Z" fill="white"/>
</svg>
