<svg width="64" height="64" viewBox="0 0 64 64" fill="none" xmlns="http://www.w3.org/2000/svg">
<path d="M32 64C49.6731 64 64 49.6731 64 32C64 14.3269 49.6731 0 32 0C14.3269 0 0 14.3269 0 32C0 49.6731 14.3269 64 32 64Z" fill="url(#paint0_linear_863_2427)"/>
<path d="M41.375 20.75C41.375 15.5806 37.1694 11.375 32 11.375C26.8306 11.375 22.625 15.5806 22.625 20.75C22.625 25.9194 26.8306 30.125 32 30.125C37.1694 30.125 41.375 25.9194 41.375 20.75ZM32 30.125C22.6951 30.125 15.125 37.6951 15.125 47V48.7573C15.125 49.2903 15.3517 49.798 15.7487 50.1536C20.316 54.2461 26.0875 56.5 32 56.5C37.9126 56.5 43.6841 54.2461 48.2513 50.1536C48.6483 49.798 48.875 49.2901 48.875 48.7573V47C48.875 37.6951 41.3049 30.125 32 30.125Z" fill="#2A6DE6"/>
<defs>
<linearGradient id="paint0_linear_863_2427" x1="32" y1="64" x2="32" y2="0" gradientUnits="userSpaceOnUse">
<stop stop-color="white"/>
<stop offset="1" stop-color="white"/>
</linearGradient>
</defs>
</svg>
