<svg width="16" height="16" viewBox="0 0 16 16" fill="none" xmlns="http://www.w3.org/2000/svg">
<g clip-path="url(#clip0_272_823)">
<path d="M15.8023 0.864564C15.6705 0.732778 15.5142 0.666666 15.3336 0.666666C15.153 0.666666 14.9969 0.732778 14.8648 0.864564L13.5107 2.20851C12.7677 1.50704 11.9169 0.963513 10.9586 0.578188C10.0005 0.192827 9.01406 0.000183105 8.00013 0.000183105C6.09033 0.000183105 4.42374 0.578225 3.00007 1.73456C1.57636 2.89076 0.6389 4.39929 0.1875 6.26053V6.33339C0.1875 6.42366 0.220447 6.50185 0.286449 6.56774C0.352451 6.63374 0.430531 6.66669 0.520796 6.66669H2.59369C2.74653 6.66669 2.85062 6.58679 2.90623 6.42716C3.19786 5.73277 3.38182 5.32654 3.45829 5.20843C3.94435 4.41677 4.59018 3.7952 5.39579 3.3438C6.20146 2.89243 7.06949 2.66666 7.99998 2.66666C9.39596 2.66666 10.6077 3.1424 11.6356 4.0938L10.1978 5.53122C10.0662 5.66319 10.0001 5.81953 10.0001 6.0001C10.0001 6.18063 10.0662 6.3369 10.1978 6.46883C10.33 6.6008 10.4863 6.66673 10.6668 6.66673H15.3336C15.5141 6.66673 15.6704 6.6008 15.8023 6.46883C15.9341 6.3369 16.0001 6.18066 16.0001 6.0001V1.33333C16.0001 1.15276 15.9345 0.996569 15.8023 0.864564Z" fill="#B1B1B1"/>
<path d="M15.4062 9.33351H13.4062C13.2534 9.33351 13.1492 9.4133 13.0938 9.57307C12.8023 10.2675 12.6181 10.6736 12.5418 10.7917C12.0556 11.5832 11.4097 12.205 10.6043 12.6563C9.79861 13.1078 8.93058 13.3334 8.00006 13.3334C7.32649 13.3334 6.67712 13.2085 6.0522 12.9585C5.4272 12.7083 4.86809 12.3541 4.3751 11.8957L5.80223 10.4687C5.93413 10.3369 6.00013 10.1804 6.00013 9.99995C6.00013 9.81942 5.93413 9.66297 5.80223 9.53122C5.67027 9.39914 5.51407 9.33307 5.3335 9.33307H0.666738C0.486061 9.33307 0.329793 9.39914 0.197861 9.53122C0.0659295 9.66301 0 9.81946 0 9.99999V14.6668C0 14.8472 0.0659295 15.0036 0.197898 15.1355C0.329939 15.2672 0.486207 15.3335 0.666775 15.3335C0.847305 15.3335 1.0035 15.2672 1.13551 15.1355L2.47923 13.7916C3.22234 14.4998 4.06789 15.0451 5.01582 15.427C5.96376 15.8091 6.94467 15.9999 7.9585 15.9999C9.86141 15.9999 11.5211 15.4218 12.9377 14.2656C14.3544 13.1094 15.285 11.6006 15.7296 9.73952C15.7366 9.72565 15.7399 9.70132 15.7399 9.66673C15.7399 9.57632 15.7068 9.49846 15.6408 9.43224C15.5748 9.3666 15.4966 9.33351 15.4062 9.33351Z" fill="#B1B1B1"/>
</g>
<defs>
<clipPath id="clip0_272_823">
<rect width="16" height="16" fill="white"/>
</clipPath>
</defs>
</svg>
