<svg width="24" height="24" viewBox="0 0 24 24" fill="none" xmlns="http://www.w3.org/2000/svg">
<g clip-path="url(#clip0_399_2086)">
<path d="M23.7035 1.29657C23.5057 1.09889 23.2712 0.999724 23.0003 0.999724C22.7295 0.999724 22.4954 1.09889 22.2972 1.29657L20.2661 3.31249C19.1516 2.26028 17.8753 1.44499 16.438 0.867008C15.0007 0.288966 13.5211 0 12.0002 0C9.13549 0 6.6356 0.867063 4.5001 2.60157C2.36454 4.33586 0.95835 6.59866 0.28125 9.39052V9.49981C0.28125 9.63521 0.33067 9.7525 0.429673 9.85133C0.528677 9.95034 0.645796 9.99976 0.781194 9.99976H3.89053C4.11979 9.99976 4.27593 9.8799 4.35934 9.64047C4.79678 8.59888 5.07272 7.98953 5.18743 7.81237C5.91653 6.62488 6.88527 5.69252 8.09368 5.01542C9.30219 4.33838 10.6042 3.99972 12 3.99972C14.0939 3.99972 15.9116 4.71332 17.4534 6.14042L15.2968 8.29656C15.0994 8.49451 15.0001 8.72902 15.0001 8.99987C15.0001 9.27067 15.0993 9.50507 15.2968 9.70297C15.4949 9.90092 15.7294 9.99981 16.0002 9.99981H23.0003C23.2712 9.99981 23.5056 9.90092 23.7035 9.70297C23.9012 9.50507 24.0001 9.27072 24.0001 8.99987V1.99972C24.0001 1.72887 23.9018 1.49458 23.7035 1.29657Z" fill="#B1B1B1"/>
<path d="M23.1092 14.0002H20.1092C19.88 14.0002 19.7238 14.1199 19.6407 14.3595C19.2034 15.4012 18.9271 16.0103 18.8127 16.1874C18.0834 17.3747 17.1146 18.3074 15.9065 18.9844C14.6979 19.6617 13.3959 19.9999 12.0001 19.9999C10.9897 19.9999 10.0157 19.8126 9.0783 19.4377C8.1408 19.0624 7.30214 18.531 6.56265 17.8435L8.70335 15.7029C8.9012 15.5052 9.0002 15.2705 9.0002 14.9998C9.0002 14.729 8.9012 14.4944 8.70335 14.2967C8.5054 14.0986 8.27111 13.9995 8.00026 13.9995H1.00011C0.729092 13.9995 0.49469 14.0986 0.296792 14.2967C0.0988943 14.4944 0 14.7291 0 14.9999V22C0 22.2707 0.0988942 22.5053 0.296847 22.7031C0.494909 22.9007 0.729311 23.0002 1.00016 23.0002C1.27096 23.0002 1.50525 22.9008 1.70326 22.7031L3.71885 20.6873C4.8335 21.7496 6.10184 22.5675 7.52374 23.1404C8.94563 23.7135 10.417 23.9997 11.9377 23.9997C14.7921 23.9997 17.2816 23.1325 19.4066 21.3982C21.5316 19.664 22.9274 17.4008 23.5944 14.6092C23.6049 14.5884 23.6098 14.5519 23.6098 14.5C23.6098 14.3644 23.5601 14.2476 23.4612 14.1483C23.3621 14.0498 23.2449 14.0002 23.1092 14.0002Z" fill="#B1B1B1"/>
</g>
<defs>
<clipPath id="clip0_399_2086">
<rect width="24" height="24" fill="white"/>
</clipPath>
</defs>
</svg>
