<svg width="22" height="26" viewBox="0 0 22 26" fill="none" xmlns="http://www.w3.org/2000/svg">
<path d="M21.4231 4.36622C21.38 4.05525 21.1574 3.79946 20.8564 3.71539L11.2104 1.01957C11.0729 0.981107 10.9277 0.981107 10.79 1.01957L1.14402 3.71539C0.843054 3.79946 0.620413 4.05515 0.577329 4.36622C0.521381 4.77051 -0.754959 14.3229 2.51877 19.075C5.78862 23.8213 10.6124 25.0377 10.8161 25.0872C10.8766 25.1019 10.9383 25.1091 11.0002 25.1091C11.0621 25.1091 11.1238 25.1018 11.1844 25.0872C11.3882 25.0377 16.2119 23.8213 19.4817 19.075C22.7554 14.323 21.4791 4.77061 21.4231 4.36622ZM17.2207 9.94302L10.6411 16.5551C10.488 16.7089 10.2872 16.786 10.0866 16.786C9.88588 16.786 9.68509 16.709 9.532 16.5551L5.46392 12.4669C5.31678 12.3191 5.23417 12.1186 5.23417 11.9096C5.23417 11.7006 5.31688 11.5001 5.46392 11.3523L6.27166 10.5406C6.57796 10.2329 7.07458 10.2328 7.38078 10.5406L10.0866 13.2597L15.3038 8.01658C15.4508 7.86872 15.6504 7.7857 15.8584 7.7857C16.0664 7.7857 16.2659 7.86872 16.4129 8.01658L17.2207 8.82831C17.527 9.13613 17.527 9.63521 17.2207 9.94302Z" fill="#B1B1B1"/>
</svg>
