<svg width="20" height="20" viewBox="0 0 20 20" fill="none" xmlns="http://www.w3.org/2000/svg">
<circle cx="10" cy="10" r="10" fill="#FF7272"/>
<path d="M10.1525 14.084C9.56852 14.084 9.04052 13.984 8.56852 13.784C8.10452 13.584 7.73652 13.296 7.46452 12.92C7.19252 12.544 7.05252 12.1 7.04452 11.588H8.84452C8.86852 11.932 8.98852 12.204 9.20452 12.404C9.42852 12.604 9.73252 12.704 10.1165 12.704C10.5085 12.704 10.8165 12.612 11.0405 12.428C11.2645 12.236 11.3765 11.988 11.3765 11.684C11.3765 11.436 11.3005 11.232 11.1485 11.072C10.9965 10.912 10.8045 10.788 10.5725 10.7C10.3485 10.604 10.0365 10.5 9.63652 10.388C9.09252 10.228 8.64852 10.072 8.30452 9.92C7.96852 9.76 7.67652 9.524 7.42852 9.212C7.18852 8.892 7.06852 8.468 7.06852 7.94C7.06852 7.444 7.19252 7.012 7.44052 6.644C7.68852 6.276 8.03652 5.996 8.48452 5.804C8.93252 5.604 9.44452 5.504 10.0205 5.504C10.8845 5.504 11.5845 5.716 12.1205 6.14C12.6645 6.556 12.9645 7.14 13.0205 7.892H11.1725C11.1565 7.604 11.0325 7.368 10.8005 7.184C10.5765 6.992 10.2765 6.896 9.90052 6.896C9.57252 6.896 9.30852 6.98 9.10852 7.148C8.91652 7.316 8.82052 7.56 8.82052 7.88C8.82052 8.104 8.89252 8.292 9.03652 8.444C9.18852 8.588 9.37252 8.708 9.58852 8.804C9.81252 8.892 10.1245 8.996 10.5245 9.116C11.0685 9.276 11.5125 9.436 11.8565 9.596C12.2005 9.756 12.4965 9.996 12.7445 10.316C12.9925 10.636 13.1165 11.056 13.1165 11.576C13.1165 12.024 13.0005 12.44 12.7685 12.824C12.5365 13.208 12.1965 13.516 11.7485 13.748C11.3005 13.972 10.7685 14.084 10.1525 14.084Z" fill="white"/>
</svg>
