<svg width="24" height="24" viewBox="0 0 24 24" fill="none" xmlns="http://www.w3.org/2000/svg">
<path d="M15.1725 19.2L14.3168 18.5775C12.9046 17.5474 11.7551 16.199 10.9617 14.6415C10.1682 13.084 9.75308 11.3614 9.75 9.6135C9.74911 9.23503 9.84412 8.86251 10.0262 8.5307C10.2082 8.19889 10.4713 7.9186 10.791 7.716L15.291 4.85175C15.5786 4.66688 15.9052 4.55105 16.245 4.51332C16.5848 4.47559 16.9288 4.51698 17.25 4.63425V3.23625C17.2492 2.5771 16.987 1.94517 16.5209 1.47908C16.0548 1.01299 15.4229 0.750794 14.7638 0.75H3.23625C2.5771 0.750794 1.94517 1.01299 1.47908 1.47908C1.01299 1.94517 0.750794 2.5771 0.75 3.23625V20.7638C0.750794 21.4229 1.01299 22.0548 1.47908 22.5209C1.94517 22.987 2.5771 23.2492 3.23625 23.25H14.7638C15.4229 23.2492 16.0548 22.987 16.5209 22.5209C16.987 22.0548 17.2492 21.4229 17.25 20.7638V19.5052C16.9056 19.6292 16.5361 19.6666 16.1738 19.6143C15.8116 19.562 15.4678 19.4215 15.1725 19.2052V19.2ZM6.75 3.75C6.75 3.55109 6.82902 3.36032 6.96967 3.21967C7.11032 3.07902 7.30109 3 7.5 3H10.5C10.6989 3 10.8897 3.07902 11.0303 3.21967C11.171 3.36032 11.25 3.55109 11.25 3.75C11.25 3.94891 11.171 4.13968 11.0303 4.28033C10.8897 4.42098 10.6989 4.5 10.5 4.5H7.5C7.30109 4.5 7.11032 4.42098 6.96967 4.28033C6.82902 4.13968 6.75 3.94891 6.75 3.75Z" fill="#B1B1B1"/>
<path d="M21.4028 8.98108L16.9028 6.11683C16.7824 6.04021 16.6427 5.99951 16.5 5.99951C16.3573 5.99951 16.2176 6.04021 16.0972 6.11683L11.5973 8.98108C11.4909 9.04878 11.4033 9.1422 11.3426 9.25271C11.2819 9.36322 11.2501 9.48725 11.25 9.61332C11.2523 11.1251 11.611 12.6151 12.2971 13.9623C12.9832 15.3095 13.9773 16.4759 15.1987 17.3668L16.059 17.9923C16.1872 18.0855 16.3415 18.1357 16.5 18.1357C16.6585 18.1357 16.8128 18.0855 16.941 17.9923L17.8013 17.3668C19.0227 16.4759 20.0168 15.3095 20.7029 13.9623C21.389 12.6151 21.7477 11.1251 21.75 9.61332C21.7499 9.48725 21.7181 9.36322 21.6574 9.25271C21.5967 9.1422 21.5091 9.04878 21.4028 8.98108Z" fill="#B1B1B1"/>
</svg>
