<svg width="25" height="34" viewBox="0 0 25 34" fill="none" xmlns="http://www.w3.org/2000/svg">
<path d="M20 3.05881e-07C19.3433 -0.000229421 18.693 0.128943 18.0863 0.380135C17.4796 0.631327 16.9283 0.999615 16.464 1.46395C15.9996 1.92829 15.6313 2.47958 15.3801 3.08631C15.1289 3.69304 14.9998 4.34333 15 5C14.9998 5.65667 15.1289 6.30696 15.3801 6.91369C15.6313 7.52042 15.9996 8.07171 16.464 8.53605C16.9283 9.00039 17.4796 9.36867 18.0863 9.61987C18.693 9.87106 19.3433 10.0002 20 10C20.6567 10.0002 21.307 9.87106 21.9137 9.61987C22.5204 9.36867 23.0717 9.00039 23.536 8.53605C24.0004 8.07171 24.3687 7.52042 24.6199 6.91369C24.8711 6.30696 25.0002 5.65667 25 5C25.0002 4.34333 24.8711 3.69304 24.6199 3.08631C24.3687 2.47958 24.0004 1.92829 23.536 1.46395C23.0717 0.999615 22.5204 0.631327 21.9137 0.380135C21.307 0.128943 20.6567 -0.000229421 20 3.05881e-07ZM20 8.6014C19.8505 8.60174 19.7042 8.5577 19.5798 8.47485C19.4553 8.39199 19.3582 8.27406 19.3008 8.13598C19.2435 7.99791 19.2284 7.84591 19.2574 7.69924C19.2865 7.55258 19.3585 7.41785 19.4642 7.31212C19.5699 7.20639 19.7047 7.13442 19.8513 7.10534C19.998 7.07625 20.15 7.09136 20.2881 7.14874C20.4262 7.20612 20.5441 7.30319 20.6269 7.42765C20.7098 7.55212 20.7538 7.69838 20.7535 7.8479C20.753 8.0476 20.6735 8.23899 20.5323 8.38019C20.3911 8.5214 20.1997 8.60094 20 8.6014ZM20.9143 2.37762L20.6294 6.22378C20.6276 6.25037 20.6158 6.27528 20.5963 6.29347C20.5768 6.31165 20.5511 6.32174 20.5245 6.32168H19.4755C19.4489 6.32174 19.4232 6.31165 19.4037 6.29347C19.3842 6.27528 19.3724 6.25037 19.3706 6.22378L19.0857 2.37762C19.0779 2.25279 19.0959 2.12771 19.1383 2.01007C19.1808 1.89243 19.2469 1.78473 19.3325 1.6936C19.4182 1.60248 19.5216 1.52986 19.6364 1.48022C19.7512 1.43058 19.8749 1.40497 20 1.40497C20.1251 1.40497 20.2488 1.43058 20.3636 1.48022C20.4784 1.52986 20.5818 1.60248 20.6675 1.6936C20.7531 1.78473 20.8192 1.89243 20.8617 2.01007C20.9041 2.12771 20.9221 2.25279 20.9143 2.37762Z" fill="#FFC048"/>
<path d="M15.1725 29.2L14.3168 28.5775C12.9046 27.5474 11.7551 26.199 10.9617 24.6415C10.1682 23.084 9.75308 21.3614 9.75 19.6135C9.74911 19.235 9.84412 18.8625 10.0262 18.5307C10.2082 18.1989 10.4713 17.9186 10.791 17.716L15.291 14.8517C15.5786 14.6669 15.9052 14.5511 16.245 14.5133C16.5848 14.4756 16.9288 14.517 17.25 14.6342V13.2362C17.2492 12.5771 16.987 11.9452 16.5209 11.4791C16.0548 11.013 15.4229 10.7508 14.7638 10.75H3.23625C2.5771 10.7508 1.94517 11.013 1.47908 11.4791C1.01299 11.9452 0.750794 12.5771 0.75 13.2362V30.7638C0.750794 31.4229 1.01299 32.0548 1.47908 32.5209C1.94517 32.987 2.5771 33.2492 3.23625 33.25H14.7638C15.4229 33.2492 16.0548 32.987 16.5209 32.5209C16.987 32.0548 17.2492 31.4229 17.25 30.7638V29.5052C16.9056 29.6292 16.5361 29.6666 16.1738 29.6143C15.8116 29.562 15.4678 29.4215 15.1725 29.2052V29.2ZM6.75 13.75C6.75 13.5511 6.82902 13.3603 6.96967 13.2197C7.11032 13.079 7.30109 13 7.5 13H10.5C10.6989 13 10.8897 13.079 11.0303 13.2197C11.171 13.3603 11.25 13.5511 11.25 13.75C11.25 13.9489 11.171 14.1397 11.0303 14.2803C10.8897 14.421 10.6989 14.5 10.5 14.5H7.5C7.30109 14.5 7.11032 14.421 6.96967 14.2803C6.82902 14.1397 6.75 13.9489 6.75 13.75Z" fill="#B1B1B1"/>
<path d="M21.4028 18.9811L16.9028 16.1168C16.7824 16.0402 16.6427 15.9995 16.5 15.9995C16.3573 15.9995 16.2176 16.0402 16.0972 16.1168L11.5973 18.9811C11.4909 19.0488 11.4033 19.1422 11.3426 19.2527C11.2819 19.3632 11.2501 19.4872 11.25 19.6133C11.2523 21.1251 11.611 22.6151 12.2971 23.9623C12.9832 25.3095 13.9773 26.4759 15.1987 27.3668L16.059 27.9923C16.1872 28.0855 16.3415 28.1357 16.5 28.1357C16.6585 28.1357 16.8128 28.0855 16.941 27.9923L17.8013 27.3668C19.0227 26.4759 20.0168 25.3095 20.7029 23.9623C21.389 22.6151 21.7477 21.1251 21.75 19.6133C21.7499 19.4872 21.7181 19.3632 21.6574 19.2527C21.5967 19.1422 21.5091 19.0488 21.4028 18.9811Z" fill="#B1B1B1"/>
</svg>
