<svg width="16" height="16" viewBox="0 0 16 16" fill="none" xmlns="http://www.w3.org/2000/svg">
<path fill-rule="evenodd" clip-rule="evenodd" d="M4.95937 11.2897C2.20119 11.1758 0 8.90381 0 6.11766C0 3.25875 2.31759 0.941188 5.17647 0.941188C7.64138 0.941188 9.70391 2.66403 10.2255 4.97119C7.25766 5.27084 4.94116 7.77666 4.94116 10.8235C4.94119 10.9804 4.94731 11.1358 4.95937 11.2897ZM10.3529 0.941188H10.1177C9.98772 0.941188 9.88237 0.835844 9.88237 0.705906V0.235281C9.88237 0.105312 9.98772 0 10.1177 0H10.3529C12.6281 0 14.4843 1.794 14.584 4.04459L15.0303 3.59834C15.1222 3.50644 15.2712 3.50644 15.363 3.59834L15.6958 3.93109C15.7877 4.023 15.7877 4.17197 15.6958 4.26384L14.4504 5.50922C14.2666 5.693 13.9687 5.693 13.7849 5.50922L12.5395 4.26384C12.4477 4.17194 12.4477 4.02297 12.5395 3.93109L12.8723 3.59834C12.9642 3.50644 13.1132 3.50644 13.205 3.59834L13.641 4.03434C13.5372 2.30862 12.1047 0.941188 10.3529 0.941188ZM10.8235 16C7.96466 16 5.64706 13.6824 5.64706 10.8235C5.64706 7.96466 7.96466 5.64706 10.8235 5.64706C13.6824 5.64706 16 7.96466 16 10.8235C16 13.6824 13.6824 16 10.8235 16Z" fill="white"/>
</svg>
