<svg width="65" height="23" viewBox="0 0 65 23" fill="none" xmlns="http://www.w3.org/2000/svg">
<path d="M0.527732 19.7572H1.01431L0.562162 21.6487C0.49506 21.9293 0.507707 22.1406 0.600455 22.2815C0.692852 22.4226 0.864822 22.4932 1.11619 22.4932C1.36598 22.4932 1.5708 22.4226 1.73082 22.2815C1.89102 22.1406 2.00468 21.9293 2.07178 21.6487L2.52375 19.7572H3.01665L2.55343 21.6955C2.45278 22.1167 2.27343 22.4319 2.01662 22.641C1.75963 22.8503 1.42272 22.9548 1.00588 22.9548C0.588686 22.9548 0.302537 22.8505 0.146728 22.642C-0.0092577 22.4337 -0.0364849 22.1181 0.0645191 21.6955L0.527732 19.7572Z" fill="#696A6A"/>
<path d="M2.95129 22.8721L3.72525 19.6339L5.19587 21.5381C5.23522 21.5918 5.27491 21.6493 5.31409 21.7103C5.35326 21.7714 5.39331 21.84 5.43441 21.9167L5.95068 19.7573H6.40616L5.63273 22.9929L4.1312 21.0548C4.09097 21.0025 4.05356 20.9473 4.0186 20.8891C3.98329 20.8308 3.9515 20.7698 3.92234 20.7061L3.40467 22.8721H2.95129Z" fill="#696A6A"/>
<path d="M6.36584 22.8721L7.11029 19.7573H7.60284L6.85857 22.8721H6.36584Z" fill="#696A6A"/>
<path d="M7.56677 22.8721L8.31122 19.7573H10.0028L9.90005 20.1869H8.70118L8.51551 20.9635H9.71438L9.60828 21.4081H8.40923L8.0595 22.8721H7.56677Z" fill="#696A6A"/>
<path d="M9.80115 22.8721L10.5456 19.7573H11.0381L10.2939 22.8721H9.80115Z" fill="#696A6A"/>
<path d="M11.0021 22.8721L11.7465 19.7573H13.4381L13.3354 20.1869H12.1365L11.9498 20.9677H13.1486L13.0425 21.4125H11.8437L11.603 22.4189H12.8019L12.6937 22.8721H11.0021Z" fill="#696A6A"/>
<path d="M13.8611 22.4145H14.2753C14.503 22.4145 14.6776 22.3988 14.799 22.3677C14.9204 22.3365 15.0317 22.2839 15.1338 22.2102C15.2724 22.1097 15.3881 21.9845 15.4812 21.8347C15.5742 21.6852 15.6446 21.5108 15.692 21.3122C15.7393 21.1136 15.7523 20.9397 15.7309 20.7904C15.7093 20.6405 15.6534 20.5154 15.5629 20.4146C15.4949 20.341 15.4052 20.2883 15.2931 20.2569C15.1809 20.226 14.9982 20.2103 14.7442 20.2103H14.5661H14.3879L13.8611 22.4145ZM13.2592 22.8721L14.0036 19.7571H14.6681C15.1002 19.7571 15.3989 19.7793 15.5643 19.824C15.7295 19.8688 15.8659 19.9438 15.9733 20.0486C16.1157 20.1862 16.2064 20.3628 16.2454 20.5782C16.2842 20.7939 16.2705 21.04 16.2044 21.3166C16.1384 21.5932 16.0346 21.8383 15.893 22.0517C15.7518 22.2653 15.5766 22.4414 15.3683 22.5804C15.2107 22.6854 15.0417 22.7602 14.8622 22.805C14.6822 22.8496 14.4138 22.8721 14.0561 22.8721H13.9235H13.2592Z" fill="#696A6A"/>
<path d="M18.6036 21.0594H18.7301C19.0033 21.0594 19.1928 21.0286 19.2985 20.9677C19.4045 20.9068 19.4756 20.799 19.5125 20.6443C19.5522 20.4784 19.5316 20.3613 19.4505 20.2934C19.3693 20.2253 19.1986 20.191 18.9377 20.191H18.8113L18.6036 21.0594ZM18.4735 21.4739L18.1394 22.8721H17.6777L18.4224 19.7573H19.1677C19.3885 19.7573 19.5482 19.7696 19.6465 19.7944C19.7445 19.819 19.8255 19.86 19.8895 19.9168C19.9673 19.9892 20.0184 20.0866 20.043 20.2093C20.0674 20.3321 20.0621 20.4672 20.027 20.6144C19.9915 20.7621 19.9321 20.8982 19.8485 21.0231C19.7649 21.1479 19.6669 21.2459 19.5548 21.3166C19.4638 21.3734 19.3635 21.4139 19.2536 21.4378C19.1434 21.4621 18.9781 21.4739 18.7573 21.4739H18.6602H18.4735Z" fill="#696A6A"/>
<path d="M20.6353 21.6485H21.48L21.339 20.9377C21.3323 20.8925 21.326 20.8405 21.3205 20.7815C21.3154 20.7226 21.3119 20.6569 21.3096 20.5846C21.277 20.6527 21.2441 20.7162 21.2113 20.7752C21.1786 20.8339 21.1468 20.8881 21.1155 20.9377L20.6353 21.6485ZM21.7054 22.8718L21.5531 22.0697H20.3521L19.8085 22.8718H19.2911L21.5327 19.6337L22.225 22.8718H21.7054Z" fill="#696A6A"/>
<path d="M22.9313 22.8721L23.2717 21.4464L22.6548 19.7573H23.1725L23.5554 20.8147C23.5642 20.8418 23.5747 20.8771 23.5868 20.9211C23.5991 20.9651 23.6111 21.0124 23.6223 21.0636C23.6532 21.014 23.685 20.9668 23.7168 20.923C23.7486 20.879 23.7808 20.8388 23.8133 20.8018L24.7149 19.7573H25.2078L23.7604 21.4464L23.4198 22.8721H22.9313Z" fill="#696A6A"/>
<path d="M27.6326 21.3335C27.6327 21.3094 27.6398 21.2429 27.6535 21.1337C27.664 21.0429 27.6723 20.9676 27.6782 20.9079C27.6489 20.979 27.6143 21.0501 27.5746 21.1208C27.5347 21.1917 27.489 21.264 27.4369 21.3379L26.2471 22.9976L25.8589 21.304C25.8424 21.2343 25.8298 21.1669 25.8213 21.1018C25.8129 21.0366 25.8071 20.972 25.8043 20.9079C25.7874 20.9734 25.766 21.0417 25.7398 21.1134C25.7137 21.185 25.6824 21.26 25.6457 21.3379L24.9539 22.8719H24.5007L25.993 19.625L26.4177 21.5911C26.4238 21.6223 26.4328 21.6742 26.4437 21.7465C26.4546 21.8188 26.4674 21.9082 26.4823 22.0144C26.5326 21.925 26.605 21.8117 26.7002 21.6742C26.7255 21.6372 26.7448 21.6089 26.7578 21.589L28.101 19.625L28.058 22.8719H27.6002L27.6326 21.3335Z" fill="#696A6A"/>
<path d="M28.4514 22.8721L29.196 19.7573H30.8876L30.7849 20.1869H29.5858L29.3993 20.9677H30.5981L30.492 21.4125H29.293L29.0525 22.4189H30.2514L30.1428 22.8721H28.4514Z" fill="#696A6A"/>
<path d="M30.7085 22.8721L31.4825 19.6339L32.9531 21.5381C32.9924 21.5918 33.0321 21.6493 33.0713 21.7103C33.1105 21.7714 33.1505 21.84 33.1916 21.9167L33.7079 19.7573H34.1635L33.3899 22.9929L31.8884 21.0548C31.8482 21.0025 31.8108 20.9473 31.7758 20.8891C31.7405 20.8308 31.7087 20.7698 31.6795 20.7061L31.1619 22.8721H30.7085Z" fill="#696A6A"/>
<path d="M35.7358 20.1869L35.0941 22.8721H34.6014L35.2429 20.1869H34.4375L34.5403 19.7573H36.6397L36.5372 20.1869H35.7358Z" fill="#696A6A"/>
<path d="M36.2471 22.2484L36.6852 22.0614C36.6895 22.2002 36.7324 22.3063 36.8143 22.3793C36.8961 22.4525 37.0143 22.489 37.1693 22.489C37.3154 22.489 37.4419 22.4471 37.548 22.3633C37.6543 22.2798 37.7243 22.1677 37.7579 22.0273C37.8016 21.8441 37.6926 21.681 37.4317 21.538C37.3952 21.5167 37.3671 21.5011 37.3477 21.491C37.0535 21.3237 36.867 21.1722 36.7883 21.0368C36.7097 20.9013 36.6936 20.7357 36.7403 20.5401C36.8009 20.2862 36.9341 20.0805 37.1394 19.9231C37.3448 19.7656 37.5833 19.6868 37.8554 19.6868C38.079 19.6868 38.2555 19.7311 38.3847 19.8198C38.5139 19.9087 38.5877 20.0359 38.606 20.2018L38.1723 20.406C38.1347 20.3082 38.0852 20.2366 38.0237 20.191C37.962 20.1456 37.884 20.1229 37.7904 20.1229C37.658 20.1229 37.5441 20.1587 37.4491 20.2292C37.3546 20.3003 37.2926 20.3953 37.2639 20.5146C37.2193 20.7018 37.3488 20.8761 37.6525 21.0378C37.6759 21.0505 37.6941 21.0607 37.7073 21.0677C37.9731 21.2094 38.1459 21.3482 38.2252 21.4836C38.3046 21.6193 38.3202 21.7884 38.2715 21.991C38.2011 22.2863 38.0548 22.5206 37.8324 22.6943C37.61 22.8679 37.3448 22.9548 37.0372 22.9548C36.7788 22.9548 36.5819 22.894 36.4463 22.7719C36.3103 22.6499 36.2439 22.4756 36.2471 22.2484Z" fill="#696A6A"/>
<path d="M39.8876 22.8721L40.632 19.7573H41.1247L40.3803 22.8721H39.8876Z" fill="#696A6A"/>
<path d="M41.0885 22.8721L41.8625 19.6339L43.3331 21.5381C43.3724 21.5918 43.4121 21.6493 43.4513 21.7103C43.4905 21.7714 43.5305 21.84 43.5716 21.9167L44.0879 19.7573H44.5434L43.7699 22.9929L42.2684 21.0548C42.2282 21.0025 42.1906 20.9473 42.1556 20.8891C42.1205 20.8308 42.0885 20.7698 42.0594 20.7061L41.5419 22.8721H41.0885Z" fill="#696A6A"/>
<path d="M46.1158 20.1869L45.4739 22.8721H44.9814L45.6229 20.1869H44.8175L44.9203 19.7573H47.0197L46.9172 20.1869H46.1158Z" fill="#696A6A"/>
<path d="M46.6522 22.8721L47.3967 19.7573H49.0883L48.9857 20.1869H47.7868L47.6001 20.9677H48.799L48.6927 21.4125H47.4938L47.2533 22.4189H48.4522L48.3438 22.8721H46.6522Z" fill="#696A6A"/>
<path d="M49.8291 21.0845H49.9183C50.179 21.0845 50.3598 21.0535 50.4603 20.9911C50.5607 20.9286 50.6303 20.8181 50.6679 20.6591C50.709 20.4875 50.6921 20.3665 50.6168 20.2965C50.5421 20.2259 50.3803 20.1909 50.1319 20.1909H50.0427L49.8291 21.0845ZM49.704 21.478L49.3708 22.8718H48.9092L49.6538 19.757H50.3412C50.5426 19.757 50.6958 19.7704 50.8003 19.7975C50.905 19.8244 50.9893 19.8689 51.0531 19.9316C51.129 20.0065 51.1782 20.104 51.201 20.2231C51.2233 20.342 51.2175 20.4726 51.1838 20.6142C51.1242 20.8639 51.0188 21.0593 50.8678 21.2006C50.7167 21.3415 50.5231 21.4265 50.2872 21.4546L50.9923 22.8718H50.4351L49.7599 21.478H49.704Z" fill="#696A6A"/>
<path d="M51.2843 22.8721L52.0287 19.7573H53.7203L53.6178 20.1869H52.4187L52.233 20.9635H53.4321L53.3258 21.4081H52.1269L51.777 22.8721H51.2843Z" fill="#696A6A"/>
<path d="M54.2914 21.6485H55.1363L54.9953 20.9377C54.9884 20.8925 54.9823 20.8405 54.9768 20.7815C54.9717 20.7226 54.9682 20.6569 54.9659 20.5846C54.9331 20.6527 54.9002 20.7162 54.8676 20.7752C54.8349 20.8339 54.8029 20.8881 54.7717 20.9377L54.2914 21.6485ZM55.3617 22.8718L55.2094 22.0697H54.0084L53.4648 22.8718H52.9473L55.1889 19.6337L55.8813 22.8718H55.3617Z" fill="#696A6A"/>
<path d="M59.0888 20.5146C58.9786 20.3927 58.8532 20.3012 58.7123 20.2401C58.5718 20.1794 58.4158 20.1486 58.2446 20.1486C57.9134 20.1486 57.6176 20.2579 57.3578 20.4762C57.0977 20.6947 56.9262 20.9776 56.8431 21.3253C56.7629 21.6615 56.7978 21.9386 56.9478 22.157C57.0979 22.3755 57.3269 22.4849 57.6345 22.4849C57.8142 22.4849 57.9927 22.4522 58.1704 22.3869C58.3482 22.3216 58.5275 22.2231 58.7079 22.091L58.5711 22.6635C58.4153 22.7613 58.2535 22.8345 58.0861 22.8825C57.9185 22.9307 57.7438 22.9548 57.5616 22.9548C57.3297 22.9548 57.1246 22.916 56.9466 22.8378C56.7685 22.7599 56.6229 22.6452 56.5103 22.4932C56.3982 22.3443 56.3264 22.1689 56.2956 21.9666C56.2644 21.7646 56.2761 21.5493 56.3306 21.3207C56.3852 21.0925 56.4764 20.8781 56.6037 20.6773C56.7309 20.4766 56.8881 20.3003 57.0747 20.1486C57.2619 19.9954 57.4622 19.8796 57.6754 19.8006C57.8888 19.7222 58.1089 19.6826 58.3354 19.6826C58.5135 19.6826 58.6769 19.7093 58.8256 19.7626C58.9744 19.8156 59.1118 19.896 59.2381 20.0042L59.0888 20.5146Z" fill="#696A6A"/>
<path d="M59.1365 22.8721L59.8809 19.7573H61.5725L61.4698 20.1869H60.2711L60.0843 20.9677H61.2832L61.1769 21.4125H59.9781L59.7376 22.4189H60.9365L60.8281 22.8721H59.1365Z" fill="#696A6A"/>
<path d="M50.1491 17.0427H46.7618L51.4727 0.00229073H54.8601L50.1491 17.0427Z" fill="#66686C"/>
<path d="M48.3905 0.541143C48.1557 0.21689 47.7935 0.0532684 47.3014 0.0532684H28.6752L27.7527 3.3908H31.1418V3.38887H44.6973L43.7111 6.95547H30.1553L30.1566 6.94809H26.7688L23.957 17.115H27.3465L29.2335 10.2911H44.4712C44.9471 10.2911 45.395 10.1285 45.8162 9.80338C46.2366 9.47789 46.5133 9.07658 46.6459 8.59732L48.5326 1.772C48.6704 1.27674 48.6227 0.865747 48.3905 0.541143Z" fill="#66686C"/>
<path d="M21.9833 15.9791C21.7962 16.6538 21.1828 17.1206 20.4835 17.1206H3.00698C2.53076 17.1206 2.17681 16.958 1.94406 16.6333C1.71149 16.3081 1.6616 15.9059 1.79458 15.4269L6.05888 0.0521984H9.44928L5.64046 13.7841H19.2024L23.0112 0.0521984H26.4009L21.9833 15.9791Z" fill="#66686C"/>
<path d="M60.7103 0.0343952L64.9988 8.57669L55.9836 17.1167L60.7103 0.0343952Z" fill="#27803B"/>
<path d="M57.7039 0.0343952L61.9893 8.57669L52.9705 17.1167L57.7039 0.0343952Z" fill="#E9661C"/>
</svg>
