<svg width="78" height="78" viewBox="0 0 78 78" fill="none" xmlns="http://www.w3.org/2000/svg">
<path d="M62.7549 66.3457C64.4383 66.3457 65.8018 67.7092 65.8018 69.3926C65.8018 71.076 64.4383 72.4395 62.7549 72.4395C61.0715 72.4395 59.708 71.076 59.708 69.3926C59.708 67.7092 61.0715 66.3457 62.7549 66.3457Z" fill="#F9C430"/>
<path d="M11.7197 6.93164C13.8236 6.93164 15.5283 8.63637 15.5283 10.7402C15.5283 12.8441 13.8236 14.5488 11.7197 14.5488C9.61571 14.5488 7.91113 12.8441 7.91113 10.7402C7.91113 8.63637 9.61571 6.93164 11.7197 6.93164Z" fill="#F9C430"/>
<path d="M38.3799 8.45508C21.552 8.45508 7.91113 22.0959 7.91113 38.9238C7.91113 55.7517 21.552 69.3926 38.3799 69.3926C55.2078 69.3926 68.8486 55.7517 68.8486 38.9238C68.8486 22.0959 55.2078 8.45508 38.3799 8.45508Z" fill="#FFE6A1"/>
<path d="M38.3799 16.0723C51 16.0723 61.2314 26.3037 61.2314 38.9238C61.2314 51.544 51 61.7754 38.3799 61.7754C25.7597 61.7754 15.5283 51.544 15.5283 38.9238C15.5283 26.3037 25.7597 16.0723 38.3799 16.0723Z" fill="white"/>
<path d="M42.9502 50.4517V53.2944C42.9502 54.6137 41.8823 55.6816 40.563 55.6816H37.7202C36.4009 55.6816 35.333 54.6137 35.333 53.2944V50.4517C35.333 49.1324 36.4009 48.0645 37.7202 48.0645H40.563C41.8823 48.0645 42.9502 49.1324 42.9502 50.4517Z" fill="#F9C430"/>
<path d="M41.5165 22.166C43.1146 22.166 44.3762 23.5219 44.2633 25.1154L42.9501 43.4941H35.3329L34.0197 25.1154C33.907 23.5219 35.1684 22.166 36.7665 22.166H41.5165Z" fill="#F9C430"/>
<path d="M70.3721 17.5957C71.213 17.5957 71.8955 18.2782 71.8955 19.1191C71.8955 19.9601 71.213 20.6426 70.3721 20.6426C69.5311 20.6426 68.8486 19.9601 68.8486 19.1191C68.8486 18.2782 69.5311 17.5957 70.3721 17.5957Z" fill="#DE9401"/>
<path d="M70.3721 57.2051C71.213 57.2051 71.8955 57.8876 71.8955 58.7285C71.8955 59.5695 71.213 60.252 70.3721 60.252C69.5311 60.252 68.8486 59.5695 68.8486 58.7285C68.8486 57.8876 69.5311 57.2051 70.3721 57.2051Z" fill="#DE9401"/>
<path d="M59.708 3.88477C60.5489 3.88477 61.2314 4.56727 61.2314 5.4082C61.2314 6.24914 60.5489 6.93164 59.708 6.93164C58.8671 6.93164 58.1846 6.24914 58.1846 5.4082C58.1846 4.56727 58.8671 3.88477 59.708 3.88477Z" fill="#DE9401"/>
<path d="M15.5283 69.3926C16.3693 69.3926 17.0518 70.0751 17.0518 70.916C17.0518 71.757 16.3693 72.4395 15.5283 72.4395C14.6872 72.4395 14.0049 71.757 14.0049 70.916C14.0049 70.0751 14.6872 69.3926 15.5283 69.3926Z" fill="#DE9401"/>
<path d="M6.3877 19.1191C7.22863 19.1191 7.91113 19.8016 7.91113 20.6426C7.91113 21.4835 7.22863 22.166 6.3877 22.166C5.54661 22.166 4.86426 21.4835 4.86426 20.6426C4.86426 19.8016 5.54661 19.1191 6.3877 19.1191Z" fill="#DE9401"/>
<path d="M6.3877 57.2051C7.22863 57.2051 7.91113 57.8876 7.91113 58.7285C7.91113 59.5695 7.22863 60.252 6.3877 60.252C5.54661 60.252 4.86426 59.5695 4.86426 58.7285C4.86426 57.8876 5.54661 57.2051 6.3877 57.2051Z" fill="#DE9401"/>
</svg>
